<?xml version="1.0" standalone="no"?>
<!DOCTYPE svg PUBLIC "-//W3C//DTD SVG 1.1//EN" "http://www.w3.org/Graphics/SVG/1.1/DTD/svg11.dtd" >
<svg xmlns="http://www.w3.org/2000/svg" xmlns:xlink="http://www.w3.org/1999/xlink" version="1.1">
<metadata>
Created by FontForge 20170924 at Tue Oct 14 00:45:40 2014
 By www-data
</metadata>
<defs>
<font id="Rachel" horiz-adv-x="609" >
  <font-face 
    font-family="Rachel"
    font-weight="400"
    font-stretch="normal"
    units-per-em="1000"
    panose-1="2 0 0 0 0 0 0 0 0 0"
    ascent="750"
    descent="-250"
    x-height="510"
    cap-height="699"
    bbox="-80 -320 1152 924"
    underline-thickness="50"
    underline-position="-100"
    unicode-range="U+000D-FB03"
  />
<missing-glyph horiz-adv-x="350" 
 />
    <glyph glyph-name=".notdef" horiz-adv-x="350" 
 />
    <glyph glyph-name="NULL" horiz-adv-x="0" 
 />
    <glyph glyph-name="NULL" horiz-adv-x="0" 
 />
    <glyph glyph-name="nonmarkingreturn" unicode="&#xd;" horiz-adv-x="278" 
 />
    <glyph glyph-name="space" unicode=" " horiz-adv-x="200" 
 />
    <glyph glyph-name="b" unicode="b" horiz-adv-x="608" 
d="M567 255q-1 -75 -23 -134q-9 -25 -24.5 -49t-38 -42.5t-53.5 -30t-72 -11.5q-37 0 -60 13t-36 31t-19 36t-9 29v-97h-219q24 0 37.5 12t19.5 27q7 17 8 39v603q-1 6 -3 17.5t-9 23t-19.5 20t-33.5 8.5h219v-69v-245q3 12 9.5 26.5t18.5 27t31 21.5t47 9q45 0 78.5 -11.5
t58 -30.5t40.5 -42.5t27 -48.5q24 -58 25 -132zM323 5q21 0 39.5 12t32.5 40.5t22 77t8 120.5t-8 120t-22 76.5t-32.5 40t-39.5 11.5q-30 0 -54 -22t-37 -79v-270q13 -57 37 -92t54 -35z" />
    <glyph glyph-name="c" unicode="c" horiz-adv-x="515" 
d="M182 254q0 -59 16.5 -105t43 -76.5t59 -44t64.5 -6.5t59.5 36t43.5 82q0 -1 -5.5 -24.5t-25.5 -52t-60.5 -52t-110.5 -23.5q-46 0 -88 13.5t-74.5 45t-52.5 82.5t-21 125q4 74 35 133q13 25 33 48.5t49.5 42.5t69 30.5t91.5 11.5q30 0 61.5 -10t57 -27.5t42 -41.5
t16.5 -51q0 -32 -22 -53.5t-54 -21.5t-54 21.5t-22 53.5q0 30 22 53t54 23q20 0 19 6t-12.5 12.5t-29 12.5t-31.5 6q-33 0 -57.5 -11t-42.5 -28.5t-30.5 -40t-20.5 -45.5q-19 -55 -22 -124z" />
    <glyph glyph-name="d" unicode="d" horiz-adv-x="608" 
d="M225 -12q-41 0 -72 11.5t-53.5 30t-38 42.5t-24.5 49q-22 59 -23 134q0 74 25 132q10 25 26.5 48.5t41 42.5t58 30.5t78.5 11.5q28 0 47 -9t31 -21.5t18.5 -27t9.5 -26.5v314h219q-21 0 -33.5 -8.5t-19.5 -20t-9 -23t-3 -17.5v-603q1 -22 8 -39q6 -15 19 -27t38 -12h-219
v97q-3 -11 -9 -29t-19 -36t-36 -31t-60 -13zM156 255q0 -72 8 -120.5t22 -77t32.5 -40.5t39.5 -12q30 0 54 35t37 92v270q-13 57 -37 79t-54 22q-21 0 -39.5 -11.5t-32.5 -40t-22 -76.5t-8 -120z" />
    <glyph glyph-name="e" unicode="e" horiz-adv-x="546" 
d="M378 261h-194v-16.5t1.5 -40t6 -53t14 -55t24.5 -48t38 -29.5q42 -15 77 -5.5t61.5 31.5t42.5 48.5t20 46.5l-2.5 -11.5t-9 -28.5t-20 -36.5t-36 -36.5t-55.5 -28t-80 -11q-46 0 -88.5 14t-75 46t-52.5 84t-20 128q0 55 17.5 102.5t48.5 82.5t74.5 55t94.5 20
q45 0 80 -11t61 -29.5t44.5 -42t30.5 -47.5q28 -57 35 -129h-4h-134zM378 282q0 27 -1.5 65t-10.5 72.5t-29 58.5t-56 24t-56 -24t-29 -58.5t-10.5 -72.5t-1.5 -65h194z" />
    <glyph glyph-name="f" unicode="f" horiz-adv-x="390" 
d="M246 779q44 0 80.5 -8t62.5 -25t40.5 -43.5t14.5 -64.5q-2 -23 -19.5 -44t-46.5 -21t-49 15.5t-20 53.5q0 23 14 39t43 16q25 0 29 10.5t-8 22.5t-36.5 22.5t-56.5 10.5q-26 0 -38.5 -20t-17.5 -44q-5 -28 -3 -64v-125h90v-17h-90v-418q0 -5 2 -17t8.5 -25t19.5 -23
t35 -10h-283q22 0 35 10t20 23t8.5 25t1.5 17v418h-72v17h72v125q-1 40 16 72q14 27 48 49.5t100 22.5z" />
    <glyph glyph-name="g" unicode="g" horiz-adv-x="628" 
d="M553 519q26 -2 44 -21.5t18 -46.5q0 -28 -20 -47.5t-48 -19.5q-29 0 -48.5 19.5t-19.5 47.5q0 21 11.5 38t29.5 25q-29 -4 -53 -19t-42 -33q32 -27 51 -64.5t19 -81.5q0 -42 -18 -79t-49.5 -64.5t-73.5 -43.5t-90 -16q-38 0 -71 10t-62 27q-23 -6 -37.5 -19t-16 -26
t14 -23t52.5 -10h264q33 -2 59 -18q23 -14 41.5 -42.5t18.5 -81.5q-2 -27 -13 -47q-10 -18 -30.5 -32.5t-58.5 -14.5h-298q-9 0 -12 -3q-2 -2 0.5 -8t18.5 -18q22 -17 22.5 -45t-16.5 -49q-18 -20 -45.5 -23t-49.5 14q-22 19 -24.5 47t15.5 50q11 12 25 23q12 9 28.5 16.5
t37.5 7.5h298q20 0 30.5 11t10.5 24.5t-10 24.5t-31 11h-281q-42 0 -64.5 18t-33.5 40q-12 26 -14 59q1 27 12 51q9 20 28.5 38.5t56.5 25.5q-45 28 -71 71t-26 94q0 42 18 79.5t49.5 65t74 43.5t90.5 16q46 0 86 -14.5t71 -40.5q23 24 47 35t43 16q22 4 42 3zM268 137
q21 0 40 14t33.5 39t22.5 58t8 71q0 37 -8 70.5t-22.5 58t-33.5 39t-40 14.5q-22 0 -41 -14.5t-33.5 -39t-22.5 -58t-8 -70.5q0 -38 8 -71t22.5 -58t33.5 -39t41 -14z" />
    <glyph glyph-name="h" unicode="h" horiz-adv-x="607" 
d="M514 99q0 -42 13 -56.5t28.5 -8.5t28.5 28t13 52q0 -47 -18.5 -72.5t-40.5 -37.5q-26 -14 -58 -16q-32 2 -58 14q-22 11 -39.5 33t-17.5 64v292q0 30 -6 48.5t-16 28.5t-22 13t-25 1q-30 -4 -68 -29v-453h-218q25 0 38.5 12t19.5 27q7 17 8 39v618q-1 19 -8 35
q-6 13 -19.5 24t-38.5 11h284q-25 0 -38.5 -11t-19.5 -24q-7 -16 -8 -35v-231q17 20 40 31.5t45 16.5q26 6 52 7q41 -2 74 -16q28 -12 51.5 -38.5t23.5 -74.5v-292v0z" />
    <glyph glyph-name="i" unicode="i" horiz-adv-x="304" 
d="M10 0q25 0 38.5 12t19.5 26q7 17 8 38v366q-1 19 -8 34q-6 13 -19.5 23.5t-38.5 10.5h219v-434q1 -21 8 -38q6 -14 19 -26t38 -12h-284zM76 657q0 31 22 53t53 22t53 -22t22 -53t-22 -53t-53 -22t-53 22t-22 53z" />
    <glyph glyph-name="j" unicode="j" horiz-adv-x="333" 
d="M272 -95q-3 -41 -22 -73q-8 -14 -20.5 -26.5t-31 -23t-43.5 -16.5t-58 -6t-57.5 6.5t-43 17t-31 24.5t-21.5 28q-20 33 -24 76v2h1q1 27 20.5 46t47.5 19q29 0 48.5 -19.5t19.5 -48.5t-19.5 -49t-48.5 -20q-26 0 -26.5 -9.5t12.5 -20.5t34 -20.5t38 -9.5q27 0 41.5 19
t21.5 42q8 27 9 62v528q0 4 -2.5 17t-9 26t-20 23.5t-35.5 10.5h220v-605zM122 657q0 31 22 53t53 22t53 -22t22 -53t-22 -53t-53 -22t-53 22t-22 53z" />
    <glyph glyph-name="k" unicode="k" horiz-adv-x="649" 
d="M599 0h-172h-1l-200 264v-194q1 -20 8 -35q6 -14 19.5 -24.5t38.5 -10.5h-282q24 0 37.5 10.5t19.5 24.5q7 15 8 35v628q0 6 -2.5 17t-9.5 22.5t-19.5 20t-33.5 8.5h216v-489l107 74l49 34q5 3 7.5 6.5t-3.5 5.5q-23 3 -39 21t-16 42q0 26 18.5 44.5t44.5 18.5
t44.5 -18.5t18.5 -44.5q0 -17 -7.5 -31t-20.5 -22l-91 -63l226 -298q14 -16 33.5 -31t41.5 -15h-40z" />
    <glyph glyph-name="l" unicode="l" horiz-adv-x="279" 
d="M209 65q0 -19 7 -33q5 -12 17.5 -22t35.5 -10h-259q23 0 35 10t18 22q7 14 8 33v568q-1 18 -8 33q-6 12 -18 22.5t-35 10.5h199v-634v0z" />
    <glyph glyph-name="m" unicode="m" horiz-adv-x="869" 
d="M778 98q0 -42 12.5 -56t28 -7.5t28 28.5t12.5 52q0 -48 -18 -73.5t-40 -37.5q-26 -14 -58 -16q-32 2 -58 14q-22 11 -40 32.5t-18 63.5v294q0 35 -8 54.5t-20 28t-27 8.5t-29.5 -4.5t-26.5 -11t-19 -10.5q8 -13 12 -28t4 -35v-325q1 -20 8 -35q6 -13 19 -23.5t38 -10.5
h-281q24 0 37.5 10.5t19.5 23.5q7 15 8 35v325q0 38 -9 58t-23 27.5t-30.5 5.5t-31.5 -7.5t-26.5 -12.5t-14.5 -9v-456h-217q25 0 38.5 10.5t19.5 24.5q7 15 8 35v373q-1 18 -8 33q-6 13 -19.5 23.5t-38.5 10.5h217v-41q17 20 40 30.5t44 15.5q25 5 51 5q25 0 49 -6
q20 -5 42.5 -16.5t38.5 -32.5q17 20 40 31.5t44 16.5q25 6 51 7q42 -2 75 -16q29 -12 52.5 -38t23.5 -74v-294v0z" />
    <glyph glyph-name="o" unicode="o" 
d="M304 520q57 0 107 -21t87.5 -57t59 -84.5t21.5 -103.5t-21.5 -103.5t-59 -84.5t-87.5 -57t-107 -21t-106.5 21t-87 57t-59 84.5t-21.5 103.5t21.5 103.5t59 84.5t87 57t106.5 21zM304 12q27 0 51 18.5t42.5 51t29.5 76.5t11 96t-11 96t-29.5 76.5t-42.5 51t-51 18.5
q-34 0 -59 -18.5t-41.5 -51t-24.5 -76.5t-8 -96t8 -96t24.5 -76.5t41.5 -51t59 -18.5z" />
    <glyph glyph-name="p" unicode="p" horiz-adv-x="605" 
d="M353 520q41 0 72 -11.5t53.5 -30.5t38 -42.5t24.5 -48.5q22 -59 23 -133q0 -75 -25 -133q-11 -25 -27.5 -49t-41 -42.5t-58 -30t-78.5 -11.5q-28 0 -47 9t-31 21.5t-19 27t-10 26.5v-229q0 -18 7 -32q5 -12 17.5 -22t35.5 -10h-271q22 0 34.5 10t17.5 22q6 14 7 32v592
q-1 20 -8 37q-6 14 -19.5 26t-37.5 12h217v-99q3 10 9 28.5t19.5 36.5t36.5 31t61 13zM318 5q22 0 41 12t33 40.5t22 76.5t8 120t-8 120t-22 76.5t-33 40.5t-41 12q-29 0 -53 -35t-38 -92v-269q14 -57 38 -79.5t53 -22.5z" />
    <glyph glyph-name="q" unicode="q" horiz-adv-x="605" 
d="M252 520q39 0 62.5 -13t36.5 -31t18.5 -36.5t8.5 -28.5v99h217q-25 0 -38 -12t-19 -26q-7 -17 -8 -37v-593q1 -18 7 -32q5 -12 17 -22t35 -10h-271q23 0 34.5 10t17.5 22q6 14 8 32v230q-3 -12 -10 -26.5t-19 -27t-31 -21.5t-47 -9q-45 0 -78.5 11.5t-58.5 30t-41.5 42.5
t-26.5 49q-25 58 -25 133q1 74 23 133q9 25 24.5 48.5t38 42.5t53.5 30.5t72 11.5zM183 254q0 -72 8 -120t22 -76.5t33 -40.5t41 -12q29 0 53 22.5t38 79.5v269q-14 57 -38 92t-53 35q-22 0 -41 -12t-33 -40.5t-22 -76.5t-8 -120z" />
    <glyph glyph-name="r" unicode="r" horiz-adv-x="433" 
d="M385 510q24 -11 33.5 -36.5t-1.5 -50.5q-11 -26 -37 -36t-52 1t-36 37t1 52q9 19 4 26.5t-16.5 6t-27 -11t-27.5 -24.5q8 -12 13 -27.5t5 -36.5v-339q1 -20 8 -36q6 -14 19.5 -24.5t38.5 -10.5h-284q25 0 38.5 10.5t19.5 24.5q7 16 8 36v339q0 42 -12.5 56.5t-27.5 9
t-28 -27t-14 -51.5q1 47 19 71.5t40 36.5q26 13 58 16q17 -1 34 -5q14 -4 30.5 -12.5t29.5 -23.5q26 26 55 34t53 7q28 -1 54 -10q1 0 2 -1z" />
    <glyph glyph-name="s" unicode="s" horiz-adv-x="437" 
d="M347 260q39 -33 53 -79.5t-3.5 -89.5t-69.5 -73t-145 -30q-26 0 -44.5 4.5t-32 10t-23 10t-16.5 4.5q-9 0 -14.5 -4t-8.5 -9q-4 -5 -5 -12h-4l1 177h9q-2 -48 10 -85q5 -16 14 -31t22.5 -27t32.5 -19t45 -7q43 0 69 19.5t33.5 47t-5 58t-45.5 51.5l-85 64
q-51 33 -76 67.5t-28.5 66.5t11.5 60.5t43.5 48.5t68 30t85.5 6q22 -2 38.5 -6.5t29.5 -9.5t22.5 -9t17.5 -4q9 0 14.5 3.5t8.5 8.5q4 5 5 13h4l-1 -177h-9q2 44 -10 80q-5 15 -14.5 30t-23.5 27.5t-34.5 21t-47.5 11.5q-50 4 -70 -8t-20 -31.5t15.5 -42.5t36.5 -40
l146 -126v0z" />
    <glyph glyph-name="t" unicode="t" horiz-adv-x="395" 
d="M248 98q0 -42 12.5 -56t27.5 -8t27.5 28t12.5 52q0 -48 -18 -73.5t-40 -37.5q-26 -14 -58 -16q-32 2 -58 14q-22 11 -39.5 33t-17.5 64l-1 393h-71v18h72v3q61 29 91.5 56t44.5 47q15 24 15 43v-149h122v-18h-122v-393z" />
    <glyph glyph-name="u" unicode="u" horiz-adv-x="613" 
d="M18 390v-3v3zM377 0v43q-17 -21 -40.5 -32t-44.5 -16q-26 -6 -51 -7q-42 2 -75 16q-29 12 -52 38t-23 74v326q-1 5 -2 16.5t-7 23t-19 20t-38 8.5h216v-394q0 -30 6 -49t15.5 -28.5t21.5 -12t25 -0.5q30 4 68 30v386q0 5 -1.5 16.5t-7.5 23t-19 20t-37 8.5h216v-438
q1 -20 8 -36q6 -14 19 -25t38 -11h-216zM10 394v3v-3zM10 390v4v-4z" />
    <glyph glyph-name="v" unicode="v" horiz-adv-x="619" 
d="M609 510q-18 0 -32 -10t-24 -23.5t-16 -26t-8 -16.5l-141 -434h-97l-203 445q-9 18 -20 32q-10 12 -24 22.5t-34 10.5h283q-26 0 -35 -10.5t-11 -22.5q-2 -15 5 -33l154 -336l104 326q4 21 -1 38q-5 14 -20 26t-50 12h170v0z" />
    <glyph glyph-name="w" unicode="w" horiz-adv-x="925" 
d="M915 510q-18 0 -32 -10t-24 -23.5t-16 -26t-8 -16.5l-142 -434h-97l-121 267l-87 -267h-97l-203 445q-8 18 -19 32q-10 12 -24.5 22.5t-34.5 10.5h283q-26 0 -34.5 -10.5t-10.5 -22.5q-2 -15 5 -33l153 -336l59 182l-71 155q-9 18 -20 32q-10 12 -24.5 22.5t-34.5 10.5
h283q-26 0 -34.5 -10.5t-10.5 -22.5q-2 -15 5 -33l154 -336l104 326q4 21 -1 38q-5 14 -20.5 26t-50.5 12h171v0z" />
    <glyph glyph-name="y" unicode="y" horiz-adv-x="620" 
d="M310 -230q0 -26 -18.5 -44.5t-44.5 -18.5t-44.5 18.5t-18.5 44.5t18.5 44t44.5 18t44.5 -18t18.5 -44zM610 510q-18 0 -32 -10t-24.5 -23.5t-16.5 -26t-8 -16.5l-222 -683q3 7 3 17q0 4 -1.5 11.5t-3.5 11.5l67 209h-81l-203 445q-8 18 -19 32q-10 12 -24.5 22.5
t-34.5 10.5h283q-26 0 -34.5 -10.5t-10.5 -23.5q-2 -15 5 -33l153 -336l105 327q4 21 -1 38q-5 14 -20.5 26t-50.5 12h171z" />
    <glyph glyph-name="z" unicode="z" horiz-adv-x="516" 
d="M383 125q26 0 44.5 -19t18.5 -45q0 -25 -17.5 -42.5t-43.5 -18.5h-365l312 505h-192q17 -8 28 -23.5t11 -35.5q0 -25 -18.5 -43t-44.5 -18t-44 18t-18 43t17 43t45 21h370l-312 -505h184q-17 8 -27 22.5t-10 33.5q0 26 18 45t44 19z" />
    <glyph glyph-name="n" unicode="n" horiz-adv-x="608" 
d="M517 99q0 -42 12.5 -56t28 -8t28 28t12.5 52q0 -48 -18.5 -73.5t-40.5 -37.5q-26 -14 -58 -16q-32 2 -58 14q-22 11 -40 33t-18 64v292q0 30 -6 49t-16 29t-22 12.5t-25 0.5q-30 -4 -68 -30v-381q1 -20 8 -36q6 -14 19.5 -24.5t38.5 -10.5h-284q25 0 38.5 10.5t19.5 24.5
q7 16 8 36v369q-1 19 -8 35q-6 13 -19.5 24t-38.5 11h218v-45q17 20 40 31.5t45 16.5q26 6 52 7q43 -2 76 -16q29 -12 52.5 -38.5t23.5 -74.5v-292v0z" />
    <glyph glyph-name="period" unicode="." horiz-adv-x="262" 
d="M131 154q37 0 64 -23t27 -55t-27 -54t-64 -22q-19 0 -35.5 6t-29 16.5t-19.5 24t-7 29.5t7 30t19.5 24.5t29 17t35.5 6.5z" />
    <glyph glyph-name="X" unicode="X" horiz-adv-x="648" 
d="M570 51q12 -15 24 -26q11 -10 22 -17.5t22 -7.5h-274q28 0 37 8t8 18q-1 11 -11 26l-119 226l-161 -222q-9 -16 -9 -28q0 -11 9.5 -19.5t37.5 -8.5h-146q18 0 34 8.5t28 19.5q14 12 26 28l172 238l-187 354q-11 15 -23 26q-11 10 -24 18t-26 8h273q-24 0 -31 -8t-6 -18
q1 -11 10 -26l114 -216l152 211q9 16 10 28q1 11 -6.5 20t-33.5 9h146q-23 0 -40 -9t-30 -20q-15 -12 -26 -28l-164 -227l192 -365v0z" />
    <glyph glyph-name="x" unicode="x" horiz-adv-x="618" 
d="M340 0q28 0 35.5 9.5t5.5 20.5q-3 13 -15 31l-85 118l-70 -149l-3.5 -6.5t-11 -14.5t-18.5 -14.5t-27 -6.5q-26 0 -44.5 18.5t-18.5 44.5t18.5 44.5t44.5 18.5q23 0 40 -14t22 -36l59 127l-185 256q-13 17 -26 31q-11 12 -25 22t-26 10h266q-26 0 -32.5 -10t-4.5 -22
q3 -14 14 -31l85 -117l72 154q8 16 22.5 26t33.5 10q26 0 44.5 -18.5t18.5 -44.5t-18.5 -44.5t-44.5 -18.5q-22 0 -39 13.5t-22 34.5l-58 -124l184 -257q13 -18 26 -31q11 -11 24.5 -20.5t26.5 -9.5h-268zM405 442v1v-1v0z" />
    <glyph glyph-name="N" unicode="N" horiz-adv-x="655" 
d="M635 699q-27 0 -41 -8t-21 -18q-8 -11 -9 -25v-648h-112l-337 619v-568q1 -15 10 -26q8 -10 23.5 -17.5t44.5 -7.5h-173q29 0 45 7.5t24 17.5q9 11 10 26v598q-1 1 -5.5 9t-13.5 17t-22 16.5t-31 7.5h198l323 -570v519q-1 14 -9 25q-7 10 -21 18t-40 8h157z" />
    <glyph glyph-name="A" unicode="A" horiz-adv-x="757" 
d="M492 0q23 0 31.5 9.5t10.5 21.5q2 14 -4 32l-76 193h-285l-74 -187q-3 -20 2 -35q5 -13 19.5 -23.5t46.5 -10.5h-158q18 0 32 11t24 25q11 16 19 36l244 627h105l251 -638q7 -18 18 -31q9 -11 22 -20.5t32 -9.5h-260zM448 273l-137 346l-136 -346h273z" />
    <glyph glyph-name="comma" unicode="," horiz-adv-x="268" 
d="M221 110q12 -52 2 -97q-4 -19 -13.5 -38.5t-27 -36.5t-43 -30t-62.5 -20v8q40 9 65.5 24.5t40.5 33.5t21.5 37t8.5 34.5t1 26.5t-1 13q-11 -20 -33.5 -32t-48.5 -12q-19 0 -35.5 6t-29 16.5t-19.5 24.5t-7 29t7 29t19.5 25t29 17.5t35.5 6.5q32 0 58 -19.5t32 -45.5z" />
    <glyph glyph-name="aacute" unicode="&#xe1;" horiz-adv-x="560" 
d="M311 719q13 13 32 13t33 -13q11 -13 12.5 -24.5t-1.5 -20.5q-4 -11 -11 -20q-3 -3 -18 -11.5t-36 -20t-45 -24.5t-45 -24zM469 100v272q0 8 -0.5 22t-6 30.5t-18.5 33.5t-38.5 30.5t-65 22.5t-97.5 9q-30 0 -61.5 -9.5t-57 -26.5t-42 -39.5t-16.5 -49.5q0 -32 22.5 -54
t52.5 -22q33 2 54.5 23t21.5 53q0 30 -22 53t-54 23q-20 0 -17 4.5t17 9.5t33.5 9.5t34.5 4.5q41 0 63 -15.5t31.5 -36.5t11 -42t1.5 -33v-14q-1 -16 -12 -27q-9 -10 -28.5 -18t-56.5 -8q-54 0 -95 -17q-18 -7 -34.5 -19t-30 -29.5t-21.5 -42t-8 -56.5t8 -55t21.5 -40
t30 -28t34.5 -17q41 -15 95 -13q24 0 42.5 10t31 23t19.5 25.5t9 17.5q8 -29 26.5 -44.5t37.5 -22.5q22 -9 47 -9q33 2 59 16q22 12 40.5 38t18.5 74q0 -30 -12.5 -52t-28 -28t-28 8t-12.5 56zM316 84q-1 -11 -6.5 -24.5t-15 -25.5t-21 -20.5t-24.5 -8.5q-19 2 -34 20
q-13 15 -23.5 46t-10.5 91q0 41 9.5 65t23.5 37.5t31 20t32 13t26 16.5t14 30z" />
    <glyph glyph-name="agrave" unicode="&#xe0;" horiz-adv-x="560" 
d="M175 654q-13 13 -12.5 32t14.5 32q11 12 22.5 14t21 -1t15.5 -8t7 -5q3 -3 11 -17.5t19 -35.5t23.5 -44.5t23.5 -44.5zM469 100v272q0 8 -0.5 22t-6 30.5t-18.5 33.5t-38.5 30.5t-65 22.5t-97.5 9q-30 0 -61.5 -9.5t-57 -26.5t-42 -39.5t-16.5 -49.5q0 -32 22.5 -54
t52.5 -22q33 2 54.5 23t21.5 53q0 30 -22 53t-54 23q-20 0 -17 4.5t17 9.5t33.5 9.5t34.5 4.5q41 0 63 -15.5t31.5 -36.5t11 -42t1.5 -33v-14q-1 -16 -12 -27q-9 -10 -28.5 -18t-56.5 -8q-54 0 -95 -17q-18 -7 -34.5 -19t-30 -29.5t-21.5 -42t-8 -56.5t8 -55t21.5 -40
t30 -28t34.5 -17q41 -15 95 -13q24 0 42.5 10t31 23t19.5 25.5t9 17.5q8 -29 26.5 -44.5t37.5 -22.5q22 -9 47 -9q33 2 59 16q22 12 40.5 38t18.5 74q0 -30 -12.5 -52t-28 -28t-28 8t-12.5 56zM316 84q-1 -11 -6.5 -24.5t-15 -25.5t-21 -20.5t-24.5 -8.5q-19 2 -34 20
q-13 15 -23.5 46t-10.5 91q0 41 9.5 65t23.5 37.5t31 20t32 13t26 16.5t14 30z" />
    <glyph glyph-name="egrave" unicode="&#xe8;" horiz-adv-x="546" 
d="M512 261h4q-7 72 -35 129q-12 24 -30.5 47.5t-44.5 42t-61 29.5t-80 11q-51 0 -94.5 -20t-74.5 -55t-48.5 -82.5t-17.5 -102.5q0 -76 20 -128t52.5 -84t75 -46t88.5 -14q47 0 80 11t55.5 28t36 36.5t20 36.5t9 28.5l2.5 11.5q-4 -20 -20 -46.5t-42.5 -48.5t-61.5 -31.5
t-77 5.5q-23 8 -38 29.5t-24.5 48t-14 55t-6 53t-1.5 40v16.5h194h134zM184 282q0 27 1.5 65t10.5 72.5t29 58.5t56 24t56 -24t29 -58.5t10.5 -72.5t1.5 -65h-194zM175 654q-13 13 -12.5 32t14.5 32q11 12 22.5 14t21 -1t15.5 -8t7 -5q3 -3 11 -17.5t19 -35.5t23.5 -44.5
t23.5 -44.5z" />
    <glyph glyph-name="eacute" unicode="&#xe9;" horiz-adv-x="546" 
d="M512 261h4q-7 72 -35 129q-12 24 -30.5 47.5t-44.5 42t-61 29.5t-80 11q-51 0 -94.5 -20t-74.5 -55t-48.5 -82.5t-17.5 -102.5q0 -76 20 -128t52.5 -84t75 -46t88.5 -14q47 0 80 11t55.5 28t36 36.5t20 36.5t9 28.5l2.5 11.5q-4 -20 -20 -46.5t-42.5 -48.5t-61.5 -31.5
t-77 5.5q-23 8 -38 29.5t-24.5 48t-14 55t-6 53t-1.5 40v16.5h194h134zM184 282q0 27 1.5 65t10.5 72.5t29 58.5t56 24t56 -24t29 -58.5t10.5 -72.5t1.5 -65h-194zM321 719q13 13 32 13t33 -13q11 -13 12.5 -24.5t-1.5 -20.5q-4 -11 -11 -20q-3 -3 -18 -11.5t-36 -20
t-45 -24.5t-45 -24z" />
    <glyph glyph-name="igrave" unicode="&#xec;" horiz-adv-x="315" 
d="M21 0h284q-25 0 -38 12t-19 26q-7 17 -8 38v434h-219q25 0 38.5 -10.5t19.5 -23.5q7 -15 8 -34v-366q-1 -21 -8 -38q-6 -14 -19.5 -26t-38.5 -12zM23 654q-13 13 -12.5 32t14.5 32q11 12 22.5 14t21 -1t15.5 -8t7 -5q3 -3 11 -17.5t19 -35.5t23.5 -44.5t23.5 -44.5z" />
    <glyph glyph-name="iacute" unicode="&#xed;" horiz-adv-x="304" 
d="M10 0h284q-25 0 -38 12t-19 26q-7 17 -8 38v434h-219q25 0 38.5 -10.5t19.5 -23.5q7 -15 8 -34v-366q-1 -21 -8 -38q-6 -14 -19.5 -26t-38.5 -12zM193 719q13 13 32 13t33 -13q11 -13 12.5 -24.5t-1.5 -20.5q-4 -11 -11 -20q-3 -3 -18 -11.5t-36 -20t-45 -24.5t-45 -24z
" />
    <glyph glyph-name="oacute" unicode="&#xf3;" 
d="M304 520q-57 0 -106.5 -21t-87 -57t-59 -84.5t-21.5 -103.5t21.5 -103.5t59 -84.5t87 -57t106.5 -21t107 21t87.5 57t59 84.5t21.5 103.5t-21.5 103.5t-59 84.5t-87.5 57t-107 21zM304 12q-34 0 -59 18.5t-41.5 51t-24.5 76.5t-8 96t8 96t24.5 76.5t41.5 51t59 18.5
q27 0 51 -18.5t42.5 -51t29.5 -76.5t11 -96t-11 -96t-29.5 -76.5t-42.5 -51t-51 -18.5zM382 719q13 13 32 13t33 -13q11 -13 12.5 -24.5t-1.5 -20.5q-4 -11 -11 -20q-3 -3 -18 -11.5t-36 -20t-45 -24.5t-45 -24z" />
    <glyph glyph-name="ograve" unicode="&#xf2;" 
d="M304 520q-57 0 -106.5 -21t-87 -57t-59 -84.5t-21.5 -103.5t21.5 -103.5t59 -84.5t87 -57t106.5 -21t107 21t87.5 57t59 84.5t21.5 103.5t-21.5 103.5t-59 84.5t-87.5 57t-107 21zM304 12q-34 0 -59 18.5t-41.5 51t-24.5 76.5t-8 96t8 96t24.5 76.5t41.5 51t59 18.5
q27 0 51 -18.5t42.5 -51t29.5 -76.5t11 -96t-11 -96t-29.5 -76.5t-42.5 -51t-51 -18.5zM158 654q-13 13 -12.5 32t14.5 32q11 12 22.5 14t21 -1t15.5 -8t7 -5q3 -3 11 -17.5t19 -35.5t23.5 -44.5t23.5 -44.5z" />
    <glyph glyph-name="uacute" unicode="&#xfa;" horiz-adv-x="598" 
d="M578 0q-25 0 -38 11t-19 25q-7 16 -8 36v438h-216q24 0 37 -8.5t19 -20t7.5 -23t1.5 -16.5v-386q-38 -26 -68 -30q-13 -2 -25 0.5t-21.5 12t-15.5 28.5t-6 49v394h-216q25 0 38 -8.5t19 -20t7 -23t2 -16.5v-326q0 -48 23 -74t52 -38q33 -14 75 -16q25 1 51 7
q21 5 44.5 16t40.5 32v-43h216zM336 719q13 13 32 13t33 -13q11 -13 12.5 -24.5t-1.5 -20.5q-4 -11 -11 -20q-3 -3 -18 -11.5t-36 -20t-45 -24.5t-45 -24z" />
    <glyph glyph-name="ugrave" unicode="&#xf9;" horiz-adv-x="598" 
d="M578 0q-25 0 -38 11t-19 25q-7 16 -8 36v438h-216q24 0 37 -8.5t19 -20t7.5 -23t1.5 -16.5v-386q-38 -26 -68 -30q-13 -2 -25 0.5t-21.5 12t-15.5 28.5t-6 49v394h-216q25 0 38 -8.5t19 -20t7 -23t2 -16.5v-326q0 -48 23 -74t52 -38q33 -14 75 -16q25 1 51 7
q21 5 44.5 16t40.5 32v-43h216zM110 654q-13 13 -12.5 32t14.5 32q11 12 22.5 14t21 -1t15.5 -8t7 -5q3 -3 11 -17.5t19 -35.5t23.5 -44.5t23.5 -44.5z" />
    <glyph glyph-name="quotesingle" unicode="'" horiz-adv-x="146" 
d="M186 613q0 -24 -5 -47.5t-15 -48.5q-17 -48 -55 -72.5t-81 -24.5v8q41 0 77 22.5t54 69.5q4 13 7 26t5 24q-11 -20 -33 -32t-48 -12q-19 0 -36 7t-29.5 18.5t-19.5 27.5t-7 34t7 33.5t19.5 27t29.5 18.5t36 7q39 0 66.5 -24.5t27.5 -61.5z" />
    <glyph glyph-name="yacute" unicode="&#xfd;" horiz-adv-x="620" 
d="M310 -230q0 -26 -18.5 -44.5t-44.5 -18.5t-44.5 18.5t-18.5 44.5t18.5 44t44.5 18t44.5 -18t18.5 -44zM610 510h-171q35 0 50.5 -12t20.5 -26q5 -17 1 -38l-105 -327l-153 336q-7 18 -5 33q2 13 10.5 23.5t34.5 10.5h-283q20 0 34.5 -10.5t24.5 -22.5q11 -14 19 -32
l203 -445h81l-67 -209q2 -4 3.5 -11.5t1.5 -11.5q0 -10 -3 -17l222 683q2 4 8 16.5t16.5 26t24.5 23.5t32 10zM434 719q13 13 32 13t33 -13q11 -13 12.5 -24.5t-1.5 -20.5q-4 -11 -11 -20q-3 -3 -18 -11.5t-36 -20t-45 -24.5t-45 -24z" />
    <glyph glyph-name="exclam" unicode="!" horiz-adv-x="325" 
d="M152 188q-31 102 -56 186q-11 36 -21 71t-17.5 64.5t-12.5 50.5t-5 28q2 34 15 61q11 23 36 42.5t72 19.5q25 0 47.5 -9.5t39 -26.5t26 -39.5t9.5 -47.5l-117 -400h-16zM160 155q35 0 59 -24t24 -59t-24 -59.5t-59 -24.5q-18 0 -33 6.5t-26.5 18t-18 27t-6.5 32.5t6.5 32
t18 26.5t26.5 18t33 6.5z" />
    <glyph glyph-name="question" unicode="?" horiz-adv-x="555" 
d="M267 711q51 0 95 -13.5t77 -37t52 -54t19 -64.5q0 -28 -12 -52.5t-28.5 -44t-33.5 -33t-26 -19.5q-2 -2 -24.5 -14.5t-49 -37.5t-49 -61.5t-23.5 -85.5h-17q-9 27 -8 60q1 28 11.5 65t39.5 79q6 9 18 24t23 34.5t19.5 41.5t8.5 44q0 58 -23.5 94t-59 50t-76.5 8.5
t-76 -29.5q-14 -10 -20 -16t-8 -11q-3 -5 -1 -8q18 8 36 8t33.5 -6.5t27 -18.5t18.5 -27.5t7 -33.5t-7 -33.5t-18.5 -27t-27 -18t-33.5 -6.5q-35 0 -60 25t-25 60q0 9 2 20q2 9 5 20.5t10 25.5q9 16 24 32.5t39.5 30t59 22t81.5 8.5zM348 73q0 -35 -24.5 -60t-59.5 -25
t-60 25t-25 60t25 60t60 25t59.5 -25t24.5 -60z" />
    <glyph glyph-name="zero" unicode="0" horiz-adv-x="584" 
d="M292 711q60 0 106.5 -28.5t77.5 -77.5t47 -115t16 -141t-16 -140.5t-47 -114.5t-77.5 -77.5t-106.5 -28.5t-106.5 28.5t-77.5 77.5t-47 114.5t-16 140.5t16 141t47 115t77.5 77.5t106.5 28.5zM292 4q22 0 42 27t34.5 74t23 110t8.5 134q0 72 -8.5 135t-23 110t-34.5 74
t-42 27t-41.5 -27t-34 -74t-23 -110t-8.5 -135q0 -71 8.5 -134t23 -110t34 -74t41.5 -27z" />
    <glyph glyph-name="one" unicode="1" horiz-adv-x="335" 
d="M238 62q1 -18 7 -31q5 -12 16.5 -21.5t33.5 -9.5h-246q21 0 33 9.5t17 21.5q6 13 7 31v445q-1 13 -8 24q-6 9 -19.5 16.5t-38.5 7.5v15q38 11 74 30q31 17 65 44t59 68v-650v0z" />
    <glyph glyph-name="two" unicode="2" horiz-adv-x="544" 
d="M504 236q0 -83 -14.5 -134.5t-38.5 -78.5t-55.5 -32.5t-66 3.5t-70 28.5t-66.5 44.5q-17 13 -30.5 16t-24.5 0t-19.5 -11.5t-14.5 -18.5q-15 -25 -24 -65h-8q-20 40 -25.5 75.5t-0.5 66t17.5 56t28.5 45.5q38 48 99 80q63 35 97.5 75t50.5 74q18 40 21 78q0 65 -24 102
t-60 50.5t-78 5.5t-78 -33q-14 -10 -20 -16t-8 -11q-3 -5 -1 -8q16 9 37 9q36 0 61.5 -25.5t25.5 -62.5q0 -36 -25.5 -61.5t-61.5 -25.5t-61.5 25.5t-25.5 61.5q0 9 2 20q2 9 5 21t11 26q9 16 24 33t39.5 31t60 22.5t83.5 8.5q51 0 92 -14t69 -37.5t43 -55t15 -66.5
q0 -32 -10 -56.5t-25 -42.5t-32 -30.5t-32 -19.5q-37 -20 -68.5 -36.5t-54.5 -29.5q-27 -15 -50 -28q-51 -27 -82 -57.5t-47.5 -61.5t-20.5 -61.5t0 -56.5q17 54 41 83.5t52 41.5t57.5 10.5t57.5 -9.5t52.5 -18.5t42.5 -15.5q22 -7 39.5 -7t31.5 5t24 13t17 18q17 23 23 57
h3z" />
    <glyph glyph-name="three" unicode="3" horiz-adv-x="601" 
d="M372 382q53 -14 94 -40q18 -11 35 -25.5t30.5 -33.5t21.5 -42t8 -50q0 -41 -17.5 -78t-50.5 -65t-81 -44t-108 -16q-72 0 -119.5 16t-76.5 39.5t-43 49.5t-20 47q-5 15 -5 30v3v5v-2q3 33 27.5 56t58.5 23q35 0 60 -25t25 -60q0 -18 -6.5 -33.5t-18 -27t-27 -18.5
t-33.5 -7q-7 0 -13 1t-12 3q-2 -3 -1 -7t3.5 -8.5t10.5 -11.5q41 -34 93 -46.5t97.5 1t77 56t32.5 119.5q1 68 -15.5 105.5t-35.5 54.5q-23 20 -53 22h-90v17h89q20 3 36 20q13 14 24 45t10 87q-1 59 -24.5 94.5t-58.5 50t-76 8.5t-76 -30q-13 -10 -19 -16t-8 -11
q-3 -5 -2 -8q16 9 37 9q18 0 33.5 -7t27 -18.5t18 -27t6.5 -33.5q0 -35 -25 -60t-60 -25q-36 0 -61 25t-25 60q0 9 2 20q2 9 5 20.5t11 24.5q9 16 24 33t39 30t58.5 21.5t81.5 8.5q51 0 90.5 -13.5t67 -36.5t42 -54t14.5 -65q0 -47 -20.5 -77t-44.5 -49q-28 -22 -64 -34z
" />
    <glyph glyph-name="four" unicode="4" horiz-adv-x="562" 
d="M542 204h-128v-140q1 -18 7 -32q5 -12 17 -22t35 -10h-257q23 0 34.5 10t17.5 22q6 14 8 32v140h-256l310 495h83l1 -479h77q1 0 9 1.5t17.5 9t17 23.5t7.5 45v-95zM276 220v368l-233 -368h233z" />
    <glyph glyph-name="five" unicode="5" horiz-adv-x="584" 
d="M268 431q52 0 91 -9.5t68 -25.5t49 -35.5t33 -40.5q30 -48 35 -110q-5 -63 -35 -111q-13 -21 -33 -41t-49 -35.5t-68 -25t-91 -9.5q-53 0 -96.5 15t-75 39t-49 54t-17.5 61q0 19 7 35.5t20 29t29.5 20t36.5 7.5q38 0 64.5 -27t26.5 -65t-26.5 -64.5t-64.5 -26.5
q-25 0 -44 9q44 -47 94 -59t95 5q27 9 50 26.5t40 42t26.5 55t9.5 65.5q0 37 -9.5 69t-26.5 57.5t-40 42.5t-50 25q-24 7 -48.5 7t-49 -10t-48.5 -31.5t-46 -57.5h-8l64 387q54 -11 115 -15q52 -4 119 -2.5t139 15.5q3 -53 -36 -92q-17 -17 -44.5 -31.5t-69.5 -25
t-100.5 -14t-137.5 2.5l-36 -205q9 15 22 32t34 32t52.5 25t78.5 10z" />
    <glyph glyph-name="six" unicode="6" horiz-adv-x="578" 
d="M336 436q41 0 72 -9.5t53.5 -25.5t38 -36t24.5 -41q22 -49 23 -112q-4 -63 -31 -112q-12 -21 -29.5 -41t-44 -36t-61.5 -25.5t-81 -9.5q-2 0 -23 1t-51 10t-64.5 29.5t-63.5 59.5t-48.5 100t-19.5 151q0 92 20 155.5t50.5 105t66.5 64t68 33.5t55 12.5t27 1.5
q66 -1 103.5 -23t54.5 -48q8 -12 13.5 -23.5t7.5 -19.5q3 -11 4 -19q4 -35 -17.5 -63t-56.5 -32q-18 -2 -34 2.5t-29 14.5t-21.5 24.5t-10.5 32.5t2.5 34t15 29t25 21.5t32.5 10.5q17 3 37 -4q1 3 -3 7q-3 4 -9.5 9.5t-20.5 13.5q-11 6 -32.5 13.5t-46.5 6t-51.5 -16
t-48 -53t-35.5 -106t-14 -173.5v-2q0 1 9 15t28 30.5t48 30t69 13.5zM300 -5q22 0 39.5 11t30.5 36.5t20 67t7 102.5t-7 101.5t-20 64.5t-30.5 34t-39.5 10q-21 0 -43.5 -13t-41 -39t-30.5 -65.5t-12 -92.5q0 -61 12 -102.5t30.5 -67t41 -36.5t43.5 -11z" />
    <glyph glyph-name="seven" unicode="7" horiz-adv-x="476" 
d="M463 711q16 -44 12 -93q-3 -42 -25.5 -95t-82.5 -109q-30 -28 -52.5 -60.5t-39 -67t-27 -69t-16.5 -66.5q-15 -75 -15 -151h-149q-16 65 8 138q10 31 29.5 67t52.5 74.5t81.5 79.5t116.5 83q40 25 62.5 53t33 56.5t11.5 55.5t-2 50q0 -51 -19.5 -80.5t-50 -42
t-68.5 -10.5t-75 13q-32 10 -67 17t-65.5 3t-52.5 -23t-27 -62h-6l11 206h6q-1 -12 0 -21q1 -8 2.5 -14t5.5 -6q39 51 77.5 64.5t73 7.5t64.5 -21.5t53 -22.5q44 -14 69.5 -8.5t39.5 17.5q16 14 22 37h9v0z" />
    <glyph glyph-name="eight" unicode="8" 
d="M401 382q53 -15 94 -41q18 -11 34.5 -25.5t30 -33.5t21.5 -41.5t8 -50.5q-4 -57 -35 -101q-13 -19 -33.5 -37t-50 -32.5t-69.5 -23t-92 -8.5q-53 0 -92.5 8.5t-69 23t-49.5 32.5t-33 37q-31 44 -35 101q0 28 8 50.5t21.5 41.5t30 33.5t34.5 25.5q41 26 94 41
q-37 12 -65 34q-24 19 -44 49t-20 77q2 47 27 84q10 16 26 31t39.5 27t55 19.5t72.5 7.5t72.5 -7.5t54.5 -19.5t39 -27t27 -31q25 -37 28 -84q0 -47 -20.5 -77t-44.5 -49q-28 -22 -64 -34zM211 542q0 -33 6 -61t18 -48.5t30.5 -32t43.5 -11.5q23 0 41.5 11.5t31 32
t19.5 48.5t7 61t-7 61t-19.5 48.5t-31 32t-41.5 11.5q-25 0 -43.5 -11.5t-30.5 -32t-18 -48.5t-6 -61zM443 190q-2 51 -17 91q-6 17 -16 33.5t-24 29.5t-33 21t-44 8t-44 -8t-33 -21t-23.5 -29.5t-15.5 -33.5q-15 -40 -17 -91q2 -50 17 -90q6 -17 15.5 -33t23.5 -29
t33 -20.5t44 -7.5t44 7.5t33 20.5t24 29t16 33q15 40 17 90z" />
    <glyph glyph-name="nine" unicode="9" horiz-adv-x="578" 
d="M242 264q-41 0 -72 9.5t-53.5 25t-38 35.5t-24.5 41q-22 49 -23 112q4 63 31 112q12 21 29.5 41t43.5 36t61 25.5t81 9.5q2 0 23.5 -1t51.5 -10t64.5 -29.5t63.5 -59.5t48.5 -100t19.5 -151q0 -92 -20 -155.5t-50.5 -105t-66.5 -64t-68 -33t-55 -12.5t-27 -2
q-33 1 -59 7.5t-45 16.5t-32.5 22.5t-22.5 25.5q-8 11 -13.5 22.5t-7.5 20.5q-4 11 -4 19q-2 18 3 34t15 29t24.5 21.5t32.5 10.5t34 -3t29 -15t21.5 -24.5t10.5 -32.5q4 -35 -18 -62.5t-57 -32.5q-20 -2 -37 4q-1 -3 3 -7q3 -4 9.5 -9t20.5 -13q11 -6 32.5 -13.5t46.5 -6
t51.5 16t48 53t35.5 106t14 173.5v1l-9 -14t-28 -30.5t-48 -30t-69 -13.5zM277 705q-21 0 -39 -11t-30.5 -36.5t-19.5 -67.5t-7 -103t7 -101t19.5 -64t30.5 -34t39 -10q22 0 44.5 13t41 39t30 65t11.5 92q0 61 -11.5 103t-30 67.5t-41 36.5t-44.5 11z" />
    <glyph glyph-name="quotedbl" unicode="&#x22;" horiz-adv-x="269" 
d="M40 690q0 17 12.5 29.5t29.5 12.5q15 0 23.5 -6.5t12.5 -14t4.5 -14.5l0.5 -7q0 -4 -4 -19t-10 -36t-13.5 -44.5t-13.5 -42.5zM145 690q0 17 12 29.5t30 12.5q15 0 23.5 -6.5t12.5 -14t5 -14.5l1 -7q0 -4 -4 -19t-10.5 -36t-14 -44.5t-13.5 -42.5z" />
    <glyph glyph-name="B" unicode="B" horiz-adv-x="610" 
d="M397 355q48 -6 86 -26q16 -9 31.5 -21.5t28 -30.5t20 -41.5t7.5 -54.5q0 -39 -11.5 -72t-33.5 -57t-53.5 -38t-70.5 -14h-381q23 0 34.5 10t17.5 22q6 14 8 32v569q-2 18 -8 33q-6 12 -17.5 22.5t-34.5 10.5h352q33 0 62 -14t50.5 -38.5t34 -56.5t12.5 -68q0 -48 -21 -80
t-46 -52q-30 -23 -67 -35zM217 362h95q26 2 46 20q17 15 31.5 47.5t14.5 92.5t-14.5 92.5t-31.5 47.5q-20 18 -45 20h-96v-320zM307 15q38 2 68 20q26 15 47 49t21 97t-20.5 96.5t-45.5 48.5q-29 18 -65 19h-95v-330h90z" />
    <glyph glyph-name="C" unicode="C" horiz-adv-x="641" 
d="M553 665q11 0 18 7.5t10 16.5q4 11 4 24h6l-1 -258h-12q1 58 -12 107q-6 21 -15.5 42t-24 39.5t-35 32.5t-47.5 21q-50 12 -87 4.5t-64 -28.5t-45.5 -52.5t-29.5 -66.5q-27 -82 -28 -194q1 -95 28 -170q11 -32 29.5 -62.5t45.5 -54t64 -38t87 -14.5q21 0 40.5 5.5t35 13
t26 14.5t15.5 11q-6 -5 -22.5 -16t-40 -22t-53.5 -20t-63 -9q-96 5 -171 45q-32 17 -63 43t-55 64.5t-38.5 90t-14.5 119.5q0 67 14.5 118.5t38.5 90t55 64.5t63 43q75 40 171 45q41 0 70.5 -9t49.5 -19.5t32 -19t19 -8.5z" />
    <glyph glyph-name="D" unicode="D" horiz-adv-x="719" 
d="M279 699q82 0 143 -15t104.5 -40t71.5 -56t45 -64q39 -77 34 -175q-6 -98 -50 -175q-19 -33 -47.5 -64t-70.5 -55.5t-98.5 -39.5t-131.5 -15h-249q22 0 34.5 10t17.5 22q6 14 7 32v571q-1 18 -7 32q-5 12 -17.5 22t-34.5 10h249zM279 16q49 0 86.5 14.5t65 37.5t46.5 53
t31 61q29 73 33 167q-4 93 -33 167q-12 31 -31 61t-46.5 53.5t-65 38t-86.5 14.5h-51v-667h51z" />
    <glyph glyph-name="E" unicode="E" horiz-adv-x="556" 
d="M218 683v-313h52q36 0 55.5 14.5t28.5 31.5q11 20 13 47v-101v-100q-2 26 -13 46q-9 17 -29 31.5t-56 14.5h-51v-338h138q60 0 92.5 22.5t47.5 49.5q18 32 20 73v-161h-495q23 0 35 9.5t17 21.5q6 14 7 32v573q-1 17 -7 31q-5 12 -17 22t-35 10h495v-154q-2 38 -19 69
q-14 26 -45 47.5t-88 21.5h-146z" />
    <glyph glyph-name="equal" unicode="=" horiz-adv-x="593" 
d="M90 281v50h433v-50h-433zM90 161v49h433v-49h-433z" />
    <glyph glyph-name="G" unicode="G" horiz-adv-x="731" 
d="M718 306q-23 0 -35 -8t-18 -18q-7 -11 -8 -26v-254h-3q-1 34 -10.5 48.5t-26 15t-39 -9t-48.5 -23.5q-21 -12 -45 -22q-21 -8 -48 -15t-56 -7q-96 5 -171 45q-32 17 -62.5 43t-54.5 64.5t-38.5 90.5t-14.5 120q0 67 14.5 118.5t38.5 90t54.5 64.5t62.5 43q75 40 171 45
q36 0 64 -5.5t50 -14.5q4 -2 11.5 -5.5t16 -7t16 -6.5t10.5 -3q12 0 19 4t10.5 9.5t5 11t3.5 9.5h5l-1 -259h-12q-2 67 -17 121q-6 23 -16 45t-24 39t-33 27.5t-44 10.5q-50 0 -88 -14.5t-66 -38.5t-47.5 -54.5t-31.5 -61.5q-29 -74 -33 -168q3 -79 25 -146
q9 -29 23.5 -57.5t35.5 -53.5t49 -44.5t65 -29.5q31 -8 58 -4t47 12q24 9 43 24v203q-2 15 -8 26q-6 10 -17.5 18t-34.5 8h253v0z" />
    <glyph glyph-name="H" unicode="H" horiz-adv-x="722" 
d="M445 0q23 0 34.5 10t17.5 22q6 14 8 32v303h-287v-303q1 -18 7 -32q5 -12 17 -22t35 -10h-257q23 0 34.5 10t17.5 22q6 14 8 32v571q-2 18 -8 32q-6 12 -17.5 22t-34.5 10h257q-23 0 -35 -10t-17 -22q-6 -14 -7 -32v-252h287v252q-2 18 -8 32q-6 12 -17.5 22t-34.5 10
h257q-23 0 -35.5 -10t-17.5 -22q-7 -14 -7 -32l1 -571q1 -18 7 -32q5 -12 17 -22t35 -10h-257v0z" />
    <glyph glyph-name="I" unicode="I" horiz-adv-x="337" 
d="M238 64q1 -18 7 -32q5 -12 17 -22t35 -10h-257q23 0 34.5 10t17.5 22q6 14 8 32v571q-2 18 -8 32q-6 12 -17.5 22t-34.5 10h257q-23 0 -35 -10t-17 -22q-6 -14 -7 -32v-571v0z" />
    <glyph glyph-name="J" unicode="J" horiz-adv-x="500" 
d="M480 699q-23 0 -35.5 -8.5t-17.5 -18.5q-7 -11 -7 -26v-527q-3 -37 -28 -66q-11 -12 -27 -24t-40 -21t-56.5 -14.5t-74.5 -5.5q-51 0 -83.5 15.5t-51.5 37.5q-20 23 -28 46.5t-10 38.5q-1 5 -1 8.5v8.5v1v-1q0 18 6.5 33.5t18 27t27 18t32.5 6.5q35 0 60 -25t25 -60
t-25 -60t-60 -25q-23 0 -40 10q-4 -1 -5 -4q-1 -2 1 -7t10 -12q19 -16 49 -30.5t75 -14.5q32 0 50 18t26 41q10 26 11 60v527q-2 15 -8 26q-6 10 -17.5 18.5t-34.5 8.5h259zM24 115v1v-1z" />
    <glyph glyph-name="K" unicode="K" horiz-adv-x="716" 
d="M430 0q30 0 39.5 8t7.5 18q-2 11 -13 26l-201 278l-45 -53v-213q1 -18 7 -32q5 -12 17 -22t35 -10h-257q23 0 34.5 10t17.5 22q6 14 8 32v571q-2 18 -8 32q-6 12 -17.5 22t-34.5 10h257q-23 0 -35 -10t-17 -22q-6 -14 -7 -32v-328l288 327q14 18 17 32q2 12 -7.5 22.5
t-44.5 10.5h156q-18 0 -36.5 -10.5t-32.5 -22.5q-17 -14 -32 -32l-170 -197l280 -386q11 -15 22 -26q10 -10 23 -17.5t27 -7.5h-278v0z" />
    <glyph glyph-name="L" unicode="L" horiz-adv-x="569" 
d="M529 0h-509q23 0 34.5 9.5t17.5 20.5q6 13 8 30v589q-2 14 -8 25q-6 9 -17.5 17t-34.5 8h257q-22 0 -33.5 -8t-17.5 -18q-7 -11 -8 -25v-632h144q31 0 55 9.5t41.5 25t29.5 35t20 40.5q18 48 21 111v-237z" />
    <glyph glyph-name="M" unicode="M" horiz-adv-x="861" 
d="M583 0q22 0 34.5 9.5t17.5 21.5q6 14 7 32v583l-220 -646h-67l-250 609v-558q1 -15 10 -26q8 -10 23.5 -17.5t44.5 -7.5h-173q29 0 45 7.5t24 17.5q9 11 10 26v597q-2 3 -7 11.5t-14 17t-21.5 15t-28.5 6.5h200l22 -53l210 -516l192 570h199q-23 0 -35.5 -8.5
t-17.5 -18.5q-7 -11 -7 -26v-583q0 -18 7 -32q5 -12 17.5 -21.5t35.5 -9.5h-258v0z" />
    <glyph glyph-name="O" unicode="O" horiz-adv-x="774" 
d="M387 711q72 0 135 -28.5t110 -77.5t74.5 -114.5t27.5 -140.5t-27.5 -141t-74.5 -115t-110 -77.5t-135 -28.5t-135 28.5t-110 77.5t-74.5 115t-27.5 141t27.5 140.5t74.5 114.5t110 77.5t135 28.5zM387 4q43 0 81 27t66 74t44.5 110t16.5 135t-16.5 134.5t-44.5 109.5
t-66 74t-81 27t-81 -27t-66 -74t-44.5 -109.5t-16.5 -134.5t16.5 -135t44.5 -110t66 -74t81 -27z" />
    <glyph glyph-name="P" unicode="P" horiz-adv-x="612" 
d="M358 699q59 -3 107 -26q20 -10 39 -25t34 -37t24.5 -51.5t9.5 -68.5t-9.5 -68.5t-24.5 -51.5t-34 -37t-39 -25q-48 -23 -107 -26h-141v-219q0 -18 7 -32q5 -12 17.5 -22t35.5 -10h-257q22 0 34.5 10t17.5 22q6 14 7 32v570q-1 18 -7 32q-5 12 -17.5 22.5t-34.5 10.5h338z
M359 299q24 3 42 24q16 18 29.5 57t13.5 111t-13.5 111t-29.5 57q-18 21 -42 24h-142v-1v-383h142z" />
    <glyph glyph-name="R" unicode="R" horiz-adv-x="670" 
d="M586 90q0 -39 11.5 -52t25.5 -7t25.5 26t11.5 47q0 -44 -16.5 -67.5t-36.5 -34.5q-24 -13 -53 -14q-30 2 -54 13q-20 10 -37 30.5t-17 58.5v182q0 20 -10 40t-36 22h-178v-269q0 -19 7 -33q5 -12 17.5 -22t35.5 -10h-262q23 0 34.5 10t17.5 22q6 14 8 33v579q-2 18 -8 33
q-6 13 -17.5 23.5t-34.5 10.5h347q60 -3 108 -24q20 -9 39.5 -22.5t35 -33.5t25 -47t9.5 -62q0 -45 -11.5 -73.5t-29.5 -47.5t-40.5 -30t-45.5 -20q48 0 74 -12.5t38 -27.5q14 -18 17 -39v-182zM367 349q24 3 43 22q16 16 30 51t14 100t-13.5 99.5t-30.5 50.5q-19 18 -43 21
h-145v-344h145z" />
    <glyph glyph-name="Q" unicode="Q" horiz-adv-x="774" 
d="M583 -94q27 0 50.5 -10.5t41 -28.5t27.5 -42.5t10 -52.5q-2 -23 -12 -42q-9 -17 -27 -31.5t-53 -18.5q15 6 21.5 20.5t4.5 29.5t-13.5 27t-31.5 12h-163q-27 0 -50 11t-40.5 29t-27.5 42.5t-10 51.5q0 18 7 34q5 14 17.5 28t35.5 23q-69 4 -129 33.5t-105 78.5t-70.5 113
t-25.5 137q0 75 27.5 140.5t74.5 114.5t110 77.5t135 28.5t135 -28.5t110 -77.5t74.5 -114.5t27.5 -140.5t-27 -140.5t-74 -114.5t-110 -78t-134 -29q-10 -9 -13 -23t1 -27t15 -22.5t29 -9.5h162zM179 350q0 -72 16.5 -135t44.5 -110t66 -74t81 -27t81 27t66 74t44.5 110
t16.5 135t-16.5 134.5t-44.5 109.5t-66 74t-81 27t-81 -27t-66 -74t-44.5 -109.5t-16.5 -134.5z" />
    <glyph glyph-name="S" unicode="S" horiz-adv-x="585" 
d="M432 369q44 -32 71.5 -72.5t36.5 -83t-2.5 -83t-45 -72t-91 -51t-141.5 -19.5q-35 0 -60 6t-43 13.5t-31 13.5t-23 6q-12 0 -19.5 -6t-11.5 -13q-4 -9 -6 -19h-6l1 244h12q3 -64 23 -114q9 -21 22.5 -41.5t33 -36.5t46 -25.5t61.5 -9.5q59 0 94 25t44.5 61t-7 77
t-60.5 74l-111 87q-66 47 -101.5 94.5t-45.5 92t4.5 82t49 64t87.5 39.5t120 7q30 -2 52.5 -8.5t40 -13.5l30 -12t23.5 -5q12 0 19.5 6t11.5 14q4 9 7 20h5l-1 -234h-12q3 56 -14 102q-7 19 -19.5 38.5t-31.5 35t-46.5 27t-64.5 14.5q-68 7 -101 -11t-37.5 -48t17 -66.5
t63.5 -67.5l157 -131v0z" />
    <glyph glyph-name="T" unicode="T" horiz-adv-x="686" 
d="M655 473q-2 58 -20 105q-8 19 -19 38t-28 34t-39.5 24t-52.5 9h-84v-624q1 -17 7 -30q5 -11 17 -20t35 -9h-257q23 0 34.5 9t17.5 20q6 13 8 30v624h-90q-29 0 -51 -9t-38.5 -24t-27.5 -34t-18 -38q-17 -47 -19 -105v226h625v-226z" />
    <glyph glyph-name="U" unicode="U" horiz-adv-x="725" 
d="M715 699q-30 0 -45.5 -8.5t-23.5 -18.5q-9 -11 -10 -26v-428q-4 -65 -31 -115q-12 -22 -29.5 -42.5t-44 -36.5t-61.5 -26t-81 -10q-56 0 -99 10t-75 26t-53.5 36.5t-35.5 42.5q-33 50 -37 115v422q-1 16 -7 29q-5 11 -17.5 20.5t-34.5 9.5h258q-23 0 -35.5 -9.5
t-17.5 -20.5q-7 -13 -7 -29v-422q2 -60 20 -107q7 -20 19 -39.5t29 -34.5t40 -24t53 -9q43 0 76 9t57 24t40.5 34.5t27.5 39.5q26 47 29 107v428q-1 15 -10 26q-8 10 -23.5 18.5t-44.5 8.5h174z" />
    <glyph glyph-name="V" unicode="V" horiz-adv-x="757" 
d="M77 640q-7 16 -18 29q-9 11 -22.5 20.5t-31.5 9.5h260q-23 0 -31.5 -9.5t-10.5 -20.5q-2 -13 4 -30l219 -558l215 550q4 19 -1 35q-5 13 -19 24t-46 11h157q-19 0 -32.5 -11t-23.5 -25q-11 -16 -19 -36l-245 -628h-104l-251 639v0z" />
    <glyph glyph-name="W" unicode="W" horiz-adv-x="1162" 
d="M333 0l-252 640q-7 17 -18 30q-9 11 -22 20.5t-31 9.5h259q-23 0 -31 -10t-10 -21q-2 -13 4 -30l210 -536l135 442l-37 95q-7 17 -18 30q-9 11 -22.5 20.5t-31.5 9.5h157h17h86q-23 0 -31 -10t-10 -21q-2 -13 4 -30l209 -535l162 528q4 19 -1 34q-5 13 -19.5 23.5
t-46.5 10.5h157q-21 0 -35 -10.5t-22 -23.5q-10 -15 -16 -34l-170 -551l-1 -3l-24 -78h-93l-204 521l-161 -521h-93z" />
    <glyph glyph-name="Y" unicode="Y" horiz-adv-x="708" 
d="M698 700q-21 0 -38.5 -10.5t-30.5 -22.5q-15 -14 -27 -32l-186 -270v-301q1 -18 7 -32q5 -12 17 -22t35 -10h-257q23 0 34.5 10t17.5 22q6 14 8 32v302l-195 274q-13 17 -25 30q-11 11 -23.5 20.5t-24.5 9.5h256q-24 0 -31 -9.5t-6 -20.5q1 -13 10 -30l167 -260l176 255
q12 18 14 32q2 12 -6.5 22.5t-37.5 10.5h146z" />
    <glyph glyph-name="Z" unicode="Z" horiz-adv-x="584" 
d="M376 16q31 0 55 9t42 23.5t30 33.5t20 39q18 47 21 106v-227h-514l349 684h-181q-32 0 -55.5 -9t-41 -24t-29.5 -34t-20 -39q-18 -47 -21 -105v227h513l-349 -684h181z" />
    <glyph glyph-name="braceleft" unicode="{" horiz-adv-x="314" 
d="M185 -64q0 -9 2.5 -24t12.5 -30.5t30 -28.5t54 -18v-38q-54 2 -95 17q-18 6 -34.5 16t-30 25t-21.5 35t-8 46v208q-1 18 -11 32q-8 12 -26.5 22.5t-51.5 10.5v49q33 0 51.5 9.5t26.5 21.5q10 14 11 32v209q0 26 8 46t21.5 34.5t30 25t34.5 16.5q41 15 95 17v-40
q-34 -5 -54 -18t-30 -28t-12.5 -30t-2.5 -23v-146q0 -57 -16 -87.5t-34.5 -44.5t-34.5 -16.5t-17 -3.5l8 -1t19 -5t24 -13.5t24.5 -26t19 -42t7.5 -62.5v-146v0z" />
    <glyph glyph-name="braceright" unicode="}" horiz-adv-x="314" 
d="M129 530q0 9 -2.5 24t-12.5 30.5t-30 28.5t-54 18v38q53 -2 94 -17q18 -6 35 -16.5t30.5 -25t21.5 -34.5t8 -46v-208q1 -19 11 -33q8 -12 26 -22t52 -10v-49q-34 0 -52 -10t-26 -22q-10 -14 -11 -31v-209q0 -26 -8 -46t-21.5 -35t-30.5 -25t-35 -16q-41 -15 -94 -17v40
q34 5 54 18t30 28t12.5 30t2.5 23v146q0 57 16 87.5t34.5 44.5t34.5 16.5t17 3.5q-1 0 -8.5 1t-18.5 5t-24 13.5t-24.5 26t-19 42t-7.5 62.5v146v0z" />
    <glyph glyph-name="bracketleft" unicode="[" horiz-adv-x="264" 
d="M143 -43h101v-47h-184v840h184v-46h-101v-747v0z" />
    <glyph glyph-name="bracketright" unicode="]" horiz-adv-x="264" 
d="M121 703h-101v47h184v-840h-184v46h101v747z" />
    <glyph glyph-name="semicolon" unicode=";" horiz-adv-x="285" 
d="M154 510q18 0 34.5 -6.5t29 -17.5t20 -25t7.5 -29t-7.5 -29t-20 -24.5t-29 -16.5t-34.5 -6q-19 0 -35.5 6t-29 16.5t-19.5 24.5t-7 29t7 29t19.5 25t29 17.5t35.5 6.5zM221 110q-6 26 -32 45.5t-58 19.5q-19 0 -35.5 -6.5t-29 -17.5t-19.5 -25t-7 -29t7 -29t19.5 -24.5
t29 -16.5t35.5 -6q26 0 48.5 12t33.5 32q0 -2 1 -13t-1 -26.5t-8.5 -34.5t-21.5 -37t-40.5 -33.5t-65.5 -24.5v-8q37 7 62.5 20t43 30t27 36.5t13.5 38.5q10 45 -2 97z" />
    <glyph glyph-name="colon" unicode=":" horiz-adv-x="262" 
d="M131 510q37 0 64 -23t27 -54q0 -32 -27 -54t-64 -22q-19 0 -35.5 6t-29 16.5t-19.5 24t-7 29.5q0 15 7 29t19.5 24.5t29 17t35.5 6.5zM131 154q37 0 64 -23t27 -55t-27 -54t-64 -22q-19 0 -35.5 6t-29 16.5t-19.5 24t-7 29.5t7 30t19.5 24.5t29 17t35.5 6.5z" />
    <glyph glyph-name="hyphen" unicode="-" horiz-adv-x="312" 
d="M252 290v-46h-192v46h192z" />
    <glyph glyph-name="plus" unicode="+" horiz-adv-x="569" 
d="M314 251v-252h-61v253h-248v63h246v250h62v-250h251v-64h-250z" />
    <glyph glyph-name="parenleft" unicode="(" horiz-adv-x="330" 
d="M153 397q0 -75 6 -136.5t15.5 -110.5t21.5 -87t25 -66q30 -66 69 -100h-13q-67 40 -119 109q-22 29 -43.5 67.5t-38 87t-26.5 107t-10 129.5q0 70 10 128.5t26.5 106.5t38 86.5t43.5 67.5q52 69 119 109h13q-39 -34 -69 -100q-26 -56 -47 -152.5t-21 -245.5z" />
    <glyph glyph-name="parenright" unicode=")" horiz-adv-x="330" 
d="M177 395q0 75 -6 136.5t-16 110.5t-22 87t-25 66q-30 66 -68 100h13q66 -40 118 -109q22 -29 43.5 -67.5t38 -87t27 -107.5t10.5 -129t-10.5 -128.5t-27 -106.5t-38 -86.5t-43.5 -67.5q-52 -69 -118 -109h-13q38 34 68 100q13 28 25 66t22 86.5t16 109.5t6 136z" />
    <glyph glyph-name="slash" unicode="/" horiz-adv-x="390" 
d="M386 750l4 -4l-386 -743l-4 3z" />
    <glyph glyph-name="backslash" unicode="\" horiz-adv-x="395" 
d="M0 748l3 3l392 -748l-5 -3z" />
    <glyph glyph-name="ampersand" unicode="&#x26;" horiz-adv-x="802" 
d="M487 262q14 -19 35 -43.5t45.5 -46t50.5 -35t51.5 -10t49 28t41.5 80.5h5q0 -45 -6.5 -79.5t-17 -60.5t-24 -43.5t-27.5 -29.5q-33 -28 -75 -33q-33 -6 -70 2q-32 6 -71 26t-80 65q-40 -26 -75.5 -40t-65.5 -19t-55 -3t-45 8q-48 14 -80 48q-38 51 -37 102q0 22 9.5 46
t32 48t61.5 48t99 46q-9 26 -15.5 48t-14.5 53t-7 57.5t8.5 48.5t20 39.5t26.5 31.5q33 33 80 53q58 19 94.5 10t58.5 -28q25 -22 38 -57q16 -44 7 -81q-4 -16 -14 -31.5t-28.5 -29t-47.5 -24t-71 -14.5q20 -40 45.5 -83t56.5 -83q30 87 63.5 132t62.5 65q33 23 65 23
q21 0 39 -8t32 -22t22 -32t8 -39t-8 -39t-22 -32t-32 -22t-39 -8t-39 8t-32 22t-22 32t-8 39q0 14 5 29q-15 -15 -30 -38q-13 -20 -27.5 -50.5t-25.5 -74.5zM322 686q-12 -7 -13.5 -25t2.5 -38q4 -23 14 -50q8 -26 18 -55.5t25 -60.5q20 5 32 22q11 14 16 41t-7 74
q-8 34 -20 58q-11 20 -27 33t-40 1zM186 162q24 -38 56 -53.5t62 -19t53 0t29 4.5q-15 13 -33 37.5t-37 58t-38 75.5t-35 91q-20 -15 -39.5 -33.5t-30.5 -42t-10 -53t23 -65.5z" />
    <glyph glyph-name="registered" unicode="&#xae;" horiz-adv-x="807" 
d="M404 712q75 0 141 -28.5t115.5 -77.5t78.5 -115.5t29 -142.5q0 -74 -29 -139.5t-78.5 -114.5t-115.5 -78t-141 -29t-141.5 29t-116 78t-78.5 114.5t-29 139.5q0 76 29 142.5t78.5 115.5t116 77.5t141.5 28.5zM404 69q57 0 108.5 22t90 59.5t61 88.5t22.5 109
q0 59 -22.5 111t-61 91t-90 61.5t-108.5 22.5q-58 0 -109.5 -22.5t-90 -61.5t-61 -91t-22.5 -111q0 -58 22.5 -109t61 -88.5t90 -59.5t109.5 -22zM558 160h-74l-72 163h-66v-163h-70v378h150q42 0 64 -15t32 -32q11 -20 13 -46q0 -22 -6 -37.5t-15.5 -26t-21.5 -16.5t-24 -9
zM346 383h62q20 0 30.5 7.5t15.5 17.5q6 11 7 26q-1 14 -7 25q-5 9 -15.5 17t-30.5 8h-62v-101z" />
    <glyph glyph-name="at" unicode="@" horiz-adv-x="824" 
d="M406 573q23 0 62.5 -1.5t85 -11.5t91 -33t79.5 -66t50 -110.5t4 -165.5q-8 -53 -23 -97t-27 -62q-13 -23 -32.5 -35t-38.5 -18q-22 -7 -46 -8q-30 1 -53 12q-20 9 -36.5 29.5t-16.5 58.5v-22q-3 -12 -9.5 -25.5t-18 -25t-28.5 -19.5t-42 -8q-41 0 -71 10.5t-52.5 27.5
t-37.5 38.5t-24 44.5q-22 54 -23 122q1 67 21 121q9 23 22.5 45t33.5 39t48 27.5t65 10.5q35 0 56.5 -12t33.5 -28.5t17.5 -33.5t8.5 -27l5 91h139l-5 -70v-306q0 -28 8.5 -41.5t21 -16.5t26 3.5t24.5 19.5q11 15 24.5 56.5t21.5 101.5q2 15 4.5 50t-3.5 78t-25.5 88.5
t-60.5 82t-108.5 58.5t-170.5 18q-91 -7 -162 -49q-30 -18 -59.5 -46t-52 -69t-36.5 -96t-14 -128q-1 -92 33 -163q15 -30 38.5 -59.5t59.5 -52t86.5 -36.5t118.5 -14q45 0 79.5 8t58.5 18q28 11 49 27l5 -3q-20 -18 -48 -31q-24 -12 -60 -21.5t-84 -9.5q-72 0 -126 14.5
t-94 37.5t-67.5 53t-44.5 62q-41 74 -45 168q0 75 15.5 132t41 99t58.5 71t67 48q80 44 183 50zM505 320q-13 51 -35 82.5t-48 31.5q-20 0 -37 -11t-30 -37t-20 -69.5t-7 -108.5q0 -67 7 -111t20 -70t30 -36.5t37 -10.5q26 0 48 19.5t35 73.5v247z" />
    <glyph glyph-name="bar" unicode="|" horiz-adv-x="188" 
d="M60 -65v788h68v-788h-68z" />
    <glyph glyph-name="underscore" unicode="_" horiz-adv-x="505" 
d="M0 -120v59h505v-59h-505z" />
    <glyph glyph-name="bullet" unicode="&#x2022;" horiz-adv-x="398" 
d="M87 482q45 45 111 45q67 0 112 -45q47 -47 48 -114q-1 -66 -48 -111q-23 -23 -50 -35.5t-62 -12.5q-65 0 -111 48q-47 46 -47 111q0 67 47 114z" />
    <glyph glyph-name="quotedblleft" unicode="&#x201c;" horiz-adv-x="480" 
d="M50 506q0 25 3.5 47.5t13.5 48.5q17 48 55.5 72.5t83.5 24.5v-8q-42 0 -78 -22.5t-53 -69.5q-5 -13 -8.5 -26t-5.5 -24q13 20 34 32t47 12q19 0 36 -7t30 -18.5t20.5 -27.5t7.5 -34t-7.5 -33.5t-20.5 -27t-30 -18.5t-36 -7q-39 0 -65.5 24.5t-26.5 61.5zM254 506
q0 24 5 47.5t15 48.5q17 48 55 72.5t81 24.5v-8q-41 0 -77 -22.5t-54 -69.5q-4 -13 -7 -26t-5 -24q11 20 33 32t48 12q19 0 36 -7t29.5 -18.5t19.5 -27.5t7 -34t-7 -33.5t-19.5 -27t-29.5 -18.5t-36 -7q-39 0 -66.5 24.5t-27.5 61.5z" />
    <glyph glyph-name="less" unicode="&#x3c;" horiz-adv-x="481" 
d="M0 216v54l421 237v-61l-359 -206l359 -194v-58l-421 228v0z" />
    <glyph glyph-name="greater" unicode="&#x3e;" horiz-adv-x="481" 
d="M481 279v-54l-421 -237v61l359 206l-359 194v58l421 -228v0z" />
    <glyph glyph-name="caron" unicode="&#x2c7;" horiz-adv-x="265" 
d="M245 699l-113 -122l-112 122l112 -57z" />
    <glyph glyph-name="quotedblright" unicode="&#x201d;" horiz-adv-x="480" 
d="M430 613q0 -25 -3.5 -47.5t-13.5 -48.5q-17 -48 -55.5 -72.5t-83.5 -24.5v8q42 0 78 22.5t53 69.5q5 13 8.5 26t5.5 24q-13 -20 -34 -32t-47 -12q-19 0 -36 7t-30 18.5t-20.5 27.5t-7.5 34t7.5 33.5t20.5 27t30 18.5t36 7q39 0 65.5 -24.5t26.5 -61.5zM226 613
q0 -24 -5 -47.5t-15 -48.5q-17 -48 -55 -72.5t-81 -24.5v8q41 0 77 22.5t54 69.5q4 13 7 26t5 24q-11 -20 -33 -32t-48 -12q-19 0 -36 7t-29.5 18.5t-19.5 27.5t-7 34t7 33.5t19.5 27t29.5 18.5t36 7q39 0 66.5 -24.5t27.5 -61.5z" />
    <glyph glyph-name="guillemotleft" unicode="&#xab;" horiz-adv-x="395" 
d="M239 1h-72l-127 157l127 157h72l-129 -157l129 -157v0zM365 1h-71l-128 157l128 157h71l-129 -157l129 -157v0z" />
    <glyph glyph-name="guillemotright" unicode="&#xbb;" horiz-adv-x="395" 
d="M156 315h72l127 -157l-127 -157h-72l129 157zM30 315h71l128 -157l-128 -157h-71l129 157z" />
    <glyph glyph-name="circumflex" unicode="&#x2c6;" horiz-adv-x="265" 
d="M20 576l113 122l112 -122l-112 57z" />
    <glyph glyph-name="questiondown" unicode="&#xbf;" horiz-adv-x="555" 
d="M288 -203q47 0 81.5 8.5t59 22t39.5 30t24 32.5q7 13 10 25t5 21q2 11 2 20q0 35 -25 60t-60 25q-18 0 -33.5 -6.5t-27 -18t-18.5 -27t-7 -33.5t7 -33.5t18.5 -27.5t27 -18.5t33.5 -6.5t36 8q2 -3 -1 -8q-2 -5 -8.5 -11.5t-19.5 -15.5q-35 -24 -76.5 -29.5t-76.5 8.5
t-58.5 49.5t-23.5 94.5q0 22 8.5 44t19.5 41.5t23 34.5t18 24q29 42 39.5 79t11.5 65q1 33 -8 60h-17q-1 -49 -23.5 -85.5t-49 -61.5t-49 -38t-24.5 -14q-9 -6 -26 -19.5t-33.5 -33t-28.5 -44t-12 -52.5q0 -34 19 -64.5t52 -54t77 -37t95 -13.5zM207 435q0 35 24.5 60
t59.5 25t60 -25t25 -60t-25 -60t-60 -25t-59.5 25t-24.5 60z" />
    <glyph glyph-name="exclamdown" unicode="&#xa1;" horiz-adv-x="325" 
d="M173 320q31 -103 56 -187q10 -36 20.5 -71.5t18 -64.5t12.5 -49.5t5 -27.5q-2 -35 -15 -62q-11 -23 -36.5 -42t-71.5 -19q-25 0 -47.5 9.5t-39 26.5t-26 39t-9.5 48l117 400h16zM165 353q-35 0 -59 24t-24 59t24 59.5t59 24.5q18 0 33 -6.5t26.5 -18t18 -27t6.5 -32.5
t-6.5 -32.5t-18 -26.5t-26.5 -17.5t-33 -6.5z" />
    <glyph glyph-name="OE" unicode="&#x152;" horiz-adv-x="1091" 
d="M739 688v-318h52q36 0 56 14.5t29 32.5q11 20 13 47v-102v-101q-2 26 -13 46q-10 17 -29.5 32t-56.5 15h-51v-337h140q61 0 94 22.5t48 50.5q18 32 20 73v-163h-577q-17 -4 -35 -8t-37 -4q-72 0 -135 28.5t-110 77.5t-74.5 115t-27.5 141t27.5 141t74.5 114.5t110 77
t135 28.5q19 0 37 -4t36 -9l-1 1h577v-151q-2 39 -19 70q-14 26 -45.5 48t-89.5 22h-148zM184 350q0 -72 16.5 -135t44.5 -110t66 -74t81 -27q41 0 77.5 25t64 68t45 101t20.5 125v54q-3 67 -20.5 125.5t-45 101.5t-64 67.5t-77.5 24.5q-43 0 -81 -27t-66 -74t-44.5 -110
t-16.5 -135z" />
    <glyph glyph-name="adieresis" unicode="&#xe4;" horiz-adv-x="560" 
d="M211 669q18 0 31.5 -14.5t13.5 -31.5q0 -20 -13.5 -33t-31.5 -13q-19 0 -33.5 13t-14.5 33q0 17 14.5 31.5t33.5 14.5zM348 669q20 0 32.5 -14.5t12.5 -31.5q0 -20 -12.5 -33t-32.5 -13t-33.5 13t-13.5 33q0 17 13.5 31.5t33.5 14.5zM469 100v272q0 8 -0.5 22t-6 30.5
t-18.5 33.5t-38.5 30.5t-65 22.5t-97.5 9q-30 0 -61.5 -9.5t-57 -26.5t-42 -39.5t-16.5 -49.5q0 -32 22.5 -54t52.5 -22q33 2 54.5 23t21.5 53q0 30 -22 53t-54 23q-20 0 -17 4.5t17 9.5t33.5 9.5t34.5 4.5q41 0 63 -15.5t31.5 -36.5t11 -42t1.5 -33v-14q-1 -16 -12 -27
q-9 -10 -28.5 -18t-56.5 -8q-54 0 -95 -17q-18 -7 -34.5 -19t-30 -29.5t-21.5 -42t-8 -56.5t8 -55t21.5 -40t30 -28t34.5 -17q41 -15 95 -13q24 0 42.5 10t31 23t19.5 25.5t9 17.5q8 -29 26.5 -44.5t37.5 -22.5q22 -9 47 -9q33 2 59 16q22 12 40.5 38t18.5 74
q0 -30 -12.5 -52t-28 -28t-28 8t-12.5 56zM316 84q-1 -11 -6.5 -24.5t-15 -25.5t-21 -20.5t-24.5 -8.5q-19 2 -34 20q-13 15 -23.5 46t-10.5 91q0 41 9.5 65t23.5 37.5t31 20t32 13t26 16.5t14 30z" />
    <glyph glyph-name="atilde" unicode="&#xe3;" horiz-adv-x="560" 
d="M140 582q7 23 18 41q9 15 23 28t34 13q19 0 46 -7.5t52.5 -13t46 -4t27.5 20.5h5q-3 -24 -13 -42q-8 -16 -25 -28.5t-46 -12.5q-27 0 -46.5 7t-37.5 12.5t-36.5 4t-42.5 -18.5h-5zM469 100v272q0 8 -0.5 22t-6 30.5t-18.5 33.5t-38.5 30.5t-65 22.5t-97.5 9
q-30 0 -61.5 -9.5t-57 -26.5t-42 -39.5t-16.5 -49.5q0 -32 22.5 -54t52.5 -22q33 2 54.5 23t21.5 53q0 30 -22 53t-54 23q-20 0 -17 4.5t17 9.5t33.5 9.5t34.5 4.5q41 0 63 -15.5t31.5 -36.5t11 -42t1.5 -33v-14q-1 -16 -12 -27q-9 -10 -28.5 -18t-56.5 -8q-54 0 -95 -17
q-18 -7 -34.5 -19t-30 -29.5t-21.5 -42t-8 -56.5t8 -55t21.5 -40t30 -28t34.5 -17q41 -15 95 -13q24 0 42.5 10t31 23t19.5 25.5t9 17.5q8 -29 26.5 -44.5t37.5 -22.5q22 -9 47 -9q33 2 59 16q22 12 40.5 38t18.5 74q0 -30 -12.5 -52t-28 -28t-28 8t-12.5 56zM316 84
q-1 -11 -6.5 -24.5t-15 -25.5t-21 -20.5t-24.5 -8.5q-19 2 -34 20q-13 15 -23.5 46t-10.5 91q0 41 9.5 65t23.5 37.5t31 20t32 13t26 16.5t14 30z" />
    <glyph glyph-name="aring" unicode="&#xe5;" horiz-adv-x="560" 
d="M282 735q32 0 55 -23t23 -55t-23 -56t-55 -24q-17 0 -31.5 6.5t-25.5 17.5t-17 25.5t-6 30.5q0 32 23 55t57 23zM282 582q20 0 27 22t7 53t-7 52t-27 21q-21 0 -28.5 -21t-7.5 -52t7.5 -53t28.5 -22zM469 100q0 -42 12.5 -56t28 -8t28 28t12.5 52q0 -48 -18.5 -74
t-40.5 -38q-26 -14 -59 -16q-25 0 -47 9q-19 7 -37.5 22.5t-26.5 44.5q-2 -5 -9 -17.5t-19.5 -25.5t-31 -23t-42.5 -10q-54 -2 -95 13q-18 6 -34.5 17t-30 28t-21.5 40t-8 55t8 56.5t21.5 42t30 29.5t34.5 19q41 17 95 17q37 0 56.5 8t28.5 18q11 11 12 27v14q0 12 -1.5 33
t-11 42t-31.5 36.5t-63 15.5q-15 0 -34.5 -4.5t-33.5 -9.5t-17 -9.5t17 -4.5q32 0 54 -23t22 -53q0 -32 -21.5 -53t-54.5 -23q-30 0 -52.5 22t-22.5 54q0 27 16.5 49.5t42 39.5t57 26.5t61.5 9.5q58 0 97.5 -9t65 -22.5t38.5 -30.5t18.5 -33.5t6 -30.5t0.5 -22v-272z
M317 344q-3 -20 -14 -30t-26 -16.5t-32 -13t-31 -20t-23.5 -37.5t-9.5 -65q0 -60 10.5 -91t23.5 -46q15 -18 34 -20q13 0 24.5 8.5t21 20.5t15 25.5t6.5 24.5z" />
    <glyph glyph-name="ecircumflex" unicode="&#xea;" horiz-adv-x="546" 
d="M512 261h4q-7 72 -35 129q-12 24 -30.5 47.5t-44.5 42t-61 29.5t-80 11q-51 0 -94.5 -20t-74.5 -55t-48.5 -82.5t-17.5 -102.5q0 -76 20 -128t52.5 -84t75 -46t88.5 -14q47 0 80 11t55.5 28t36 36.5t20 36.5t9 28.5l2.5 11.5q-4 -20 -20 -46.5t-42.5 -48.5t-61.5 -31.5
t-77 5.5q-23 8 -38 29.5t-24.5 48t-14 55t-6 53t-1.5 40v16.5h194h134zM184 282q0 27 1.5 65t10.5 72.5t29 58.5t56 24t56 -24t29 -58.5t10.5 -72.5t1.5 -65h-194zM160 576l113 122l112 -122l-112 57z" />
    <glyph glyph-name="edieresis" unicode="&#xeb;" horiz-adv-x="546" 
d="M512 261h4q-7 72 -35 129q-12 24 -30.5 47.5t-44.5 42t-61 29.5t-80 11q-51 0 -94.5 -20t-74.5 -55t-48.5 -82.5t-17.5 -102.5q0 -76 20 -128t52.5 -84t75 -46t88.5 -14q47 0 80 11t55.5 28t36 36.5t20 36.5t9 28.5l2.5 11.5q-4 -20 -20 -46.5t-42.5 -48.5t-61.5 -31.5
t-77 5.5q-23 8 -38 29.5t-24.5 48t-14 55t-6 53t-1.5 40v16.5h194h134zM184 282q0 27 1.5 65t10.5 72.5t29 58.5t56 24t56 -24t29 -58.5t10.5 -72.5t1.5 -65h-194zM185 668q18 0 31.5 -14.5t13.5 -31.5q0 -20 -13.5 -33t-31.5 -13q-19 0 -33.5 13t-14.5 33q0 17 14.5 31.5
t33.5 14.5zM322 668q20 0 32.5 -14.5t12.5 -31.5q0 -20 -12.5 -33t-32.5 -13t-33.5 13t-13.5 33q0 17 13.5 31.5t33.5 14.5z" />
    <glyph glyph-name="icircumflex" unicode="&#xee;" horiz-adv-x="304" 
d="M10 0h284q-25 0 -38 12t-19 26q-7 17 -8 38v434h-219q25 0 38.5 -10.5t19.5 -23.5q7 -15 8 -34v-366q-1 -21 -8 -38q-6 -14 -19.5 -26t-38.5 -12zM39 576l113 122l112 -122l-112 57z" />
    <glyph glyph-name="idieresis" unicode="&#xef;" horiz-adv-x="304" 
d="M10 0h284q-25 0 -38 12t-19 26q-7 17 -8 38v434h-219q25 0 38.5 -10.5t19.5 -23.5q7 -15 8 -34v-366q-1 -21 -8 -38q-6 -14 -19.5 -26t-38.5 -12zM77 668q18 0 31.5 -14.5t13.5 -31.5q0 -20 -13.5 -33t-31.5 -13q-19 0 -33.5 13t-14.5 33q0 17 14.5 31.5t33.5 14.5z
M214 668q20 0 32.5 -14.5t12.5 -31.5q0 -20 -12.5 -33t-32.5 -13t-33.5 13t-13.5 33q0 17 13.5 31.5t33.5 14.5z" />
    <glyph glyph-name="ntilde" unicode="&#xf1;" horiz-adv-x="608" 
d="M161 582q7 23 18 41q9 15 23 28t34 13q19 0 46 -7.5t52.5 -13t46 -4t27.5 20.5h5q-3 -24 -13 -42q-8 -16 -25 -28.5t-46 -12.5q-27 0 -46.5 7t-37.5 12.5t-36.5 4t-42.5 -18.5h-5zM517 99v292q0 48 -23.5 74.5t-52.5 38.5q-33 14 -76 16q-26 -1 -52 -7q-22 -5 -45 -16.5
t-40 -31.5v45h-218q25 0 38.5 -11t19.5 -24q7 -16 8 -35v-369q-1 -20 -8 -36q-6 -14 -19.5 -24.5t-38.5 -10.5h284q-25 0 -38.5 10.5t-19.5 24.5q-7 16 -8 36v381q38 26 68 30q13 2 25 -0.5t22 -12.5t16 -29t6 -49v-292q0 -42 18 -64t40 -33q26 -12 58 -14q32 2 58 16
q22 12 40.5 37.5t18.5 73.5q0 -30 -12.5 -52t-28 -28t-28 8t-12.5 56z" />
    <glyph glyph-name="ocircumflex" unicode="&#xf4;" 
d="M304 520q-57 0 -106.5 -21t-87 -57t-59 -84.5t-21.5 -103.5t21.5 -103.5t59 -84.5t87 -57t106.5 -21t107 21t87.5 57t59 84.5t21.5 103.5t-22 103.5t-59.5 84.5t-87.5 57t-106 21zM304 12q-34 0 -59 18.5t-41.5 51t-24.5 76.5t-8 96t8 96t24.5 76.5t41.5 51t59 18.5
q27 0 51 -18.5t42.5 -51t29.5 -76.5t11 -96t-11 -96t-30 -76.5t-43 -51t-50 -18.5zM191 577l113 122l112 -122l-112 57z" />
    <glyph glyph-name="odieresis" unicode="&#xf6;" 
d="M304 520q-57 0 -106.5 -21t-87 -57t-59 -84.5t-21.5 -103.5t21.5 -103.5t59 -84.5t87 -57t106.5 -21t107 21t87.5 57t59 84.5t21.5 103.5t-21 103.5t-58 84.5t-87.5 57t-108.5 21zM304 12q-34 0 -59 18.5t-41.5 51t-24.5 76.5t-8 96t8 96t24.5 76.5t41.5 51t59 18.5
q27 0 51 -18.5t42.5 -51t29.5 -76.5t11 -96t-11 -96t-30 -76.5t-43 -51t-50 -18.5zM238 668q18 0 31.5 -14.5t13.5 -31.5q0 -20 -13.5 -33t-31.5 -13q-19 0 -33.5 13t-14.5 33q0 17 14 31.5t34 14.5zM375 668q20 0 32.5 -14.5t12.5 -31.5q0 -20 -12.5 -33t-32.5 -13
t-33.5 13t-13.5 33q0 17 13.5 31.5t33.5 14.5z" />
    <glyph glyph-name="otilde" unicode="&#xf5;" 
d="M304 520q-57 0 -106.5 -21t-87 -57t-59 -84.5t-21.5 -103.5t21.5 -103.5t59 -84.5t87 -57t106.5 -21t107 21t87.5 57t59 84.5t21.5 103.5t-21 103.5t-58 84.5t-87.5 57t-108.5 21zM304 12q-34 0 -59 18.5t-41.5 51t-24.5 76.5t-8 96t8 96t24.5 76.5t41.5 51t59 18.5
q27 0 51 -18.5t42.5 -51t29.5 -76.5t11 -96t-11 -96t-30 -76.5t-43 -51t-50 -18.5zM179 582q7 23 18 41q9 15 23 28t34 13q19 0 46 -7.5t52.5 -13t46 -4t27.5 20.5h5q-3 -24 -13 -42q-8 -16 -25 -28.5t-46 -12.5q-27 0 -46.5 7t-37.5 12.5t-36.5 4t-42.5 -18.5h-5z" />
    <glyph glyph-name="ucircumflex" unicode="&#xfb;" horiz-adv-x="598" 
d="M578 0q-25 0 -38 11t-19 25q-7 16 -8 36v438h-216q24 0 37 -8.5t19 -20t7.5 -23t1.5 -16.5v-386q-38 -26 -68 -30q-13 -2 -25 0.5t-21.5 12t-15.5 28.5t-6 49v394h-216q25 0 38 -8.5t19 -20t7 -23t2 -16.5v-326q0 -48 23 -74t52 -38q33 -14 75 -16q25 1 51 7
q21 5 44.5 16t40.5 32v-43h216zM181 577l113 122l112 -122l-112 57z" />
    <glyph glyph-name="udieresis" unicode="&#xfc;" horiz-adv-x="598" 
d="M578 0q-25 0 -38 11t-19 25q-7 16 -8 36v438h-216q24 0 37 -8.5t19 -20t7.5 -23t1.5 -16.5v-386q-38 -26 -68 -30q-13 -2 -25 0.5t-21.5 12t-15.5 28.5t-6 49v394h-216q25 0 38 -8.5t19 -20t7 -23t2 -16.5v-326q0 -48 23 -74t52 -38q33 -14 75 -16q25 1 51 7
q21 5 44.5 16t40.5 32v-43h216zM223 668q18 0 31.5 -14.5t13.5 -31.5q0 -20 -13.5 -33t-31.5 -13q-19 0 -33.5 13t-14.5 33q0 17 14 31.5t34 14.5zM360 668q20 0 32.5 -14.5t12.5 -31.5q0 -20 -12.5 -33t-32.5 -13t-33.5 13t-13.5 33q0 17 13.5 31.5t33.5 14.5z" />
    <glyph glyph-name="asciitilde" unicode="~" horiz-adv-x="332" 
d="M40 617q7 23 18 41q9 15 23 28t34 13q19 0 46 -7.5t52.5 -13t46 -4t27.5 20.5h5q-3 -24 -13 -42q-8 -16 -25 -28.5t-46 -12.5q-27 0 -46.5 7t-37.5 12.5t-36.5 4t-42.5 -18.5h-5z" />
    <glyph glyph-name="asciicircum" unicode="^" horiz-adv-x="277" 
d="M257 589l-3 -4l-116 54l-116 -54l-2 4l118 110z" />
    <glyph glyph-name="grave" unicode="`" horiz-adv-x="188" 
d="M23 654q-13 13 -12.5 32t14.5 32q11 12 22.5 14t21 -1t15.5 -8t7 -5q3 -3 11 -17.5t19 -35.5t23.5 -44.5t23.5 -44.5z" />
    <glyph glyph-name="quotesinglbase" unicode="&#x201a;" horiz-adv-x="276" 
d="M231 85q0 -24 -5 -47.5t-15 -48.5q-17 -48 -55 -72.5t-81 -24.5v8q41 0 77 22.5t54 69.5q4 13 7 26t5 24q-11 -20 -33 -32t-48 -12q-19 0 -36 7t-29.5 18.5t-19.5 27.5t-7 34t7 33.5t19.5 27t29.5 18.5t36 7q39 0 66.5 -24.5t27.5 -61.5z" />
    <glyph glyph-name="dieresis" unicode="&#xa8;" horiz-adv-x="330" 
d="M98 669q18 0 31.5 -14.5t13.5 -31.5q0 -20 -13.5 -33t-31.5 -13q-19 0 -33.5 13t-14.5 33q0 17 14.5 31.5t33.5 14.5zM235 669q20 0 32.5 -14.5t12.5 -31.5q0 -20 -12.5 -33t-32.5 -13t-33.5 13t-13.5 33q0 17 13.5 31.5t33.5 14.5z" />
    <glyph glyph-name="quoteleft" unicode="&#x2018;" horiz-adv-x="276" 
d="M45 506q0 25 3.5 47.5t13.5 48.5q17 48 55.5 72.5t83.5 24.5v-8q-42 0 -78 -22.5t-53 -69.5q-5 -13 -8.5 -26t-5.5 -24q13 20 34 32t47 12q19 0 36 -7t30 -18.5t20.5 -27.5t7.5 -34t-7.5 -33.5t-20.5 -27t-30 -18.5t-36 -7q-39 0 -65.5 24.5t-26.5 61.5z" />
    <glyph glyph-name="quoteright" unicode="&#x2019;" horiz-adv-x="251" 
d="M206 613q0 -24 -5 -47.5t-15 -48.5q-17 -48 -55 -72.5t-81 -24.5v8q41 0 77 22.5t54 69.5q4 13 7 26t5 24q-11 -20 -33 -32t-48 -12q-19 0 -36 7t-29.5 18.5t-19.5 27.5t-7 34t7 33.5t19.5 27t29.5 18.5t36 7q39 0 66.5 -24.5t27.5 -61.5z" />
    <glyph glyph-name="quotedblbase" unicode="&#x201e;" horiz-adv-x="480" 
d="M430 85q0 -25 -3.5 -47.5t-13.5 -48.5q-17 -48 -55.5 -72.5t-83.5 -24.5v8q42 0 78 22.5t53 69.5q5 13 8.5 26t5.5 24q-13 -20 -34 -32t-47 -12q-19 0 -36 7t-30 18.5t-20.5 27.5t-7.5 34t7.5 33.5t20.5 27t30 18.5t36 7q39 0 65.5 -24.5t26.5 -61.5zM226 85
q0 -24 -5 -47.5t-15 -48.5q-17 -48 -55 -72.5t-81 -24.5v8q41 0 77 22.5t54 69.5q4 13 7 26t5 24q-11 -20 -33 -32t-48 -12q-19 0 -36 7t-29.5 18.5t-19.5 27.5t-7 34t7 33.5t19.5 27t29.5 18.5t36 7q39 0 66.5 -24.5t27.5 -61.5z" />
    <glyph glyph-name="dollar" unicode="$" horiz-adv-x="581" 
d="M428 367q40 -28 66.5 -63.5t38 -73.5t7 -75.5t-27 -69.5t-63.5 -56t-102 -34v-101h-9v99q-18 -2 -37.5 -3.5t-41.5 -1.5v-94h-8h-1v94q-33 1 -56.5 7t-41 13t-29.5 12.5t-22 5.5q-12 0 -19 -6t-12 -13q-5 -9 -7 -19h-5v245h13q3 -63 22 -112q8 -21 21 -41.5t32 -37
t44.5 -26.5t59.5 -11v296l-34 27q-87 63 -122 127t-26 117t57 90t125 46v61h1h8v-60q33 3 72 0q1 -1 7 -1v61h9v-63q25 -5 44.5 -11.5t35.5 -13t28 -11t22 -4.5q12 0 19 6.5t11 14.5q4 10 7 22h7l-2 -234h-13q3 53 -12 97q-6 19 -17.5 37.5t-29 34.5t-42.5 28t-58 18v-255z
M250 688q-32 -8 -46 -27t-12.5 -43t16.5 -50.5t42 -51.5v172zM259 5q23 0 43 4.5t36 12.5v212q-2 1 -14.5 10.5t-26.5 20.5q-17 13 -38 29v-289zM338 691q-2 0 -3.5 0.5t-3.5 0.5q-42 4 -72 -2v-182q2 -2 14.5 -12t26.5 -22q17 -14 38 -31v248zM347 28q25 15 38 39t13.5 51
t-12 55t-39.5 53v-198z" />
    <glyph glyph-name="asterisk" unicode="*" horiz-adv-x="337" 
d="M137 748q0 13 9.5 21.5t21.5 8.5t18.5 -5t9.5 -10q4 -7 4 -15q0 -3 -3 -14.5t-7.5 -27t-10.5 -33.5l-11 -33zM69 694q-8 9 -8 22t8 23q8 8 16.5 9t14.5 -1q7 -3 14 -8q2 -2 8 -12.5t13.5 -25t16 -31t16.5 -30.5zM60 608q-12 0 -21 9.5t-9 22.5q0 11 4.5 17.5t10.5 9.5
q6 4 15 4q3 0 14.5 -3t27 -7.5t33.5 -10t33 -10.5zM221 739q9 9 22 9t23 -9q9 -9 10 -17t-1 -14t-5 -10t-4 -4q-2 -2 -12 -8t-24 -13.5t-30.5 -16.5t-31.5 -16zM275 671q14 0 23 -9.5t9 -21.5t-4.5 -18.5t-10.5 -9.5t-11 -3.5t-6 -0.5q-3 0 -14 3t-26.5 7.5t-33.5 10.5
l-33 11zM200 533q0 -14 -9.5 -23t-22.5 -9q-12 0 -18 4.5t-9 10.5t-3.5 11t-0.5 6q0 3 3 14t7.5 26.5t10 33.5t10.5 33zM266 587q9 -9 9 -22t-9 -23q-8 -8 -15.5 -9.5t-14 0.5t-10.5 5t-5 4q-2 2 -8 12.5t-13.5 24.5t-16 30.5t-15.5 30.5zM114 542q-9 -9 -22 -9t-23 9
q-8 8 -9 15.5t1 14t5 10.5t3 5q2 2 12.5 8t25 13.5t31 16t30.5 15.5z" />
    <glyph glyph-name="tilde" unicode="&#x2dc;" horiz-adv-x="332" 
d="M40 582q7 23 18 41q9 15 23 28t34 13q19 0 46 -7.5t52.5 -13t46 -4t27.5 20.5h5q-3 -24 -13 -42q-8 -16 -25 -28.5t-46 -12.5q-27 0 -46.5 7t-37.5 12.5t-36.5 4t-42.5 -18.5h-5z" />
    <glyph glyph-name="Euro" unicode="&#x20ac;" horiz-adv-x="545" 
d="M495 170v-174h-5q-2 4 -3.5 9.5t-5 11t-10.5 9.5t-19 4q-3 0 -10.5 -3t-16 -6.5t-16 -7.5t-11.5 -5q-22 -8 -50 -14t-63 -6q-52 5 -94 38q-18 14 -36 36.5t-33 54.5t-25.5 76t-14.5 102h-52v9h51q0 27 -0.5 54.5t2.5 56.5h-53v10h53q5 54 16.5 94.5t26.5 70.5t32.5 50.5
t35.5 34.5q41 32 91 36q35 0 63 -5.5t50 -14.5q4 -2 11.5 -5.5t16 -7t16 -6.5t10.5 -3q12 0 19 4t10.5 9.5t5 11.5t3.5 10h5v-174h-12q-2 44 -17 79q-6 15 -16 29t-24.5 25t-33.5 18t-44 7q-33 0 -55 -27t-36.5 -66.5t-22 -85.5t-10.5 -84h250v-10h-251q-2 -27 -2.5 -54.5
t1.5 -56.5h233v-9h-233q3 -38 9.5 -86.5t21 -92.5t37.5 -74t58 -30q50 0 77.5 24.5t40.5 54.5q15 34 17 79h12z" />
    <glyph glyph-name="sterling" unicode="&#xa3;" horiz-adv-x="639" 
d="M599 242q0 -50 -6 -87.5t-16.5 -64.5t-23.5 -45t-26 -29q-32 -26 -71 -27q-25 -4 -50.5 4t-50.5 24.5t-49 40t-46 52.5q-38 -57 -77 -82.5t-72 -27.5t-55 15.5t-25 45.5q-4 34 9 57t39.5 37t64.5 20.5t85 6.5q0 18 -4.5 36.5t-12.5 40t-19.5 49t-25.5 63.5h-84v8h81
q-4 10 -8 21.5t-9 24.5q-10 28 -12.5 64t4 73t22 72t41.5 62.5t63 44.5t87 17q33 0 63.5 -11t52.5 -31.5t33 -49.5t4 -66q-8 -20 -27 -34t-43 -14q-31 0 -52 21.5t-21 51.5t21 52t52 22q19 0 34 -9q4 5 -2 13.5t-17.5 16t-26.5 13t-27 5.5q-41 0 -61.5 -18t-28.5 -40
q-10 -26 -9 -57q0 -70 12.5 -129t18.5 -115h124v-8h-124q5 -49 -1.5 -98.5t-35.5 -106.5q46 -26 83.5 -36t67.5 -9.5t52.5 9.5t39.5 23q40 32 59 89h6zM92 8q46 0 73 19.5t41 43.5q17 27 23 63q-59 23 -97.5 23t-60 -14t-28 -37t-2 -44.5t18 -37.5t32.5 -16z" />
    <glyph glyph-name="section" unicode="&#xa7;" horiz-adv-x="580" 
d="M292 554q78 -62 126.5 -106t75 -76.5t35.5 -57t10 -47.5q0 -30 -12.5 -56t-37 -45.5t-59 -31.5t-77.5 -15q79 -63 103 -123t3 -106.5t-81.5 -74.5t-150.5 -28q-64 0 -95 18t-44 40q-15 26 -12 58q0 26 18.5 44t44.5 18t45.5 -18t18.5 -44q0 -26 -17.5 -46.5t-44.5 -20.5
h-11.5t-8.5 -1q3 -10 14 -18q10 -7 31 -12.5t61 -5.5q63 0 93 17.5t34 44.5t-16 58.5t-58 60.5q-79 61 -127 105.5t-75 77t-37 57t-11 47.5q0 30 13 56t37.5 45.5t59 32t77.5 14.5q-79 63 -107.5 122.5t-13 106t71 74.5t145.5 28q64 0 97.5 -18t48.5 -40q18 -26 18 -58
q0 -26 -19 -44t-46 -18t-45 18.5t-18 44.5t17 46.5t42 20.5h24q-6 10 -21 18q-13 7 -36 13t-62 6q-63 0 -89 -18t-24 -45t27.5 -58.5t64.5 -59.5zM341 128q38 1 54 22.5t14.5 51t-19 62t-47.5 55.5q-39 30 -61.5 47t-34 26t-14.5 11.5t-4 2.5q-41 0 -64.5 -6t-35 -16
t-12 -22.5t4.5 -25.5q12 -31 55 -69q5 -8 29.5 -28.5t51.5 -43.5q32 -26 70 -58q2 -1 7 -4.5t6 -4.5z" />
    <glyph glyph-name="Adieresis" unicode="&#xc4;" horiz-adv-x="757" 
d="M300 858q18 0 31.5 -14.5t13.5 -31.5q0 -20 -13.5 -33t-31.5 -13q-19 0 -33.5 13t-14.5 33q0 17 14.5 31.5t33.5 14.5zM437 858q20 0 32.5 -14.5t12.5 -31.5q0 -20 -12.5 -33t-32.5 -13t-33.5 13t-13.5 33q0 17 13.5 31.5t33.5 14.5zM492 0h260q-19 0 -32 9.5t-22 20.5
q-11 13 -18 31l-251 638h-105l-244 -627q-8 -20 -19 -36q-10 -14 -24 -25t-32 -11h158q-32 0 -46.5 10.5t-19.5 23.5q-5 15 -2 35l74 187h285l76 -193q6 -18 4 -32q-2 -12 -10.5 -21.5t-31.5 -9.5zM175 273l136 346l137 -346h-273z" />
    <glyph glyph-name="Odieresis" unicode="&#xd6;" horiz-adv-x="774" 
d="M387 711q-72 0 -135 -28.5t-110 -77.5t-74.5 -114.5t-27.5 -140.5t27.5 -141t74.5 -115t110 -77.5t135 -28.5t135 28.5t110 77.5t74.5 115t27.5 141t-27.5 140.5t-75 114.5t-110.5 77.5t-134 28.5zM387 4q-43 0 -81 27t-66 74t-44.5 110t-16.5 135t16.5 134.5t44.5 109.5
t66 74t81 27t81 -27t66 -74t44.5 -109.5t16.5 -134.5t-16.5 -135t-44.5 -110t-66 -74t-81 -27zM320 858q18 0 31.5 -14.5t13.5 -31.5q0 -20 -13.5 -33t-31.5 -13q-19 0 -33.5 13t-14.5 33q0 17 14.5 31.5t33.5 14.5zM457 858q20 0 32.5 -14.5t12.5 -31.5q0 -20 -12.5 -33
t-32.5 -13t-33.5 13t-13.5 33q0 17 13.5 31.5t33.5 14.5z" />
    <glyph glyph-name="Udieresis" unicode="&#xdc;" horiz-adv-x="714" 
d="M541 699q29 0 44.5 -8.5t23.5 -18.5q9 -11 10 -26v-428q-3 -60 -29 -107q-11 -20 -27.5 -39.5t-40.5 -34.5t-57 -24t-76 -9q-30 0 -53 9t-40 24t-29 34.5t-19 39.5q-18 47 -20 107v422q0 16 7 29q5 11 17.5 20.5t35.5 9.5h-258q22 0 34.5 -9.5t17.5 -20.5q6 -13 7 -29
v-422q4 -65 37 -115q14 -22 35.5 -42.5t53.5 -36.5t75 -26t99 -10q46 0 81 10t61.5 26t44 36.5t29.5 42.5q27 50 31 115v428q1 15 10 26q8 10 23.5 18.5t45.5 8.5h-174zM350 858q18 0 31.5 -14.5t13.5 -31.5q0 -20 -13.5 -33t-31.5 -13q-19 0 -33.5 13t-14.5 33
q0 17 14.5 31.5t33.5 14.5zM487 858q20 0 32.5 -14.5t12.5 -31.5q0 -20 -12.5 -33t-32.5 -13t-33.5 13t-13.5 33q0 17 13.5 31.5t33.5 14.5z" />
    <glyph glyph-name="Edieresis" unicode="&#xcb;" horiz-adv-x="556" 
d="M364 683q57 0 88 -21.5t45 -47.5q17 -31 19 -69v154h-495q23 0 35 -10t17 -22q6 -14 7 -31v-573q-1 -18 -7 -32q-5 -12 -17 -21.5t-35 -9.5h495v161q-2 -41 -20 -73q-15 -27 -47.5 -49.5t-92.5 -22.5h-138v338h51q36 0 56 -14.5t29 -31.5q11 -20 13 -46v100v101
q-2 -27 -13 -47q-9 -17 -28.5 -31.5t-55.5 -14.5h-52v313h146zM202 858q18 0 31.5 -14.5t13.5 -31.5q0 -20 -13.5 -33t-31.5 -13q-19 0 -33.5 13t-14.5 33q0 17 14.5 31.5t33.5 14.5zM339 858q20 0 32.5 -14.5t12.5 -31.5q0 -20 -12.5 -33t-32.5 -13t-33.5 13t-13.5 33
q0 17 13.5 31.5t33.5 14.5z" />
    <glyph glyph-name="Idieresis" unicode="&#xcf;" horiz-adv-x="337" 
d="M238 635q1 18 7 32q5 12 17 22t35 10h-257q23 0 34.5 -10t17.5 -22q6 -14 8 -32v-571q-2 -18 -8 -32q-6 -12 -17.5 -22t-34.5 -10h257q-23 0 -35 10t-17 22q-6 14 -7 32v571zM102 858q18 0 31.5 -14.5t13.5 -31.5q0 -20 -13.5 -33t-31.5 -13q-19 0 -33.5 13t-14.5 33
q0 17 14 31.5t34 14.5zM239 858q20 0 32.5 -14.5t12.5 -31.5q0 -20 -12.5 -33t-32.5 -13t-33.5 13t-13.5 33q0 17 13.5 31.5t33.5 14.5z" />
    <glyph glyph-name="ae" unicode="&#xe6;" horiz-adv-x="832" 
d="M464 265v-16.5t1.5 -39.5t6 -52.5t14 -54.5t24 -47t37.5 -29q42 -15 77 -5.5t61 30.5t42 47.5t20 44.5l-2.5 -11t-9 -27.5t-20 -35.5t-36 -35.5t-55.5 -27.5t-79 -11q-59 0 -109.5 25t-82.5 83q0 -1 -10.5 -18t-28.5 -37t-42.5 -36.5t-52.5 -16.5h-2q-3 0 -17.5 -1
t-35.5 2t-44.5 10.5t-43.5 24t-33 44t-13 68.5q0 33 8 57.5t21 42.5t29.5 29.5t34.5 19.5q41 18 94 18q38 0 57.5 7.5t28.5 17.5q11 11 12 26v12q0 12 -3 33.5t-15 43t-36.5 37.5t-66.5 16q-13 0 -30 -5t-28 -10.5t-12 -10.5t19 -5q15 0 28 -6.5t23.5 -17t16.5 -24.5t6 -29
q0 -29 -22.5 -50.5t-51.5 -21.5q-32 0 -53.5 21t-21.5 50q0 27 16 50.5t41 40t56 26t61 9.5q69 0 111 -12t65 -31q26 20 58.5 30.5t68.5 10.5q45 0 79 -11t60 -29t44 -40.5t30 -46.5q28 -55 34 -126h-1h-132h-195zM562 502q-36 0 -55.5 -24t-28.5 -58t-10.5 -71t-1.5 -64
h193q0 27 -1.5 64t-10.5 71t-29 58t-56 24zM317 303q0 8 -7 11t-13 -1q-15 -11 -35 -17.5t-38.5 -19t-31 -37.5t-12.5 -74q0 -58 10.5 -89.5t23.5 -45.5q15 -17 35 -19q12 0 23 8t20.5 20t15.5 25.5t7 24.5v2z" />
    <glyph glyph-name="scaron" unicode="&#x161;" horiz-adv-x="437" 
d="M347 260l-146 126q-21 17 -36.5 40t-15.5 42.5t20 31.5t70 8q27 -3 47.5 -11.5t34.5 -21t23.5 -27.5t14.5 -30q12 -36 10 -80h9l1 177h-4q-1 -8 -5 -13q-3 -5 -8.5 -8.5t-14.5 -3.5q-8 0 -17.5 4t-22.5 9t-29.5 9.5t-38.5 6.5q-46 4 -85.5 -6t-68 -30t-43.5 -48.5
t-11.5 -60.5t28.5 -66.5t76 -67.5l85 -64q33 -21 45.5 -51.5t5 -58t-33.5 -47t-69 -19.5q-26 0 -45 7t-32.5 19t-22.5 27t-14 31q-12 37 -10 85h-9l-1 -177h4q1 7 5 12q3 5 8.5 9t14.5 4q7 0 16.5 -4.5t23 -10t32 -10t44.5 -4.5q93 0 145 30t69.5 73t3.5 89.5t-53 79.5z
M330 699l-113 -122l-112 122l112 -57z" />
    <glyph glyph-name="Scaron" unicode="&#x160;" horiz-adv-x="585" 
d="M432 369l-157 131q-42 31 -63.5 67.5t-17 66.5t37.5 48t101 11q37 -3 64.5 -14.5t46.5 -27t31.5 -35t19.5 -38.5q17 -46 14 -102h12l1 234h-5q-3 -11 -7 -20q-4 -8 -11.5 -14t-19.5 -6q-11 0 -23.5 5l-30 12t-40 13.5t-52.5 8.5q-67 6 -120 -7t-87.5 -39.5t-49 -64
t-4.5 -82t45.5 -92t101.5 -94.5l111 -87q44 -33 60.5 -74t7 -77t-44.5 -61t-94 -25q-35 0 -61.5 9.5t-46 25.5t-33 36.5t-22.5 41.5q-20 50 -23 114h-12l-1 -244h6q2 10 6 19q4 7 11.5 13t19.5 6q10 0 23 -6t31 -13.5t43 -13.5t60 -6q84 0 141.5 19.5t91 51t45 72t2.5 83
t-36.5 83t-71.5 72.5zM414 888l-113 -122l-112 122l112 -57z" />
    <glyph glyph-name="Aring" unicode="&#xc5;" horiz-adv-x="757" 
d="M370 924q32 0 55 -23t23 -55t-23 -56t-55 -24q-17 0 -31.5 6.5t-25.5 17.5t-17 25.5t-6 30.5q0 32 23 55t57 23zM370 771q20 0 27 22t7 53t-7 52t-27 21q-21 0 -28.5 -21t-7.5 -52t7.5 -53t28.5 -22zM492 0q23 0 31.5 9.5t10.5 21.5q2 14 -4 32l-76 193h-285l-74 -187
q-3 -20 2 -35q5 -13 19.5 -23.5t46.5 -10.5h-158q18 0 32 11t24 25q11 16 19 36l244 627h105l251 -638q7 -18 18 -31q9 -11 22 -20.5t32 -9.5h-260zM448 273l-137 346l-136 -346h273z" />
    <glyph glyph-name="Atilde" unicode="&#xc3;" horiz-adv-x="757" 
d="M254 771q7 23 18 41q9 15 23 28t34 13q19 0 46 -7.5t52.5 -13t46 -4t27.5 20.5h5q-3 -24 -13 -42q-8 -16 -25 -28.5t-46 -12.5q-27 0 -46.5 7t-37.5 12.5t-36.5 4t-42.5 -18.5h-5zM492 0h260q-19 0 -32 9.5t-22 20.5q-11 13 -18 31l-251 638h-105l-244 -627
q-8 -20 -19 -36q-10 -14 -24 -25t-32 -11h158q-32 0 -46.5 10.5t-19.5 23.5q-5 15 -2 35l74 187h285l76 -193q6 -18 4 -32q-2 -12 -10.5 -21.5t-31.5 -9.5zM175 273l136 346l137 -346h-273z" />
    <glyph glyph-name="Yacute" unicode="&#xdd;" horiz-adv-x="708" 
d="M552 699q29 0 37.5 -10.5t6.5 -22.5q-2 -14 -14 -32l-176 -254l-167 259q-9 17 -10 30q-1 11 6 20.5t31 9.5h-256q12 0 24.5 -9.5t23.5 -20.5q12 -13 25 -30l195 -273v-302q-2 -18 -8 -32q-6 -12 -17.5 -22t-34.5 -10h257q-23 0 -35 10t-17 22q-6 14 -7 32v301l186 269
q12 18 27 32q13 12 30.5 22.5t38.5 10.5h-146zM463 911q13 13 32 13t33 -13q11 -13 12.5 -24.5t-1.5 -20.5q-4 -11 -11 -20q-3 -3 -18 -11.5t-36 -20t-45 -24.5t-45 -24z" />
    <glyph glyph-name="Agrave" unicode="&#xc0;" horiz-adv-x="757" 
d="M250 843q-13 13 -12.5 32t14.5 32q11 12 22.5 14t21 -1t15.5 -8t7 -5q3 -3 11 -17.5t19 -35.5t23.5 -44.5t23.5 -44.5zM492 0h260q-19 0 -32 9.5t-22 20.5q-11 13 -18 31l-251 638h-105l-244 -627q-8 -20 -19 -36q-10 -14 -24 -25t-32 -11h158q-32 0 -46.5 10.5
t-19.5 23.5q-5 15 -2 35l74 187h285l76 -193q6 -18 4 -32q-2 -12 -10.5 -21.5t-31.5 -9.5zM175 273l136 346l137 -346h-273z" />
    <glyph glyph-name="Aacute" unicode="&#xc1;" horiz-adv-x="747" 
d="M434 911q13 13 32 13t33 -13q11 -13 12.5 -24.5t-1.5 -20.5q-4 -11 -11 -20q-3 -3 -18 -11.5t-36 -20t-45 -24.5t-45 -24zM492 0h260q-19 0 -32 9.5t-22 20.5q-11 13 -18 31l-251 638h-105l-244 -627q-8 -20 -19 -36q-10 -14 -24 -25t-32 -11h158q-32 0 -46.5 10.5
t-19.5 23.5q-5 15 -2 35l74 187h285l76 -193q6 -18 4 -32q-2 -12 -10.5 -21.5t-31.5 -9.5zM175 273l136 346l137 -346h-273z" />
    <glyph glyph-name="Egrave" unicode="&#xc8;" horiz-adv-x="556" 
d="M364 683q57 0 88 -21.5t45 -47.5q17 -31 19 -69v154h-495q23 0 35 -10t17 -22q6 -14 7 -31v-573q-1 -18 -7 -32q-5 -12 -17 -21.5t-35 -9.5h495v161q-2 -41 -20 -73q-15 -27 -47.5 -49.5t-92.5 -22.5h-138v338h51q36 0 56 -14.5t29 -31.5q11 -20 13 -46v100v101
q-2 -27 -13 -47q-9 -17 -28.5 -31.5t-55.5 -14.5h-52v313h146zM162 843q-13 13 -12.5 32t14.5 32q11 12 22.5 14t21 -1t15.5 -8t7 -5q3 -3 11 -17.5t19 -35.5t23.5 -44.5t23.5 -44.5z" />
    <glyph glyph-name="Eacute" unicode="&#xc9;" horiz-adv-x="556" 
d="M364 683q57 0 88 -21.5t45 -47.5q17 -31 19 -69v154h-495q23 0 35 -10t17 -22q6 -14 7 -31v-573q-1 -18 -7 -32q-5 -12 -17 -21.5t-35 -9.5h495v161q-2 -41 -20 -73q-15 -27 -47.5 -49.5t-92.5 -22.5h-138v338h51q36 0 56 -14.5t29 -31.5q11 -20 13 -46v100v101
q-2 -27 -13 -47q-9 -17 -28.5 -31.5t-55.5 -14.5h-52v313h146zM311 911q13 13 32 13t33 -13q11 -13 12.5 -24.5t-1.5 -20.5q-4 -11 -11 -20q-3 -3 -18 -11.5t-36 -20t-45 -24.5t-45 -24z" />
    <glyph glyph-name="Ydieresis" unicode="&#x178;" horiz-adv-x="708" 
d="M552 699q29 0 37.5 -10.5t6.5 -22.5q-2 -14 -14 -32l-176 -254l-167 259q-9 17 -10 30q-1 11 6 20.5t31 9.5h-256q12 0 24.5 -9.5t23.5 -20.5q12 -13 25 -30l195 -273v-302q-2 -18 -8 -32q-6 -12 -17.5 -22t-34.5 -10h257q-23 0 -35 10t-17 22q-6 14 -7 32v301l186 269
q12 18 27 32q13 12 30.5 22.5t38.5 10.5h-146zM354 858q18 0 31.5 -14.5t13.5 -31.5q0 -20 -13.5 -33t-31.5 -13q-19 0 -33.5 13t-14.5 33q0 17 14.5 31.5t33.5 14.5zM491 858q20 0 32.5 -14.5t12.5 -31.5q0 -20 -12.5 -33t-32.5 -13t-33.5 13t-13.5 33q0 17 13.5 31.5
t33.5 14.5z" />
    <glyph glyph-name="ydieresis" unicode="&#xff;" horiz-adv-x="620" 
d="M310 -231q0 -26 -18.5 -44.5t-44.5 -18.5t-44.5 18.5t-18.5 44.5t18.5 44t44.5 18t44.5 -18t18.5 -44zM610 509h-171q35 0 50.5 -12t20.5 -26q5 -17 1 -38l-105 -327l-153 336q-7 18 -5 33q2 13 10.5 23.5t34.5 10.5h-283q20 0 34.5 -10.5t24.5 -22.5q11 -14 19 -32
l203 -445h81l-67 -209q2 -4 3.5 -11.5t1.5 -11.5q0 -10 -3 -17l222 683q2 4 8 16.5t16.5 26t24.5 23.5t32 10zM243 668q18 0 31.5 -14.5t13.5 -31.5q0 -20 -13.5 -33t-31.5 -13q-19 0 -33.5 13t-14.5 33q0 17 14.5 31.5t33.5 14.5zM380 668q20 0 32.5 -14.5t12.5 -31.5
q0 -20 -12.5 -33t-32.5 -13t-33.5 13t-13.5 33q0 17 13.5 31.5t33.5 14.5z" />
    <glyph glyph-name="Igrave" unicode="&#xcc;" horiz-adv-x="355" 
d="M256 635q1 18 7 32q5 12 17 22t35 10h-257q23 0 34.5 -10t17.5 -22q6 -14 8 -32v-571q-2 -18 -8 -32q-6 -12 -17.5 -22t-34.5 -10h257q-23 0 -35 10t-17 22q-6 14 -7 32v571zM53 845q-13 13 -12.5 32t14.5 32q11 12 22.5 14t21 -1t15.5 -8t7 -5q3 -3 11 -17.5t19 -35.5
t23.5 -44.5t23.5 -44.5z" />
    <glyph glyph-name="zcaron" unicode="&#x17e;" horiz-adv-x="516" 
d="M383 126q-26 0 -44 -19t-18 -45q0 -19 10 -33.5t27 -22.5h-184l312 505h-370q-28 -3 -45 -21t-17 -43t18 -43t44 -18t44.5 18t18.5 43q0 20 -11 35.5t-28 23.5h192l-312 -505h365q26 1 43.5 18.5t17.5 42.5q0 26 -19.5 45t-43.5 19zM365 699l-113 -122l-112 122l112 -57z
" />
    <glyph glyph-name="Zcaron" unicode="&#x17d;" horiz-adv-x="543" 
d="M175 16l348 683h-512v-227q3 58 21 105q8 20 20 39t29.5 34t41 24t55.5 9h181l-349 -683h513v227q-3 -59 -21 -106q-8 -20 -20 -39t-29.5 -33.5t-41.5 -23.5t-55 -9h-181zM380 888l-113 -122l-112 122l112 -57z" />
    <glyph glyph-name="Oacute" unicode="&#xd3;" horiz-adv-x="774" 
d="M387 711q-72 0 -135 -28.5t-110 -77.5t-74.5 -114.5t-27.5 -140.5t27.5 -141t74.5 -115t110 -77.5t135 -28.5t135 28.5t110 77.5t74.5 115t27.5 141t-27.5 140.5t-74.5 114.5t-110 77.5t-135 28.5zM387 4q-43 0 -81 27t-66 74t-44.5 110t-16.5 135t16.5 134.5t44.5 109.5
t66 74t81 27t81 -27t66 -74t44.5 -109.5t16.5 -134.5t-16.5 -135t-44.5 -110t-66 -74t-81 -27zM434 911q13 13 32 13t33 -13q11 -13 12.5 -24.5t-1.5 -20.5q-4 -11 -11 -20q-3 -3 -18 -11.5t-36 -20t-45 -24.5t-45 -24z" />
    <glyph glyph-name="Uacute" unicode="&#xda;" horiz-adv-x="725" 
d="M541 699q29 0 44.5 -8.5t23.5 -18.5q9 -11 10 -26v-428q-3 -60 -29 -107q-11 -20 -27.5 -39.5t-40.5 -34.5t-57 -24t-76 -9q-30 0 -53 9t-40 24t-29 34.5t-19 39.5q-18 47 -20 107v422q0 16 7 29q5 11 17.5 20.5t35.5 9.5h-258q22 0 34.5 -9.5t17.5 -20.5q6 -13 7 -29
v-422q4 -65 37 -115q14 -22 35.5 -42.5t53.5 -36.5t75 -26t99 -10q46 0 81 10t61.5 26t44 36.5t29.5 42.5q27 50 31 115v428q1 15 10 26q8 10 23.5 18.5t45.5 8.5h-174zM445 910q13 13 32 13t33 -13q11 -13 12.5 -24.5t-1.5 -20.5q-4 -11 -11 -20q-3 -3 -18 -11.5t-36 -20
t-45 -24.5t-45 -24z" />
    <glyph glyph-name="Ograve" unicode="&#xd2;" horiz-adv-x="774" 
d="M387 711q-72 0 -135 -28.5t-110 -77.5t-74.5 -114.5t-27.5 -140.5t27.5 -141t74.5 -115t110 -77.5t135 -28.5t135 28.5t110 77.5t74.5 115t27.5 141t-27.5 140.5t-74.5 114.5t-110 77.5t-135 28.5zM387 4q-43 0 -81 27t-66 74t-44.5 110t-16.5 135t16.5 134.5t44.5 109.5
t66 74t81 27t81 -27t66 -74t44.5 -109.5t16.5 -134.5t-16.5 -135t-44.5 -110t-66 -74t-81 -27zM264 845q-13 13 -12.5 32t14.5 32q11 12 22.5 14t21 -1t15.5 -8t7 -5q3 -3 11 -17.5t19 -35.5t23.5 -44.5t23.5 -44.5z" />
    <glyph glyph-name="Ugrave" unicode="&#xd9;" horiz-adv-x="725" 
d="M541 699q29 0 44.5 -8.5t23.5 -18.5q9 -11 10 -26v-428q-3 -60 -29 -107q-11 -20 -27.5 -39.5t-40.5 -34.5t-57 -24t-76 -9q-30 0 -53 9t-40 24t-29 34.5t-19 39.5q-18 47 -20 107v422q0 16 7 29q5 11 17.5 20.5t35.5 9.5h-258q22 0 34.5 -9.5t17.5 -20.5q6 -13 7 -29
v-422q4 -65 37 -115q14 -22 35.5 -42.5t53.5 -36.5t75 -26t99 -10q46 0 81 10t61.5 26t44 36.5t29.5 42.5q27 50 31 115v428q1 15 10 26q8 10 23.5 18.5t45.5 8.5h-174zM264 845q-13 13 -12.5 32t14.5 32q11 12 22.5 14t21 -1t15.5 -8t7 -5q3 -3 11 -17.5t19 -35.5
t23.5 -44.5t23.5 -44.5z" />
    <glyph glyph-name="emdash" unicode="&#x2014;" horiz-adv-x="1007" 
d="M947 267v-43h-887v43h887z" />
    <glyph glyph-name="endash" unicode="&#x2013;" horiz-adv-x="824" 
d="M764 267v-42h-704v42h704z" />
    <glyph glyph-name="acute" unicode="&#xb4;" horiz-adv-x="188" 
d="M99 719q13 13 32 13t33 -13q11 -13 12.5 -24.5t-1.5 -20.5q-4 -11 -11 -20q-3 -3 -18 -11.5t-36 -20t-45 -24.5t-45 -24z" />
    <glyph glyph-name="thorn" unicode="&#xfe;" horiz-adv-x="611" 
d="M40 -214q24 0 37.5 10.5t19.5 24.5q7 15 8 35v837q-1 19 -8 35q-6 13 -19.5 24t-37.5 11h283q-26 0 -39.5 -11t-20.5 -24q-8 -16 -9 -35v-183h1v-78v-24q3 10 9 29t19.5 37.5t37.5 32t63 13.5q40 0 70.5 -11.5t52.5 -30.5t37 -42.5t24 -48.5q22 -59 22 -133
q-1 -75 -25 -133q-10 -25 -26.5 -49t-40.5 -42.5t-57 -30t-77 -11.5q-28 0 -47.5 8.5t-32 21t-19.5 27.5t-10 27l-1 -216q1 -20 9 -35q7 -14 20.5 -24.5t39.5 -10.5h-283zM255 106q14 -57 38.5 -79.5t54.5 -22.5q21 0 40 12t33 40.5t22 77t8 120.5q0 71 -8 118t-22 75.5
t-33 40.5t-40 12q-30 0 -54.5 -34.5t-38.5 -91.5v-268z" />
    <glyph glyph-name="Thorn" unicode="&#xde;" horiz-adv-x="606" 
d="M355 612q58 -3 105 -26q20 -10 39 -24.5t34 -36.5t24 -51t9 -68t-9 -68t-24 -50.5t-34 -36t-39 -24.5q-47 -23 -105 -26h-139v-138q1 -18 7 -32q5 -12 17 -21.5t34 -9.5h-254q22 0 34.5 9.5t17.5 21.5q6 14 7 32v572q-1 18 -7 32q-5 12 -17.5 22t-34.5 10h254
q-22 0 -34 -10t-17 -22q-6 -14 -7 -32v-23h139zM356 216q24 3 42 24q16 18 29 56.5t13 109.5t-13 109t-29 56q-18 21 -42 24h-140v-379h140z" />
    <glyph glyph-name="Ntilde" unicode="&#xd1;" horiz-adv-x="655" 
d="M478 699q26 0 40 -8t21 -18q8 -11 9 -25v-519l-323 570h-198q18 0 31 -7.5t22 -16.5t13.5 -17t5.5 -9v-598q-1 -15 -10 -26q-8 -10 -24 -17.5t-45 -7.5h173q-29 0 -44.5 7.5t-23.5 17.5q-9 11 -10 26v568l337 -619h112v648q1 14 9 25q7 10 21 18t41 8h-157zM231 771
q7 23 18 41q9 15 23 28t34 13q19 0 46 -7.5t52.5 -13t46 -4t27.5 20.5h5q-3 -24 -13 -42q-8 -16 -25 -28.5t-46 -12.5q-27 0 -46.5 7t-37.5 12.5t-36.5 4t-42.5 -18.5h-5z" />
    <glyph glyph-name="copyright" unicode="&#xa9;" horiz-adv-x="834" 
d="M229 358q1 46 16 85t42 66.5t64.5 43t82.5 15.5q26 0 52 -5t56 -14l-6 -70q-30 9 -54 13t-44 4q-59 0 -94.5 -34t-35.5 -104q0 -75 39 -115.5t97 -40.5q36 0 92 23l6 -74q-62 -20 -102 -20q-46 0 -84.5 16t-66.5 46t-44 72t-16 93zM418 725q77 0 145.5 -29.5t120 -80.5
t81.5 -120t30 -148q0 -76 -30 -144t-81.5 -119t-120 -81t-145.5 -30q-78 0 -147 30t-120.5 81t-81.5 119t-30 144q0 79 30 148t81.5 120t120.5 80.5t147 29.5zM418 58q60 0 113 22.5t93 61.5t63.5 92t23.5 113q0 61 -23.5 115.5t-63.5 95t-93 64t-113 23.5t-113.5 -23.5
t-93.5 -64t-63.5 -95t-23.5 -115.5q0 -60 23.5 -113t63.5 -92t93.5 -61.5t113.5 -22.5z" />
    <glyph glyph-name="trademark" unicode="&#x2122;" horiz-adv-x="891" 
d="M40 699v-71h113v-354h73v354h113v71h-299zM485 700l128 -304l126 304h83v-424h-71v273q-28 -68 -56.5 -137t-55.5 -136h-55l-112 272v-272h-71v424h84z" />
    <glyph glyph-name="AE" unicode="&#xc6;" horiz-adv-x="852" 
d="M501 682v-313h51q36 0 55.5 14.5t28.5 31.5q11 20 13 46v-101v-100q-2 26 -13 46q-9 17 -29 31.5t-56 14.5h-50v-337h138q60 0 92.5 22.5t47.5 49.5q18 32 20 72v-160h-496q23 0 34.5 9.5t17.5 21.5q6 14 8 32v194h-173l-90 -188q-5 -20 -1 -35q4 -13 17 -23.5t45 -10.5
h-156q18 0 32.5 11t24.5 24.5t16 24.5l6 11l276 584q-2 7 -5.5 14.5t-10.5 14t-17 11t-24 4.5h496v-154q-2 38 -19 69q-14 26 -45 47.5t-88 21.5h-146zM363 272v344l-167 -344h167z" />
    <glyph glyph-name="percent" unicode="%" horiz-adv-x="574" 
d="M534 709l-480 -732l-5 3l478 729h7zM188 380q-26 0 -48.5 12t-39.5 33t-27 49.5t-10 60.5t10 60.5t27 49.5t39.5 33t48.5 12t49 -12t40.5 -33t27.5 -49.5t10 -60.5t-10 -60.5t-27.5 -49.5t-40.5 -33t-49 -12zM188 684q-9 0 -17.5 -12t-14.5 -32t-9.5 -47.5t-3.5 -57.5
t3.5 -57t9.5 -47t14.5 -31.5t17.5 -11.5t17.5 11.5t15 31.5t10.5 47t4 57t-4 57.5t-10.5 47.5t-15 32t-17.5 12zM368 283q26 0 49 -12t40 -33t27 -49t10 -60t-10 -60.5t-27 -49.5t-40 -33t-49 -12t-48.5 12t-39.5 33t-27 49.5t-10 60.5t10 60t27 49t39.5 33t48.5 12z
M368 -18q10 0 18.5 11.5t15 31.5t10 46.5t3.5 57.5q0 30 -3.5 57t-10 47.5t-15 32t-18.5 11.5q-9 0 -17.5 -11.5t-14.5 -32t-9.5 -47.5t-3.5 -57q0 -31 3.5 -57.5t9.5 -46.5t14.5 -31.5t17.5 -11.5z" />
    <glyph glyph-name="ordfeminine" unicode="&#xaa;" horiz-adv-x="331" 
d="M263 454q0 -23 6.5 -30.5t15 -4t15 15t6.5 27.5q0 -26 -10 -39.5t-22 -20.5q-14 -8 -31 -9q-14 1 -26 5q-11 4 -20.5 12t-14.5 24q-1 -3 -4.5 -9.5t-10.5 -13.5t-17 -12.5t-23 -5.5q-29 -1 -51 7q-20 7 -35.5 24t-15.5 52t15.5 53.5t35.5 26.5q22 9 51 9q20 0 30.5 4.5
t15.5 9.5q6 6 7 14v8q0 6 -1 18t-6 23t-17 19.5t-34 8.5q-8 0 -18.5 -2.5t-18 -5.5t-9.5 -5.5t9 -2.5q17 0 29 -12t12 -29t-11.5 -28.5t-29.5 -12.5q-17 0 -29 12t-12 29q0 15 9 27.5t22.5 21.5t30.5 14t34 5q48 0 73 -10t36 -23.5t12.5 -27t1.5 -19.5v-147zM180 586
q-2 -17 -13.5 -22t-25 -11t-24 -19.5t-10.5 -46.5q0 -32 5.5 -49t12.5 -25q8 -10 19 -11q7 0 13 4.5t11 11.5t8.5 14t3.5 13v141z" />
    <glyph glyph-name="ordmasculine" unicode="&#xba;" horiz-adv-x="377" 
d="M188 681q30 0 57.5 -11.5t47.5 -31t32 -46t12 -56.5q0 -29 -12 -55t-32 -45.5t-47 -31t-58 -11.5q-30 0 -57 11.5t-47.5 31t-32 45.5t-11.5 55q0 30 11.5 56.5t32 46t47.5 31t57 11.5zM188 406q14 0 27 10t23.5 27.5t16.5 41.5t6 51q0 28 -6 52t-16 42t-23.5 28t-27.5 10
q-37 0 -54 -38t-17 -94q0 -55 17 -92.5t54 -37.5z" />
    <glyph glyph-name="Ccedilla" unicode="&#xc7;" horiz-adv-x="596" 
d="M546 702v-239h-12q-2 63 -15 112q-6 21 -14.5 41.5t-21.5 36t-30.5 25.5t-39.5 10q-46 0 -81 -13.5t-61 -35.5t-43.5 -50.5t-29.5 -57.5q-27 -69 -31 -156q4 -87 31 -155q12 -29 29.5 -56.5t43.5 -49.5t61 -35t81 -13q19 0 36 5t31 11.5t24 13.5t15 10q-6 -5 -21 -15
t-36.5 -21t-49 -19t-57.5 -8h-3l-31 -39q40 1 65.5 -5t40 -15t19 -20t3.5 -20q-3 -17 -20.5 -30.5t-43 -19.5t-57 -1t-63.5 26l4 4q15 -10 35.5 -17.5t39 -8.5t31.5 5.5t14 24.5q0 15 -18 22.5t-39 10.5q-25 4 -56 2l72 81q-11 1 -38.5 5t-61.5 15.5t-71 33.5t-67.5 58.5
t-50 90t-19.5 129.5q0 63 13.5 111t35.5 83.5t50 59.5t58 40q70 37 158 42q32 0 57 -6t45 -14q4 -2 11 -5t14.5 -6t14.5 -5.5t10 -2.5q11 0 17.5 3.5t9.5 8t4.5 10t3.5 8.5h4z" />
    <glyph glyph-name="cedilla" unicode="&#xb8;" horiz-adv-x="252" 
d="M20 -146l3 5q17 -12 41 -20.5t45.5 -10t37 6t15.5 27.5q0 17 -20.5 26t-44.5 13q-29 4 -65 4l85 96h7l-40 -49q46 1 75.5 -6t46 -18t22 -23.5t3.5 -22.5q-4 -19 -23.5 -35t-49 -22.5t-66 -0.5t-72.5 30z" />
    <glyph glyph-name="cent" unicode="&#xa2;" horiz-adv-x="524" 
d="M271 18q42 -14 77.5 -4t61.5 31t42 47.5t20 45.5q-7 -42 -31 -75q-10 -14 -25 -27.5t-36 -24t-48 -17t-62 -6.5q-29 0 -53 6l-49 -129h-9l49 130q-35 7 -66 25.5t-54.5 50t-37.5 77t-15 106.5q3 74 34 133q13 25 33 48.5t49 42.5t68.5 30.5t91.5 11.5q42 0 83 -19l45 116
h7l-46 -120q38 -17 63.5 -45.5t25.5 -63.5q0 -32 -22 -53t-54 -21q-21 0 -39 10t-26 25l-113 -302q8 -8 17 -16t19 -13zM413 466q14 0 17.5 2.5t0.5 6.5t-12 8.5t-20 9.5l-11 -32q13 5 25 5zM187 254q0 -12 1 -36.5t5 -53.5t12.5 -58.5t24.5 -51.5l113 306q-3 7 -4 14t-1 14
q0 22 10.5 40.5t30.5 26.5l13 41q-9 2 -17.5 4t-16.5 2q-32 0 -56.5 -10.5t-42.5 -28t-30.5 -40t-20.5 -45.5q-18 -55 -21 -124z" />
    <glyph glyph-name="ccedilla" unicode="&#xe7;" horiz-adv-x="519" 
d="M276 -60q46 1 77 -6t48.5 -18.5t24 -24.5t4.5 -25q-4 -20 -25 -36t-51.5 -22.5t-67.5 -0.5t-74 32l1 3q18 -12 42.5 -20t46.5 -9.5t37.5 6.5t16.5 29q1 16 -20 24.5t-46 12.5q-30 4 -67 4l86 101q-10 -2 -20.5 -2h-21.5q-46 0 -88.5 13.5t-75.5 45t-52.5 82t-20.5 125.5
q4 74 35 133q13 25 33 49t49 43t68.5 30.5t91.5 11.5q30 0 62.5 -10t59 -27.5t43.5 -41.5t17 -52q0 -32 -23 -54t-55 -22q-33 0 -55.5 22t-22.5 54t22.5 55t55.5 23q20 0 19 5.5t-13 12.5t-30.5 12.5t-32.5 5.5q-32 0 -57 -11t-43 -28.5t-30.5 -40t-20.5 -45.5
q-19 -55 -21 -125q0 -14 2 -48.5t10 -72.5t25.5 -71t47.5 -44q42 -15 77 -5.5t61.5 30.5t43 48t20.5 46q0 -4 -5 -24t-20.5 -44t-45.5 -46t-80 -31z" />
    <glyph glyph-name="breve" unicode="&#x2d8;" horiz-adv-x="286" 
d="M143 636q33 0 53 7t31 16q13 10 19 23q0 -6 -4.5 -23.5t-16.5 -36t-32 -32.5t-50 -14q-31 0 -51 14t-31.5 32.5t-16 36t-4.5 23.5q5 -13 18 -23q11 -9 31 -16t54 -7z" />
    <glyph glyph-name="oe" unicode="&#x153;" horiz-adv-x="981" 
d="M606 260v-16.5t1.5 -39.5t6 -53t13.5 -55.5t24 -47.5t38 -30q42 -15 77.5 -5t61.5 31.5t42 48t21 45.5q-1 0 -3 -11.5t-9 -28t-20.5 -36t-35.5 -36t-55 -27.5t-79 -11q-52 0 -98.5 17.5t-80.5 57.5q-38 -35 -86.5 -55t-105.5 -20t-106.5 20.5t-86.5 56.5t-58.5 84.5
t-21.5 103.5t21.5 104t58.5 85t86.5 57t106.5 21q58 0 108.5 -21.5t88.5 -59.5q32 37 75.5 59t96.5 22q45 0 79.5 -11t61 -29.5t44.5 -42t30 -47.5q28 -57 34 -130h-2h-133h-195zM703 503q-36 0 -56 -24.5t-29 -59.5t-10.5 -73.5t-1.5 -65.5h195q0 27 -1.5 65.5t-10.5 73.5
t-29 59.5t-57 24.5zM318 5q26 0 50 19.5t42.5 53t29.5 79t11 96.5t-11 96.5t-29.5 79.5t-42.5 54t-50 20q-35 0 -59.5 -20t-41 -54t-24 -79.5t-7.5 -96.5t7.5 -96.5t24 -79t41 -53t59.5 -19.5z" />
    <glyph glyph-name="Lslash" unicode="&#x141;" horiz-adv-x="581" 
d="M374 16q31 0 55 9.5t41.5 25t29.5 35t20 40.5q18 48 21 110v-236h-509q23 0 34.5 9.5t17.5 20.5q6 13 8 30v295l-72 -29l5 7l67 27v288q-2 14 -8 25q-6 10 -17.5 18t-34.5 8h257q-22 0 -33.5 -8t-17.5 -18q-7 -11 -8 -25v-232l65 27l-4 -7l-61 -25v-395h144z" />
    <glyph glyph-name="lslash" unicode="&#x142;" horiz-adv-x="294" 
d="M209 407v-342q0 -19 7 -33q5 -12 17.5 -22t35.5 -10h-259q23 0 35 10t18 22q7 14 8 33v286l-61 -25l4 7l57 23v278q-1 18 -8 33q-6 12 -18 22.5t-35 10.5h199v-288l75 31l-3 -7z" />
    <glyph glyph-name="Eth" unicode="&#xd0;" horiz-adv-x="661" 
 />
    <glyph glyph-name="eth" unicode="&#xf0;" horiz-adv-x="833" 
 />
    <glyph glyph-name="oslash" unicode="&#xf8;" horiz-adv-x="633" 
d="M511 439q38 -36 58.5 -83.5t20.5 -101.5q0 -55 -21.5 -103.5t-58.5 -84.5t-87.5 -57t-107.5 -21q-55 0 -104 20.5t-87 56.5l-71 -68l-5 3l72 69q-36 36 -56.5 83.5t-20.5 101.5q0 55 21.5 103.5t58.5 84.5t86.5 57t105.5 21q57 0 106 -20.5t87 -55.5l72 69l5 -3zM184 254
q0 -31 2.5 -59t9.5 -52l236 229q-18 56 -49 90t-68 34q-34 0 -58.5 -18.5t-40.5 -51t-24 -77t-8 -95.5zM315 12q27 0 51 18.5t42.5 51t29.5 77t11 95.5q0 63 -15 111l-238 -229q14 -57 43.5 -90.5t75.5 -33.5z" />
    <glyph glyph-name="Otilde" unicode="&#xd5;" horiz-adv-x="774" 
d="M387 711q-72 0 -135 -28.5t-110 -77.5t-74.5 -114.5t-27.5 -140.5t27.5 -141t74.5 -115t110 -77.5t135 -28.5t135 28.5t110 77.5t74.5 115t27.5 141t-27.5 140.5t-74.5 114.5t-110 77.5t-135 28.5zM387 4q-43 0 -81 27t-66 74t-44.5 110t-16.5 135t16.5 134.5t44.5 109.5
t66 74t81 27t81 -27t66 -74t44.5 -109.5t16.5 -134.5t-16.5 -135t-44.5 -110t-66 -74t-81 -27zM259 770q7 23 18 41q9 15 23 28t34 13q19 0 46 -7.5t52.5 -13t46 -4t27.5 20.5h5q-3 -24 -13 -42q-8 -16 -25 -28.5t-46 -12.5q-27 0 -46.5 7t-37.5 12.5t-36.5 4t-42.5 -18.5
h-5z" />
    <glyph glyph-name="yen" unicode="&#xa5;" horiz-adv-x="359" 
d="M180 690q29 0 54.5 -11t44 -30t29.5 -44.5t11 -54.5t-11 -54.5t-29.5 -44t-44 -29.5t-54.5 -11t-54.5 11t-44.5 29.5t-30 44t-11 54.5t11 54.5t30 44.5t44.5 30t54.5 11zM180 457q40 0 66.5 27t26.5 66q0 40 -26.5 67t-66.5 27t-67 -27t-27 -67q0 -39 27 -66t67 -27z" />
    <glyph glyph-name="Oslash" unicode="&#xd8;" horiz-adv-x="803" 
d="M664 587q40 -48 62.5 -108.5t22.5 -129.5q0 -75 -27.5 -141t-74.5 -114.5t-110.5 -77t-135.5 -28.5t-135 28.5t-111 78.5l-109 -105l-6 1l112 108q-45 49 -71.5 113t-26.5 137q0 75 27.5 141t74.5 115t110 77.5t135 28.5q78 0 145 -32t115 -88l96 93l6 -2zM194 349
q0 -50 8.5 -95t22.5 -85l359 347q-27 81 -75 129.5t-108 48.5q-43 0 -80.5 -27t-65.5 -74t-44.5 -109.5t-16.5 -134.5zM609 349q0 87 -23 161l-359 -346q28 -72 73.5 -116t100.5 -44q43 0 81 27t66 74t44.5 109.5t16.5 134.5z" />
    <glyph glyph-name="ogonek" unicode="&#x2db;" horiz-adv-x="260" 
d="M165 -7q-29 -2 -43 -14.5t-19 -27.5q-6 -18 -4 -39q8 -32 28 -38t42 1.5t41.5 21.5t26.5 22l3 -4q-21 -24 -52 -38.5t-62.5 -16.5t-57 9.5t-35.5 37.5q-5 13 -2 23.5t11 19.5t20 16t26 13q31 13 74 21z" />
    <glyph glyph-name="paragraph" unicode="&#xb6;" horiz-adv-x="382" 
d="M362 690q-11 0 -17 -5.5t-9 -11.5q-4 -7 -4 -16v-420q-1 -54 -11 -104t-45 -94q-30 -35 -57.5 -56t-63.5 -21q-41 0 -68 23t-27 56q0 23 16.5 36.5t34.5 13.5q6 0 13.5 -1.5t14.5 -6t12 -13.5t5 -23q0 -5 -1 -12t-5.5 -13.5t-14.5 -11t-28 -4.5q0 -12 12.5 -23.5
t35.5 -11.5q16 0 35 8.5t35.5 35t27 75.5t10.5 130v115h-27q-38 0 -66.5 7.5t-50 20t-36 28t-23.5 32.5q-22 39 -25 89q3 49 25 89q9 16 23.5 32t36 29t50 20.5t66.5 7.5h126zM263 681q-22 -6 -40 -25q-15 -17 -27 -50.5t-12 -93.5q0 -66 12 -100t27 -49q18 -18 40 -19v337z
M225 -2q17 15 35 33t32.5 45t24 65.5t9.5 95.5v447h-58v-453q0 -66 -8.5 -126.5t-34.5 -106.5z" />
    <glyph glyph-name="onethird" unicode="&#x2153;" horiz-adv-x="571" 
d="M151 281v388q-15 -25 -36 -40.5t-40 -23.5q-22 -10 -45 -14v-10q15 0 23.5 -5t12.5 -10q4 -6 5 -14v-271q0 -11 -4 -19q-3 -7 -10.5 -12.5t-20.5 -5.5h150q-14 0 -21 5.5t-10 12.5q-4 8 -4 19zM68 -32h-7l363 725h6zM437 231q42 -9 66 -23.5t35.5 -30.5t14.5 -30.5
t3 -22.5q0 -33 -15.5 -57t-40 -40t-56.5 -23.5t-65 -7.5q-26 0 -48 7.5t-39 21t-26.5 32t-9.5 41.5q0 30 16 48t42 18t42 -14.5t16 -38.5q0 -22 -14.5 -39t-38.5 -17q-21 0 -37 12q11 -39 38.5 -53t55.5 -14q12 0 24 3.5t21 11.5q15 14 20 43t5 58q0 61 -15 86t-57 25
q-6 0 -11 -0.5t-10 -0.5v7q10 -2 20 -2q34 0 45.5 17.5t11.5 64.5q0 31 -4 50.5t-10.5 30t-16 14.5t-21.5 4q-17 0 -36.5 -7.5t-26.5 -31.5q8 5 20 5q7 0 16 -2t16.5 -8t12.5 -16t5 -26q0 -23 -13.5 -37.5t-36.5 -14.5q-24 0 -38.5 17t-14.5 39q0 13 6 28.5t19 28.5t34 22
t52 9q29 0 54 -6.5t43.5 -19t29 -30t10.5 -38.5t-11 -37.5t-26 -28t-30.5 -18.5t-25.5 -9z" />
    <glyph glyph-name="onequarter" unicode="&#xbc;" horiz-adv-x="570" 
d="M36 244q13 0 20.5 5.5t10.5 12.5q4 8 4 18v272q-1 8 -5 14q-4 5 -12.5 9.5t-23.5 4.5v10q24 4 46 14q19 8 39.5 23.5t36.5 41.5v-389q0 -10 4 -18q3 -7 10 -12.5t20 -5.5h-150zM433 691l-362 -724h-8l362 724h8zM512 130q8 1 14 6q5 5 9.5 14t4.5 26v-46v-10h-74v-82
q0 -11 4 -19q3 -8 10 -13.5t21 -5.5h-150q13 0 20.5 5.5t10.5 13.5q4 8 4 19v82h-138h-6h-2l7 10h1l169 279h49v-279h46zM386 346l-132 -216h132v216z" />
    <glyph glyph-name="onesuperior" unicode="&#xb9;" horiz-adv-x="287" 
d="M190 295q1 -11 5 -20q4 -8 11 -14t21 -6h-161q14 0 21.5 6t11.5 14q4 9 5 20v292q-2 8 -6 15q-5 5 -13 10t-25 5v10q25 5 49 16q20 9 42 25.5t39 43.5v-417v0z" />
    <glyph glyph-name="threequarters" unicode="&#xbe;" horiz-adv-x="648" 
d="M333 367q0 -24 -10 -45t-29 -37.5t-47 -26t-63 -9.5q-33 0 -57 6t-41 15.5t-27.5 21t-16.5 22.5q-6 13 -9 24q-3 7 -3 17v2v3v-1q2 20 16 33t34 13t35 -14.5t15 -35.5q0 -20 -15 -35t-35 -15q-5 0 -15 2q-1 -2 0 -4t2 -4.5t6 -6.5q24 -20 54 -27.5t56.5 0.5t45 33
t19.5 69q0 40 -9.5 62t-20.5 32q-13 11 -31 13h-52v9h42q14 1 25 11q10 8 18 26t8 52t-14 55t-34.5 29t-44.5 5t-44 -17q-8 -6 -11 -10t-5 -6q-2 -3 -1 -5q10 5 21 5q20 0 35 -14.5t15 -35.5q0 -20 -15 -34.5t-35 -14.5t-35 14.5t-15 34.5q0 5 1 11q2 13 9 27q5 10 14 19.5
t23 17.5t34 13t48 5q59 0 92 -29.5t33 -69.5q0 -27 -12 -45t-26 -29q-17 -12 -37 -19q30 -9 54 -24q20 -13 37.5 -34.5t17.5 -53.5zM588 131l5 1t10.5 5.5t10 13.5t4.5 26v-46v-9h-75v-83q0 -11 4 -19q3 -7 10 -12.5t21 -5.5h-151q13 0 20.5 5.5t10.5 12.5q4 8 4 19v83h-137
h-7h-1l4 5l141 232l19 33l12 20h1h48l1 -281h45zM462 347l-131 -216h131v216zM530 694l-362 -725h-8l362 725h8z" />
    <glyph glyph-name="threesuperior" unicode="&#xb3;" horiz-adv-x="455" 
d="M274 500q34 -9 60 -26q23 -14 42 -38t19 -59q0 -27 -11.5 -50.5t-32.5 -41t-51.5 -28t-69.5 -10.5q-25 0 -54.5 6t-55 19.5t-43 35.5t-17.5 55v2v3v-1q2 22 17.5 36.5t37.5 14.5q23 0 39 -16t16 -39t-16 -39t-39 -16q-9 0 -16 3q-1 -2 0 -5q1 -2 2 -5t6 -8q27 -22 60 -30
t62.5 1t50 36.5t21.5 76.5q0 45 -10 68.5t-23 34.5q-15 12 -34 14h-58v11h46q16 1 28 12q11 9 19.5 29t8.5 57t-15 60t-38 32t-49.5 5.5t-48.5 -19.5q-15 -11 -18 -17q-2 -4 -1 -5q10 6 24 6q23 0 39 -16t16 -39t-16 -39t-39 -16t-39 16t-16 39q0 27 13 46t33.5 31t45.5 18
t50 6q32 0 57.5 -8.5t43.5 -23.5t27.5 -34.5t9.5 -41.5q0 -30 -13 -50t-29 -32q-18 -14 -41 -21z" />
    <glyph glyph-name="twosuperior" unicode="&#xb2;" horiz-adv-x="420" 
d="M360 408q0 -54 -9.5 -87.5t-25 -51t-36 -21t-42.5 2t-45 18.5t-43 29q-11 8 -20 10.5t-16 0t-12.5 -7.5t-9.5 -12q-10 -16 -16 -42h-5q-13 26 -16.5 49t-0.5 42.5t11 36t19 29.5q25 31 64 52q42 23 63.5 49t32.5 48q12 26 14 51q0 42 -15.5 66t-39 33t-50.5 4t-50 -21
q-16 -12 -19 -18q-2 -4 -1 -5q13 5 24 5q24 0 40.5 -16.5t16.5 -39.5q0 -24 -16.5 -40.5t-40.5 -16.5q-23 0 -39.5 16.5t-16.5 40.5q0 27 13 47t34 32.5t47 18.5t52 6q67 0 104.5 -33t37.5 -79q0 -21 -6.5 -36.5t-16 -27.5t-21 -20t-20.5 -13q-24 -13 -44.5 -24t-35.5 -19
q-18 -10 -32 -18q-33 -17 -53.5 -37t-31 -40t-13 -40t-0.5 -37q11 35 26.5 54.5t33.5 27t37.5 6.5t37.5 -6t34 -12t28 -10q29 -9 46.5 -1.5t26.5 20.5q11 15 15 37h1z" />
    <glyph glyph-name="fraction" unicode="&#x2044;" horiz-adv-x="444" 
d="M433 720h11l-433 -742h-11z" />
    <glyph glyph-name="fi" unicode="&#xfb01;" horiz-adv-x="573" 
d="M498 76q1 -21 8 -38q6 -14 19 -26t38 -12h-263h-21h-262q22 0 35 10t20 23t8.5 25t1.5 17v418h-72v17h72v125q5 40 28 72q10 13 24.5 26t35.5 23.5t49 16.5t64 6q44 0 80.5 -8t62.5 -25t40.5 -43.5t14.5 -64.5q-2 -23 -19.5 -44t-46.5 -21t-49 15.5t-20 53.5q0 23 14 39
t43 16q25 0 29 10.5t-8 22.5t-36.5 22.5t-56.5 10.5q-36 0 -55.5 -20t-28.5 -44q-11 -28 -12 -64v-125h44h46h173v-434zM345 442q-1 14 -8 25q-6 10 -19.5 18t-37.5 8h-45v-418q0 -5 1.5 -16t7 -23.5t16.5 -22.5t29 -13q21 3 32.5 15t16.5 26q6 16 7 35v366z" />
    <glyph glyph-name="fl" unicode="&#xfb02;" horiz-adv-x="577" 
d="M501 70q1 -20 8 -35q6 -14 19.5 -24.5t38.5 -10.5h-268h-15h-50h-153h-65q22 0 35 10t19.5 23t8.5 25t2 17v424h-71v18h71v104v14q3 40 22 72q16 27 51.5 49.5t100.5 22.5q40 0 70 -11q30 -4 76 -5t100 7v-700zM349 698q0 8 -2 18q-2 8 -5 17.5t-9 17.5q-15 6 -28 6
q-27 0 -41.5 -19t-21.5 -42q-8 -27 -9 -61v-14v-104h91v-18h-91v-129t0.5 -126.5t0.5 -105v-63.5q0 -4 1.5 -15.5t7.5 -24t17.5 -23t31.5 -12.5q21 2 33 13t17 24q6 15 7 33v628z" />
    <glyph glyph-name="alternative.001" horiz-adv-x="610" 
d="M519 100q0 -42 12.5 -56.5t27.5 -9t27.5 27t13.5 51.5q-1 -48 -19 -72.5t-40 -36.5q-26 -14 -58 -16q-28 1 -51 11q-20 8 -38.5 25.5t-24.5 50.5q-3 -12 -10.5 -27t-20 -28.5t-32 -22.5t-46.5 -9q-45 0 -78.5 11.5t-58 30t-41 42.5t-26.5 49q-25 58 -25 133q1 74 23 133
q9 25 24 48.5t37.5 42.5t53.5 30.5t72 11.5q38 0 61 -13t36.5 -31t19.5 -36.5t9 -28.5l5 99h152l-5 -74v-207v-129zM367 377q-14 57 -38 91.5t-53 34.5q-21 0 -40 -12t-33 -40.5t-22 -76.5t-8 -120t8 -120t22 -76.5t33 -40t40 -11.5q29 0 53 22t38 80v269z" />
    <glyph glyph-name="aacutealternative" horiz-adv-x="610" 
d="M519 100v129v207l5 74h-152l-5 -99q-3 10 -9 28.5t-19.5 36.5t-36.5 31t-61 13q-41 0 -72 -11.5t-53.5 -30.5t-37.5 -42.5t-24 -48.5q-22 -59 -23 -133q0 -75 25 -133q10 -25 26.5 -49t41 -42.5t58 -30t78.5 -11.5q27 0 46.5 9t32 22.5t20 28.5t10.5 27q6 -33 24.5 -50.5
t38.5 -25.5q23 -10 51 -11q32 2 58 16q22 12 40 36.5t19 72.5q-1 -30 -13.5 -51.5t-27.5 -27t-27.5 9t-12.5 56.5zM367 108q-14 -58 -38 -80t-53 -22q-21 0 -40 11.5t-33 40t-22 76.5t-8 120t8 120t22 76.5t33 40.5t40 12q29 0 53 -34.5t38 -91.5v-269zM321 719q13 13 32 13
t33 -13q11 -13 12.5 -24.5t-1.5 -20.5q-4 -11 -11 -20q-3 -3 -18 -11.5t-36 -20t-45 -24.5t-45 -24z" />
    <glyph glyph-name="agravealternative" horiz-adv-x="610" 
d="M519 100v336l5 74h-152l-5 -99q-3 10 -9 28.5t-19.5 36.5t-36.5 31t-61 13q-41 0 -72 -11.5t-53.5 -30.5t-37.5 -42.5t-24 -48.5q-22 -59 -23 -133q0 -75 25 -133q10 -25 26.5 -49t41 -42.5t58 -30t78.5 -11.5q27 0 46.5 9t32 22.5t20 28.5t10.5 27q6 -33 24.5 -50.5
t38.5 -25.5q23 -10 51 -11q32 2 58 16q22 12 40 36.5t19 72.5q-1 -30 -13.5 -51.5t-27.5 -27t-27.5 9t-12.5 56.5zM367 108q-14 -58 -38 -80t-53 -22q-21 0 -40 11.5t-33 40t-22 76.5t-8 120t8 120t22 76.5t33 40.5t40 12q29 0 53 -34.5t38 -91.5v-269zM175 654
q-13 13 -12.5 32t14.5 32q11 12 22.5 14t21 -1t15.5 -8t7 -5q3 -3 11 -17.5t19 -35.5t23.5 -44.5t23.5 -44.5z" />
    <glyph glyph-name="a" unicode="a" horiz-adv-x="560" 
d="M469 100q0 -42 12.5 -56t28 -8t28 28t12.5 52q0 -48 -18.5 -74t-40.5 -38q-26 -14 -59 -16q-25 0 -47 9q-19 7 -37.5 22.5t-26.5 44.5q-2 -5 -9 -17.5t-19.5 -25.5t-31 -23t-42.5 -10q-54 -2 -95 13q-18 6 -34.5 17t-30 28t-21.5 40t-8 55t8 56.5t21.5 42t30 29.5
t34.5 19q41 17 95 17q37 0 56.5 8t28.5 18q11 11 12 27v14q0 12 -1.5 33t-11 42t-31.5 36.5t-63 15.5q-15 0 -34.5 -4.5t-33.5 -9.5t-17 -9.5t17 -4.5q32 0 54 -23t22 -53q0 -32 -21.5 -53t-54.5 -23q-30 0 -52.5 22t-22.5 54q0 27 16.5 49.5t42 39.5t57 26.5t61.5 9.5
q58 0 97.5 -9t65 -22.5t38.5 -30.5t18.5 -33.5t6 -30.5t0.5 -22v-272zM317 344q-3 -20 -14 -30t-26 -16.5t-32 -13t-31 -20t-23.5 -37.5t-9.5 -65q0 -60 10.5 -91t23.5 -46q15 -18 34 -20q13 0 24.5 8.5t21 20.5t15 25.5t6.5 24.5z" />
    <glyph glyph-name="acircumalternative" horiz-adv-x="610" 
d="M519 100v336l5 74h-152l-5 -99q-3 10 -9 28.5t-19.5 36.5t-36.5 31t-61 13q-41 0 -72 -11.5t-53.5 -30.5t-37.5 -42.5t-24 -48.5q-22 -59 -23 -133q0 -75 25 -133q10 -25 26.5 -49t41 -42.5t58 -30t78.5 -11.5q27 0 46.5 9t32 22.5t20 28.5t10.5 27q6 -33 24.5 -50.5
t38.5 -25.5q23 -10 51 -11q32 2 58 16q22 12 40 36.5t19 72.5q-1 -30 -13.5 -51.5t-27.5 -27t-27.5 9t-12.5 56.5zM367 108q-14 -58 -38 -80t-53 -22q-21 0 -40 11.5t-33 40t-22 76.5t-8 120t8 120t22 76.5t33 40.5t40 12q29 0 53 -34.5t38 -91.5v-269zM165 576l113 122
l112 -122l-112 57z" />
    <glyph glyph-name="adieresialternative.001" horiz-adv-x="610" 
d="M519 100v336l5 74h-152l-5 -99q-3 10 -9 28.5t-19.5 36.5t-36.5 31t-61 13q-41 0 -72 -11.5t-53.5 -30.5t-37.5 -42.5t-24 -48.5q-22 -59 -23 -133q0 -75 25 -133q10 -25 26.5 -49t41 -42.5t58 -30t78.5 -11.5q27 0 46.5 9t32 22.5t20 28.5t10.5 27q6 -33 24.5 -50.5
t38.5 -25.5q23 -10 51 -11q32 2 58 16q22 12 40 36.5t19 72.5q-1 -30 -13.5 -51.5t-27.5 -27t-27.5 9t-12.5 56.5zM367 108q-14 -58 -38 -80t-53 -22q-21 0 -40 11.5t-33 40t-22 76.5t-8 120t8 120t22 76.5t33 40.5t40 12q29 0 53 -34.5t38 -91.5v-269zM217 669
q18 0 31.5 -14.5t13.5 -31.5q0 -20 -13.5 -33t-31.5 -13q-19 0 -33.5 13t-14.5 33q0 17 14.5 31.5t33.5 14.5zM354 669q20 0 32.5 -14.5t12.5 -31.5q0 -20 -12.5 -33t-32.5 -13t-33.5 13t-13.5 33q0 17 13.5 31.5t33.5 14.5z" />
    <glyph glyph-name="adieresialternative" horiz-adv-x="610" 
d="M519 100q0 -42 12.5 -56.5t27.5 -9t27.5 27t13.5 51.5q-1 -48 -19 -72.5t-40 -36.5q-26 -14 -58 -16q-28 1 -51 11q-20 8 -38.5 25.5t-24.5 50.5q-3 -12 -10.5 -27t-20 -28.5t-32 -22.5t-46.5 -9q-45 0 -78.5 11.5t-58 30t-41 42.5t-26.5 49q-25 58 -25 133q1 74 23 133
q9 25 24 48.5t37.5 42.5t53.5 30.5t72 11.5q38 0 61 -13t36.5 -31t19.5 -36.5t9 -28.5l5 99h152l-5 -74v-336zM367 377q-14 57 -38 91.5t-53 34.5q-21 0 -40 -12t-33 -40.5t-22 -76.5t-8 -120t8 -120t22 -76.5t33 -40t40 -11.5q29 0 53 22t38 80v269zM284 735q32 0 55 -23
t23 -55t-23 -56t-55 -24q-17 0 -31.5 6.5t-25.5 17.5t-17 25.5t-6 30.5q0 32 23 55t57 23zM284 582q20 0 27 22t7 53t-7 52t-27 21q-21 0 -28.5 -21t-7.5 -52t7.5 -53t28.5 -22z" />
    <glyph glyph-name="Iacute" unicode="&#xcd;" horiz-adv-x="346" 
d="M238 635q1 18 7 32q5 12 17 22t35 10h-257q23 0 34.5 -10t17.5 -22q6 -14 8 -32v-571q-2 -18 -8 -32q-6 -12 -17.5 -22t-34.5 -10h257q-23 0 -35 10t-17 22q-6 14 -7 32v571zM227 911q13 13 32 13t33 -13q11 -13 12.5 -24.5t-1.5 -20.5q-4 -11 -11 -20q-3 -3 -18 -11.5
t-36 -20t-45 -24.5t-45 -24z" />
    <glyph glyph-name="alt.ampersand" unicode="&#xe001;" horiz-adv-x="869" 
d="M828 522q-1 -58 -20 -104q-9 -20 -22.5 -38.5t-33.5 -33t-48 -23.5t-65 -9q7 -6 17.5 -32.5t14 -62.5t-4 -76.5t-37.5 -74.5t-87 -56.5t-151 -22.5q-72 0 -135.5 13.5t-111.5 42t-76 72t-28 103.5q0 31 10 56.5t26.5 45.5t38 35t43.5 26q52 26 118 38q-36 8 -64 27
q-24 16 -44 45t-20 76q0 27 8 47t21.5 35t30 25t34.5 17q41 16 94 18q54 0 91 -10.5t60.5 -28t34 -39t10.5 -43.5q0 -15 -5 -31t-16 -29t-28 -21.5t-41 -8.5q-32 -1 -57 8q-22 8 -39.5 25t-17.5 50q0 20 13.5 36t33 23t42.5 3t43 -24q-14 2 -25 -2q-10 -3 -20 -11.5
t-15 -25.5q-3 -18 1 -33q3 -13 14 -23.5t35 -11.5q22 -1 36 6t22.5 18t12 25t3.5 28q0 19 -9.5 38.5t-26.5 34.5t-43 24.5t-59 9.5q-31 0 -53 -5.5t-36 -20t-20.5 -39.5t-6.5 -64q0 -55 15.5 -84t34.5 -42q22 -16 50 -17h27v-8h-27q-41 0 -73 -20q-14 -9 -26.5 -23t-23 -35
t-16.5 -50.5t-6 -69.5q0 -59 26.5 -101.5t67.5 -68t89.5 -34t93.5 0.5q21 5 43 12.5t41.5 18.5t35.5 27t26 37q16 34 16.5 75t-18 76t-57 60t-101.5 28q0 -1 -19 -3.5t-41.5 -13t-41.5 -31t-19 -56.5q0 -42 14.5 -62.5t32.5 -28.5q20 -10 47 -8q-21 9 -36 24.5t-12 44.5
q1 29 23 50.5t57 21.5q29 0 44.5 -11.5t23.5 -25.5q8 -17 9 -37q0 1 -1 -10.5t-10.5 -26.5t-30.5 -27.5t-60 -12.5q-41 5 -71 23q-13 8 -24 19.5t-18.5 28.5t-10 39.5t3.5 51.5q9 35 33 66q20 26 56.5 52t97.5 38l9.5 1.5t23 3t28.5 2.5t24 1h61q32 0 53 6.5t34 14.5
q15 9 23 21l2 2q5 8 8 19t3 25q0 42 -17 63t-37 31q-24 11 -53 11q21 -9 36 -26t13 -46q-2 -30 -24 -51.5t-56 -21.5q-30 0 -45.5 11.5t-22.5 25.5q-8 16 -9 37q0 -1 1 11t10 26.5t30 27t61 12.5q38 0 68 -14q13 -6 25 -16t22 -25.5t16 -36.5t6 -49z" />
    <glyph glyph-name="numbersign" unicode="#" horiz-adv-x="476" 
d="M304 338l-25 -88h162v-9h-165l-43 -159h-9l46 159h-87l-45 -159h-8l45 159h-169l3 8h171l24 89h-172l2 5h171l43 159h8l-43 -159h84l45 159h8l-44 -159h164v-5h-166zM210 338l-23 -89h83l26 89h-86z" />
    <glyph glyph-name="onehalf" unicode="&#xbd;" horiz-adv-x="571" 
d="M150 282v386q-15 -26 -35.5 -41t-39.5 -24q-22 -11 -45 -15v-9q14 0 22 -4.5t12 -9.5q4 -6 5 -14v-269q0 -11 -4 -19q-3 -7 -10 -12.5t-20 -5.5h149q-13 0 -20 5.5t-10 12.5q-4 8 -4 19zM539 141q-3 -20 -13 -33q-8 -11 -23.5 -18.5t-41.5 0.5q-15 5 -39.5 15t-50 10.5
t-49.5 -15.5t-39 -64q-2 15 0 33t12 36.5t28.5 36.5t48.5 34q13 7 29 16q14 8 32 17.5t39 20.5q9 4 19 11.5t18.5 18t14.5 24.5t6 32q0 21 -8.5 40t-25 33t-40 22.5t-52.5 8.5q-24 0 -48 -5.5t-42.5 -17.5t-30.5 -30t-12 -43q0 -20 14 -35.5t36 -15.5q21 0 36.5 15.5
t15.5 35.5q0 21 -15.5 36t-36.5 15q-12 0 -22 -5q-1 2 1 5q2 2 5.5 6t11.5 10q21 14 45.5 19t45.5 -3t35 -30t14 -61q-2 -22 -13 -45q-10 -20 -29.5 -43.5t-56.5 -44.5q-36 -20 -58 -47q-19 -23 -27 -58.5t15 -83.5h4q5 24 14 39q8 13 20.5 18.5t31.5 -8.5q28 -23 60 -37.5
t59.5 -9t45.5 38.5t18 106h-2zM66 -30h-8l361 721h7z" />
    <glyph glyph-name="acircumflex" unicode="&#xe2;" horiz-adv-x="560" 
d="M469 100v272q0 8 -0.5 22t-6 30.5t-18.5 33.5t-38.5 30.5t-65 22.5t-97.5 9q-30 0 -61.5 -9.5t-57 -26.5t-42 -39.5t-16.5 -49.5q0 -32 22.5 -54t52.5 -22q33 2 54.5 23t21.5 53q0 30 -22 53t-54 23q-20 0 -17 4.5t17 9.5t33.5 9.5t34.5 4.5q41 0 63 -15.5t31.5 -36.5
t11 -42t1.5 -33v-14q-1 -16 -12 -27q-9 -10 -28.5 -18t-56.5 -8q-54 0 -95 -17q-18 -7 -34.5 -19t-30 -29.5t-21.5 -42t-8 -56.5t8 -55t21.5 -40t30 -28t34.5 -17q41 -15 95 -13q24 0 42.5 10t31 23t19.5 25.5t9 17.5q8 -29 26.5 -44.5t37.5 -22.5q22 -9 47 -9q33 2 59 16
q22 12 40.5 38t18.5 74q0 -30 -12.5 -52t-28 -28t-28 8t-12.5 56zM316 84q-1 -11 -6.5 -24.5t-15 -25.5t-21 -20.5t-24.5 -8.5q-19 2 -34 20q-13 15 -23.5 46t-10.5 91q0 41 9.5 65t23.5 37.5t31 20t32 13t26 16.5t14 30zM168 576l113 122l112 -122l-112 57z" />
    <glyph glyph-name="F" unicode="F" horiz-adv-x="555" 
d="M515 699v-154q-2 38 -19 69q-14 26 -45 47.5t-88 21.5h-146v-313h52q36 0 55.5 14.5t28.5 31.5q11 20 12 47v-101v-100q-1 26 -12 46q-9 17 -29 31.5t-56 14.5h-51v-290q0 -18 7 -32q5 -12 17.5 -22t35.5 -10h-257q22 0 34.5 10t17.5 22q6 14 7 32v572q-1 17 -7 31
q-5 12 -17 22t-35 10h495z" />
    <glyph glyph-name="ff" unicode="&#xfb00;" horiz-adv-x="747" 
d="M542 778q44 0 80.5 -8t62.5 -25t40.5 -43.5t14.5 -64.5q-2 -23 -19.5 -44t-46.5 -21t-49 15.5t-20 53.5q0 23 14 39t43 16q25 0 29 10.5t-8 22.5t-36.5 22.5t-56.5 10.5q-26 0 -38.5 -20t-17.5 -44q-5 -28 -3 -64v-125h90v-17h-90v-418q0 -5 2 -17t8.5 -25t19.5 -23
t35 -10h-283q22 0 35 10t20 23t8.5 25t1.5 17v418h-53h-19h-71v-418q0 -5 2 -17t8.5 -25t19.5 -23t35 -10h-283q22 0 35 10t20 23t8.5 25t1.5 17v418h-72v17h72v125q-1 40 16 72q14 27 48 49.5t100 22.5q54 0 96 -12t68 -38q17 21 48.5 35.5t83.5 14.5zM378 634q0 8 1 18
q1 8 3 19.5t7 23.5q5 11 13 23q-11 14 -39.5 29t-68.5 15q-26 0 -38.5 -20t-17.5 -44q-5 -28 -3 -64v-125h71h19h53v125z" />
    <glyph glyph-name="ft" unicode="&#xe09d;" horiz-adv-x="647" 
d="M575 115v-3v3zM617 493h-122v-394q0 -42 12 -56t27 -8.5t27.5 27t13.5 50.5q-1 -47 -19 -72.5t-40 -36.5q-26 -14 -57 -15q-32 2 -58 14q-22 11 -39.5 33t-17.5 64l-1 394h-108v-418q0 -5 2 -17t8.5 -25t19.5 -23t35 -10h-283q22 0 35 10t20 23t8.5 25t1.5 17v418h-72v17
h72v125q-1 40 16 72q14 27 48 49.5t100 22.5q44 0 80.5 -8t62.5 -25t40.5 -43.5t14.5 -64.5q-2 -23 -19.5 -44t-46.5 -21t-49 15.5t-20 53.5q0 23 14 39t43 16q25 0 29 10.5t-8 22.5t-36.5 22.5t-56.5 10.5q-26 0 -38.5 -20t-17.5 -44q-5 -28 -3 -64v-125h109v47
q42 -9 70.5 5.5t46.5 34.5q21 24 34 58v-145h122v-17z" />
    <glyph glyph-name="fy" unicode="&#xe002;" horiz-adv-x="837" 
d="M827 511q-18 0 -32 -10t-24 -23t-16 -25.5t-8 -16.5l-223 -684q3 9 3 18v1q-1 -26 -19 -44t-44 -18t-44 18t-18 44t18 44.5t44 18.5q20 0 36 -11.5t23 -28.5l66 207h-80l-203 446q-6 12 -13 23q-6 9 -15 16.5t-20 7.5h-23v-418q0 -5 2 -17t8.5 -25t19.5 -23t35 -10h-283
q22 0 35 10t20 23t8.5 25t1.5 17v418h-72v17h72v125q-1 40 16 72q14 27 48 49.5t100 22.5q44 0 80.5 -8t62.5 -25t40.5 -43.5t14.5 -64.5q-2 -23 -19.5 -44t-46.5 -21t-49 15.5t-20 53.5q0 23 14 39t43 16q25 0 29 10.5t-8 22.5t-36.5 22.5t-56.5 10.5q-26 0 -38.5 -20
t-17.5 -44q-5 -28 -3 -64v-125h90h185q-25 0 -34 -10.5t-11 -22.5q-2 -15 5 -33l154 -336l104 326v1q4 20 -1 37q-5 14 -20.5 26t-50.5 12h171z" />
    <glyph glyph-name="ffi" unicode="&#xfb03;" horiz-adv-x="857" 
d="M782 76q1 -21 8 -38q6 -14 19 -26t38 -12h-263h-11q21 3 32.5 15t16.5 26q6 16 7 35v366q-1 14 -8 25q-6 10 -19.5 18t-37.5 8h-45v-418q0 -5 1.5 -16t7 -23.5t16.5 -22.5t29 -13h-10h-262q22 0 35 10t20 23t8.5 25t1.5 17v418h-131v-418q0 -5 2 -17t8.5 -25t19.5 -23
t35 -10h-283q22 0 35 10t20 23t8.5 25t1.5 17v418h-72v17h72v125q-1 40 16 72q14 27 48 49.5t100 22.5q55 0 97.5 -12.5t67.5 -39.5q23 21 59.5 36.5t96.5 15.5q44 0 80.5 -8t62.5 -25t40.5 -43.5t14.5 -64.5q-2 -23 -19.5 -44t-46.5 -21t-49 15.5t-20 53.5q0 23 14 39
t43 16q25 0 29 10.5t-8 22.5t-36.5 22.5t-56.5 10.5q-36 0 -55.5 -20t-28.5 -44q-11 -28 -12 -64v-125h44h46h173v-434zM366 635q1 12 5 26q4 12 11 26.5t20 29.5q-10 15 -39 30.5t-69 15.5q-26 0 -38.5 -20t-17.5 -44q-5 -28 -3 -64v-125h131v125z" />
    <glyph glyph-name="aogonek" unicode="&#x105;" horiz-adv-x="551" 
d="M395 -107q6 -23 18 -33.5t27.5 -11.5t32 5t31.5 14.5t26.5 18t16.5 15.5l3 -2q-23 -28 -57.5 -44t-69.5 -18.5t-63.5 9.5t-39.5 41q-7 20 1 36t24.5 28.5t37 21.5t38.5 15q-9 1 -23.5 4.5t-29.5 11.5t-28 22t-19 37q-2 -5 -9 -17.5t-19.5 -25.5t-31 -23t-42.5 -10
q-54 -2 -95 13q-18 6 -34.5 17t-30 28t-21.5 40t-8 55t8 56.5t21.5 42t30 29.5t34.5 19q41 17 95 17q37 0 56.5 8t28.5 18q11 11 12 27v14q0 12 -3 33.5t-15 43.5t-36 38t-65 16q-15 0 -32.5 -5t-29.5 -11t-13 -11t19 -5q32 0 54 -23t22 -53q0 -32 -21.5 -53t-54.5 -23
q-30 0 -52.5 22t-22.5 54q0 27 16.5 49.5t42 39.5t57 26.5t61.5 9.5q58 0 97.5 -9t65 -22.5t38.5 -30.5t18.5 -33.5t6 -30.5t0.5 -22v-272q0 -42 12.5 -56t27.5 -8t27.5 27t13.5 50q-1 -42 -16 -66.5t-34.5 -37t-38 -16.5t-25.5 -5q-21 -11 -30.5 -26.5t-11.5 -30.5
q-3 -18 1 -37zM317 343q-3 -20 -14 -30t-26 -16.5t-32 -13t-31 -20t-23.5 -37.5t-9.5 -65q0 -60 10.5 -91t23.5 -46q15 -18 34 -20q13 0 24.5 8.5t21 20.5t15 25.5t6.5 24.5z" />
    <glyph glyph-name="Aogonek" unicode="&#x104;" horiz-adv-x="757" 
d="M612 -89q5 -21 16 -30t24.5 -10t28.5 4.5t28.5 13t24 16t14.5 14.5l3 -2q-21 -25 -52 -39.5t-62 -16.5t-56.5 8.5t-35.5 36.5q-5 13 -2 23.5t11 19.5t20 16t26 13q31 13 74 21h18q-36 -3 -53 -17t-23 -30q-7 -18 -4 -41zM492 0q23 0 31.5 9.5t10.5 21.5q2 14 -4 32
l-76 193h-285l-74 -187q-3 -20 2 -35q5 -13 19.5 -23.5t46.5 -10.5h-158q18 0 32 11t24 25q11 16 19 36l244 628h105l251 -639q7 -18 18 -31q9 -11 22 -20.5t32 -9.5h-260zM448 273l-137 346l-136 -346h273z" />
    <glyph glyph-name="Eogonek" unicode="&#x118;" horiz-adv-x="555" 
d="M217 682v-313h52q36 0 55.5 14.5t28.5 31.5q11 20 13 47v-101v-100q-2 26 -13 46q-9 17 -29 31.5t-56 14.5h-51v-338h138q60 0 92.5 22.5t47.5 49.5q18 32 20 73v-161h-87q-27 -7 -39 -21t-17 -28q-5 -17 -3 -36q8 -32 28 -37.5t41.5 2t41 21.5t25.5 22l3 -2
q-20 -25 -51 -39.5t-62.5 -16.5t-57 8.5t-35.5 36.5q-8 21 3 36t30.5 26t41.5 18t37 10h-394q23 0 35 9.5t17 21.5q6 14 7 32v573q-1 17 -7 31q-5 12 -17 22t-35 10h495v-154q-2 38 -19 69q-14 26 -45 47.5t-88 21.5h-146z" />
    <glyph glyph-name="eogonek" unicode="&#x119;" horiz-adv-x="546" 
d="M183 261v-17t1.5 -40t6 -53t14 -55.5t24.5 -47.5t38 -29q43 -15 78 -5.5t61.5 31t42.5 48t20 46.5l-2 -11t-8.5 -27t-18.5 -34.5t-32.5 -35.5t-51 -29t-72.5 -14q-22 -8 -31.5 -22t-12.5 -27q-4 -16 -2 -32q8 -32 28 -37.5t41.5 2t41 21.5t25.5 22l3 -3q-20 -25 -51 -39
t-62.5 -16t-57 8.5t-35.5 36.5q-6 18 1.5 31.5t22.5 24t34 18t36 11.5q-46 0 -88.5 14t-75 46.5t-52 84.5t-19.5 128q0 55 17.5 102.5t48.5 82.5t74 55t94 20q45 0 80 -11t61.5 -29.5t45 -42t30.5 -47.5q29 -57 35 -129h-4h-133h-196zM281 502q-37 0 -57 -24.5t-29 -59
t-10.5 -72t-1.5 -64.5h195q0 27 -1.5 64.5t-10.5 72t-29 59t-56 24.5z" />
    <glyph glyph-name="twothirds" unicode="&#x2154;" horiz-adv-x="683" 
d="M544 234q42 -9 66 -23.5t35.5 -30.5t14.5 -30.5t3 -22.5q0 -33 -15.5 -57t-40.5 -40t-57 -23.5t-65 -7.5q-26 0 -48 7.5t-39 20.5t-26.5 31.5t-9.5 41.5q0 31 16 49t42 18t42.5 -14.5t16.5 -38.5q0 -23 -15 -40t-39 -17q-19 0 -37 12q11 -38 39 -52.5t56 -14.5q12 0 24 4
t20 12q15 14 20 43t5 58q0 61 -15 85.5t-57 24.5h-21v6q4 0 9 -0.5t11 -0.5q34 0 45.5 17.5t11.5 64.5q0 31 -3.5 50t-10.5 29.5t-16.5 14.5t-21.5 4q-17 0 -36.5 -7t-26.5 -31q8 5 20 5q7 0 16 -2.5t16.5 -8.5t12.5 -16t5 -25q0 -23 -13.5 -37.5t-36.5 -14.5
q-24 0 -38.5 17t-14.5 38q0 13 6 28.5t19 29t34.5 22t52.5 8.5q28 0 53 -6.5t43.5 -18.5t29 -29.5t10.5 -38.5t-10.5 -37.5t-25.5 -28t-30.5 -18.5t-25.5 -9zM537 695l-362 -725h-8l363 725h7zM294 356q0 -73 -18.5 -106t-46 -38.5t-59.5 9t-59 36.5q-20 15 -32.5 9.5
t-20.5 -18.5q-9 -15 -14 -38h-5q-23 48 -14.5 83.5t27.5 59.5q22 27 58 47q37 21 57.5 44.5t29.5 43.5q11 24 12 47q0 38 -14 59.5t-35.5 29.5t-46 3.5t-45.5 -19.5q-8 -6 -11.5 -10t-5.5 -6q-2 -3 -1 -5q9 5 22 5q22 0 37 -15t15 -36t-15 -36t-37 -15q-21 0 -36 15t-15 36
q0 6 1 12q1 5 2.5 12t6.5 15q11 20 38.5 38t84.5 18q61 0 95 -29.5t34 -71.5q0 -19 -6 -33.5t-15 -25.5t-19 -18.5t-19 -11.5q-22 -11 -40 -21t-32 -18q-16 -9 -29 -16q-30 -16 -48.5 -34t-28.5 -36t-12 -36t0 -34q15 48 38.5 64.5t49.5 16t50.5 -10.5t40.5 -15q26 -8 42 -1
t24 18q10 13 13 33h2z" />
    <glyph glyph-name="onefifth" horiz-adv-x="596" 
d="M398 262q63 0 97 -21t50 -47q18 -30 21 -67q-3 -38 -21 -67q-16 -26 -50 -46.5t-97 -20.5q-32 0 -58.5 9t-45.5 23.5t-29.5 33t-10.5 36.5q0 23 16.5 39.5t39.5 16.5t39 -16.5t16 -39.5t-16 -39t-39 -16q-14 0 -26 6q26 -29 56.5 -36.5t57.5 2.5q32 11 54.5 42t22.5 73
q0 45 -22.5 77t-54.5 41q-29 8 -59 -2t-57 -54h-5l39 235q33 -5 70 -8q32 -2 72 -1.5t85 8.5q2 -32 -22 -56q-10 -10 -27 -19t-42.5 -15t-61 -8t-83.5 2l-23 -125q6 9 14 19.5t21 19.5t32 15t47 6zM35 246q13 0 20.5 5.5t10.5 13.5q4 8 4 19v271q-1 8 -5 14q-4 5 -12 10
t-23 5v9q23 4 45 15q19 8 39.5 23.5t35.5 40.5v-388q0 -11 4 -19q3 -8 10 -13.5t21 -5.5h-150zM426 695l-362 -725h-7l362 725h7z" />
    <glyph glyph-name="oneeighth" unicode="&#x215b;" horiz-adv-x="606" 
d="M25 223q13 0 20.5 5.5t10.5 13.5q4 8 4 19v271q-1 8 -5 14q-4 5 -12 10t-23 5v9q23 4 45 15q19 8 39.5 23.5t35.5 40.5v-388q0 -11 4 -19q3 -8 10 -13.5t21 -5.5h-150zM416 672l-362 -725h-7l362 725h7zM472 208q31 -9 57 -25q21 -14 39 -36t18 -55q-3 -35 -21 -61
q-16 -23 -50.5 -42t-98.5 -19t-98 19t-50 42q-18 26 -21 61q0 33 17.5 55t39.5 36q25 16 57 25q-22 7 -40 20q-15 11 -27 29.5t-12 47.5q2 28 17 51q6 10 16 19t24 16.5t33 12t44 4.5t44 -4.5t33 -12t24 -16.5t16 -19q15 -23 17 -51q0 -29 -12.5 -47.5t-26.5 -29.5
q-18 -13 -39 -20zM357 305q0 -39 14 -65.5t45 -26.5q29 0 44.5 26.5t15.5 65.5q0 40 -15.5 66.5t-44.5 26.5q-31 0 -45 -26.5t-14 -66.5zM416 -17q30 0 46.5 17t24.5 37q9 24 10 55q-1 30 -10 55q-8 21 -24.5 38.5t-46.5 17.5q-31 0 -47 -17.5t-24 -38.5q-9 -25 -10 -55
q1 -31 10 -55q8 -20 24 -37t47 -17z" />
    <glyph glyph-name="threeeighths" unicode="&#x215c;" horiz-adv-x="703" 
d="M517 695l-362 -725h-7l362 725h7zM321 377q0 -33 -15.5 -57t-40.5 -39.5t-56.5 -23t-64.5 -7.5q-52 0 -88 27.5t-36 73.5q0 30 16.5 48t42.5 18t42 -14.5t16 -38.5q0 -22 -14.5 -39t-38.5 -17q-22 0 -37 12q11 -39 38.5 -53t55.5 -14q12 0 24 3.5t21 11.5q14 14 19 43
t5 58q0 61 -15 86t-56 25q-6 0 -11.5 -0.5t-10.5 -0.5v7q5 -1 9.5 -1.5t11.5 -0.5q33 0 44.5 17.5t11.5 64.5q0 31 -3.5 50.5t-10.5 30t-16 14.5t-21 4q-17 0 -36.5 -7.5t-27.5 -31.5q10 5 21 5q7 0 15.5 -2t16 -8t13 -16t5.5 -25q0 -24 -13.5 -38.5t-36.5 -14.5
q-24 0 -38.5 17t-14.5 39q0 13 5.5 28.5t18.5 28.5t34.5 22t52.5 9q29 0 54 -6.5t43.5 -19t29 -30t10.5 -38.5t-11 -37.5t-26 -28t-30.5 -18.5t-25.5 -9q42 -9 66 -23.5t35.5 -30.5t14.5 -30.5t3 -22.5zM569 230q31 -8 57 -24q21 -14 39 -36t18 -56q-3 -35 -21 -61
q-16 -23 -50.5 -42t-98.5 -19t-98 19t-50 42q-18 26 -21 61q0 34 17.5 56t39.5 36q25 16 57 24q-22 8 -40 21q-15 11 -27 29.5t-12 47.5q2 28 17 51q13 19 39.5 35t77.5 16t77.5 -16t39.5 -35q15 -23 17 -51q0 -29 -12.5 -47.5t-26.5 -29.5q-18 -13 -39 -21zM454 328
q0 -40 14 -66.5t45 -26.5q28 0 44 26.5t16 66.5q0 39 -16 65.5t-44 26.5q-31 0 -45 -26.5t-14 -65.5zM513 5q30 0 46.5 17t24.5 37q9 24 10 55q-1 30 -10 55q-8 21 -24.5 38.5t-46.5 17.5q-31 0 -47 -17.5t-24 -38.5q-9 -25 -10 -55q1 -31 10 -55q8 -20 24 -37t47 -17z" />
    <glyph glyph-name="fiveeighths" unicode="&#x215d;" horiz-adv-x="711" 
d="M332 388q-3 -38 -21 -68q-16 -26 -50 -46.5t-97 -20.5q-32 0 -58.5 9t-45.5 23.5t-29.5 33t-10.5 37.5q0 23 16.5 39t39.5 16t39 -16t16 -39t-16 -39.5t-39 -16.5q-8 0 -14 2t-12 5q26 -29 56.5 -36.5t57.5 2.5q32 11 54 42t22 73q0 45 -22 76.5t-54 41.5q-29 8 -59 -2.5
t-57 -54.5h-5l39 235q33 -5 70 -8q32 -2 72 -1.5t85 8.5q2 -32 -22 -56q-10 -10 -27 -19t-42.5 -15t-61 -8t-83.5 2l-23 -125q6 9 14 19.5t21 19.5t32 15t47 6q63 0 97 -21t50 -46q18 -30 21 -67zM525 695l-363 -725h-7l362 725h8zM577 231q31 -9 57 -25q21 -14 39 -36
t18 -56q-3 -35 -21 -61q-16 -23 -50.5 -42t-98.5 -19t-98 19t-50 42q-18 26 -21 61q0 34 17.5 56t39.5 36q25 16 57 25q-22 7 -39 20q-15 11 -27 29.5t-12 47.5q2 28 17 51q13 19 39.5 35t76.5 16q51 0 77.5 -16t39.5 -35q15 -23 17 -51q0 -29 -12.5 -47.5t-26.5 -29.5
q-18 -13 -39 -20zM462 328q0 -40 14 -66.5t45 -26.5q29 0 44.5 26.5t15.5 66.5q0 39 -15.5 65.5t-44.5 26.5q-31 0 -45 -26.5t-14 -65.5zM521 5q30 0 46.5 17t24.5 37q9 24 10 55q-1 30 -10 55q-8 21 -24.5 38.5t-46.5 17.5q-31 0 -47 -17.5t-24 -38.5q-9 -25 -10 -55
q1 -31 10 -55q8 -20 24 -37t47 -17z" />
    <glyph glyph-name="seveneighths" unicode="&#x215e;" horiz-adv-x="619" 
d="M221 492q-36 -34 -54.5 -76.5t-26.5 -80.5q-9 -45 -8 -90h-89q-9 38 5 82q6 18 17.5 39.5t31 45t48.5 48t70 49.5q24 15 37 31.5t19 33.5t6.5 33t-0.5 30q0 -31 -11.5 -48.5t-30 -25t-41 -6t-44.5 7.5q-46 16 -71 13.5t-37 -11.5q-14 -11 -17 -30q-1 -3 -1 -8v-3h-4
l7 123h3q-1 -7 0 -12q0 -5 1.5 -8.5t3.5 -3.5q19 25 41.5 32.5t44.5 5t41 -10t33 -11.5q26 -8 41.5 -3.5t23.5 12.5q10 10 13 25h5q9 -27 7 -58q-2 -26 -15 -59t-49 -66zM433 695l-363 -725h-7l362 725h8zM485 230q31 -8 57 -24q21 -14 39 -36t18 -56q-3 -35 -21 -61
q-16 -23 -50.5 -42t-97.5 -19q-64 0 -98.5 19t-50.5 42q-18 26 -21 61q0 34 17.5 56t39.5 36q25 16 57 24q-22 8 -39 21q-15 11 -27 29.5t-12 47.5q2 28 17 51q13 19 39.5 35t77.5 16t77.5 -16t39.5 -35q15 -23 17 -51q0 -29 -12.5 -47.5t-27.5 -29.5q-18 -13 -39 -21z
M370 328q0 -40 14.5 -66.5t45.5 -26.5q28 0 44 26.5t16 66.5q0 39 -16 65.5t-44 26.5q-31 0 -45.5 -26.5t-14.5 -65.5zM430 5q30 0 46.5 17t24.5 37q9 24 10 55q-1 30 -10 55q-8 21 -24.5 38.5t-46.5 17.5q-31 0 -47 -17.5t-24 -38.5q-9 -25 -10 -55q1 -31 10 -55
q8 -20 24 -37t47 -17z" />
    </font>
</defs>
</svg>
