<?xml version="1.0" standalone="no"?>
<!DOCTYPE svg PUBLIC "-//W3C//DTD SVG 1.1//EN" "http://www.w3.org/Graphics/SVG/1.1/DTD/svg11.dtd" >
<svg xmlns="http://www.w3.org/2000/svg" xmlns:xlink="http://www.w3.org/1999/xlink" version="1.1">
<metadata>
Created by FontForge 20170924 at Mon Apr 30 17:11:50 2007
 By www-data
(c) COPYRIGHT H. BERTHOLD AG 1992 Alle Rechte vorbehalten.
</metadata>
<defs>
<font id="TimesBQ-Italic" horiz-adv-x="271" >
  <font-face 
    font-family="Times BQ"
    font-weight="500"
    font-style="italic"
    font-stretch="normal"
    units-per-em="1000"
    panose-1="0 0 0 0 0 0 0 0 0 0"
    ascent="800"
    descent="-200"
    x-height="470"
    cap-height="704"
    bbox="-155 -262 1176 921"
    underline-thickness="50"
    underline-position="-100"
    slope="-16.1"
    stemh="43"
    stemv="89"
    unicode-range="U+0020-FB02"
  />
<missing-glyph 
 />
    <glyph glyph-name=".notdef" 
 />
    <glyph glyph-name="space" unicode=" " 
 />
    <glyph glyph-name="exclam" unicode="!" 
d="M118 65c5 30 31 51 62 51c34 0 62 -31 62 -66c0 -34 -29 -59 -61 -59c-41 0 -70 34 -63 74zM203 204c7 30 12 56 17 84c6 29 12 58 18 88c12 57 25 114 33 171c4 37 9 89 27 123c19 37 50 45 67 45c9 0 17 -3 19 -4c9 -5 30 -23 30 -56c0 -16 -5 -29 -17 -57
c-6 -14 -12 -29 -18 -43c-16 -39 -31 -77 -46 -115c-32 -78 -63 -153 -90 -235c-8 -25 -12 -34 -26 -34c-6 0 -17 2 -17 16c0 5 0 7 3 17z" />
    <glyph glyph-name="quotedbl" unicode="&#x22;" horiz-adv-x="396" 
d="M350 434h-23l-39 245s-3 21 0 32c6 25 29 38 53 38c20 0 42 -11 48 -31c3 -11 2 -17 2 -27zM162 434h-23l-39 245s-2 21 0 32c6 25 30 38 54 38c20 0 41 -11 47 -31c4 -11 3 -17 2 -27z" />
    <glyph glyph-name="numbersign" unicode="#" horiz-adv-x="667" 
d="M464 0h-79l33 229h-111l-33 -229h-81l35 229h-139v77h149l16 108h-142v77h152l31 214h80l-31 -214h110l32 214h78l-29 -214h138v-77h-149l-16 -108h140v-77h-151zM429 306l15 108h-111l-16 -108h112z" />
    <glyph glyph-name="dollar" unicode="$" horiz-adv-x="479" 
d="M126 205h15v-32c0 -13 -2 -76 44 -106c8 -6 17 -10 36 -17l84 299c-15 13 -30 25 -45 38c-19 18 -73 67 -73 149c0 19 3 38 10 56c23 54 74 92 130 105c23 5 37 6 80 4l10 39h48l-15 -49c49 -16 61 -22 101 -54l-36 -129h-17c-1 53 -4 74 -18 97c-11 19 -24 26 -43 37
l-64 -221c14 -13 29 -26 42 -40c23 -23 81 -80 81 -174c0 -23 -3 -41 -10 -63c-22 -64 -75 -113 -137 -134c-25 -8 -45 -12 -96 -14l-18 -58h-47l19 65c-42 9 -58 12 -124 47zM342 320l-78 -277c53 7 98 14 133 59c9 11 26 36 26 73c0 8 -2 29 -10 50c-14 40 -41 66 -71 95z
M335 450l59 202c-1 1 -17 5 -26 5c-18 0 -36 -9 -41 -11c-16 -9 -55 -36 -54 -91c0 -13 2 -28 7 -40c11 -29 31 -45 55 -65z" />
    <glyph glyph-name="percent" unicode="%" horiz-adv-x="792" 
d="M156 410c3 81 36 178 91 240c10 12 52 61 111 61c47 0 96 -36 96 -133c-1 -86 -38 -193 -91 -259c-42 -50 -78 -62 -108 -62c-41 0 -62 25 -71 37c-15 22 -30 57 -28 116zM215 377c-2 -25 0 -36 3 -47c2 -6 13 -37 38 -37c11 0 22 6 25 8c16 10 31 30 47 67
c9 20 26 66 42 125c16 58 21 92 21 119c0 43 -15 64 -36 64c-16 0 -28 -10 -38 -21c-17 -18 -37 -48 -58 -102c-18 -46 -39 -125 -44 -176zM710 703h62c-20 -26 -39 -52 -57 -78c-28 -40 -55 -80 -82 -120l-171 -243c-61 -87 -121 -174 -181 -261h-58zM537 148
c3 76 42 182 93 240c28 32 65 59 108 59c97 0 98 -117 98 -134c0 -38 -7 -93 -42 -172c-27 -61 -80 -149 -159 -149c-10 0 -31 1 -51 17c-25 20 -51 65 -47 139zM596 102c0 -4 -1 -20 3 -35c5 -20 18 -39 38 -39c7 0 15 3 17 4c18 7 32 25 50 63c4 7 71 157 71 259
c0 8 -1 18 -3 25c-7 28 -27 34 -37 34c-22 0 -50 -26 -72 -71c-30 -63 -64 -170 -67 -240z" />
    <glyph glyph-name="ampersand" unicode="&#x26;" horiz-adv-x="729" 
d="M542 356l3 13h201l-6 -18c-5 -1 -21 -4 -35 -11c-32 -16 -44 -40 -78 -95c-22 -35 -48 -70 -73 -105c6 -11 13 -23 20 -33c31 -46 57 -61 81 -60c30 0 54 17 76 35l19 -23c-42 -34 -99 -81 -156 -81c-9 0 -25 1 -45 11c-34 15 -53 41 -76 71c-11 -8 -23 -17 -35 -24
c-22 -15 -74 -46 -145 -46c-28 0 -57 5 -83 15c-66 28 -108 96 -108 170c0 31 9 98 71 154c37 33 87 58 181 99c-1 24 -2 48 -1 71c3 93 42 145 68 171c41 40 84 46 108 46c10 0 27 -1 49 -9c41 -17 70 -58 70 -102c0 -11 -2 -33 -16 -59c-27 -51 -73 -80 -172 -130
c5 -36 10 -54 19 -88c19 -64 23 -77 50 -139c32 51 49 83 49 113c0 29 -13 40 -36 54zM389 260l-25 113c-55 -29 -107 -58 -134 -116c-5 -11 -14 -30 -14 -59c0 -10 2 -31 12 -55c29 -70 95 -79 121 -79c41 0 67 15 100 36c-24 51 -34 68 -60 160zM453 463c12 7 25 14 37 21
c13 9 43 31 62 72c13 26 15 47 15 59c0 39 -21 55 -38 55c-13 0 -25 -7 -35 -17c-44 -42 -42 -133 -41 -190z" />
    <glyph glyph-name="quoteright" unicode="&#x2019;" horiz-adv-x="229" 
d="M224 463l-21 21c16 16 33 31 48 48c13 15 24 29 24 46c-1 19 -14 21 -25 34c-12 15 -14 32 -14 40c1 34 31 60 64 60c11 0 20 -3 29 -8c33 -18 38 -58 38 -68c0 -13 -3 -32 -20 -59c-29 -47 -77 -81 -123 -114z" />
    <glyph glyph-name="parenleft" unicode="(" horiz-adv-x="354" 
d="M537 763l10 -25c-23 -13 -45 -27 -65 -43c-71 -53 -116 -125 -130 -148c-67 -111 -114 -269 -114 -403c0 -24 1 -127 42 -206c11 -21 24 -39 38 -58l-21 -16c-46 54 -141 153 -141 339c0 64 12 195 104 332c14 21 50 74 105 121c52 44 113 76 172 107z" />
    <glyph glyph-name="parenright" unicode=")" horiz-adv-x="354" 
d="M218 748l20 15c48 -53 143 -153 143 -338c0 -128 -44 -249 -118 -350c-28 -39 -61 -77 -98 -108c-67 -57 -141 -89 -167 -102l-9 23c15 9 30 19 45 29c57 40 90 80 107 102c78 98 102 182 118 229c22 74 23 87 29 131c2 15 9 62 9 112c0 32 -1 114 -41 194
c-9 19 -16 31 -38 63z" />
    <glyph glyph-name="asterisk" unicode="*" horiz-adv-x="437" 
d="M438 639l-18 -30c-3 -5 -7 -10 -10 -15c-10 -14 -16 -23 -16 -30c1 -7 8 -9 10 -9s4 1 8 3c4 1 28 17 43 27c11 8 21 16 32 25c16 13 34 28 54 28c8 0 10 -1 14 -3c7 -2 20 -10 20 -29c-1 -5 -1 -15 -8 -25c-15 -20 -44 -24 -66 -29c-15 -3 -30 -7 -44 -10
c0 -1 -21 -4 -36 -10c-7 -3 -11 -7 -11 -13c0 -2 0 -6 4 -9c6 -5 40 -16 47 -18c9 -2 18 -3 27 -6c31 -11 40 -33 40 -47c0 -18 -19 -32 -37 -32c-4 0 -10 1 -20 4c-14 6 -25 17 -46 41c-10 11 -14 15 -24 25c-7 5 -14 12 -20 12c-5 0 -8 -6 -9 -8c-6 -18 -3 -30 -3 -61
c0 -6 0 -25 -5 -44c-3 -8 -16 -49 -53 -48c-10 0 -34 4 -34 34c0 20 13 33 24 49c8 11 14 21 21 31c8 13 19 27 19 41c0 5 -2 8 -6 8s-6 -1 -13 -4c-19 -9 -41 -26 -43 -27c-10 -8 -21 -15 -31 -24c-16 -13 -29 -27 -52 -27c-20 0 -33 12 -33 33c0 8 3 13 4 17
c5 10 15 17 19 19c13 8 46 19 83 26c22 4 31 3 42 7c7 3 17 11 17 18c0 3 -2 4 -5 6c-7 6 -32 15 -39 17c-15 4 -31 8 -46 14c-5 3 -29 13 -29 38c0 21 17 35 37 35c5 0 13 -1 24 -6c24 -12 40 -35 56 -53c11 -12 24 -23 30 -23c3 0 5 1 8 6c8 16 3 47 3 62
c0 45 13 67 27 79c10 8 20 13 32 13c19 0 33 -14 33 -33s-11 -31 -21 -45z" />
    <glyph glyph-name="plus" unicode="+" horiz-adv-x="667" 
d="M419 0h-80v251h-249v80h249v249h80v-249h252v-80h-252v-251z" />
    <glyph glyph-name="comma" unicode="," horiz-adv-x="229" 
d="M54 -134l-19 22c16 15 33 30 49 48c12 13 22 28 22 44c0 21 -15 24 -27 39c-5 6 -10 15 -10 34c0 37 26 62 62 62c39 0 66 -33 66 -70c0 -45 -39 -91 -44 -97c-28 -33 -63 -57 -99 -82z" />
    <glyph glyph-name="hyphen" unicode="-" horiz-adv-x="313" 
d="M119 301h245l-26 -86h-245z" />
    <glyph glyph-name="period" unicode="." horiz-adv-x="229" 
d="M83 70c6 27 36 47 64 47c5 0 12 0 22 -4c11 -5 37 -22 37 -59c0 -33 -28 -61 -63 -61c-12 0 -21 4 -25 6c-26 12 -42 45 -35 71z" />
    <glyph glyph-name="slash" unicode="/" horiz-adv-x="417" 
d="M525 702h62c-73 -102 -145 -204 -218 -306c-92 -132 -184 -263 -275 -394h-65c68 95 136 189 203 285c56 81 112 163 168 243c41 59 83 116 125 172z" />
    <glyph glyph-name="zero" unicode="0" horiz-adv-x="521" 
d="M114 218c1 35 6 94 33 176c44 132 103 211 146 252c42 40 95 69 151 69c12 0 40 -1 68 -17c43 -24 91 -86 91 -205c0 -24 -2 -63 -15 -118c-21 -89 -72 -206 -132 -276c-11 -13 -30 -34 -62 -59c-7 -5 -37 -27 -66 -39c-26 -10 -47 -11 -58 -11c-23 0 -64 4 -102 48
c-28 32 -55 85 -54 180zM209 160c-1 -30 2 -48 6 -61c8 -30 32 -64 62 -64c13 0 32 6 55 26c61 56 98 157 104 173c5 12 72 186 72 313c0 8 0 45 -10 72c-4 10 -19 50 -57 50c-28 0 -47 -18 -66 -37c-25 -28 -56 -69 -89 -145c-18 -40 -75 -181 -77 -327z" />
    <glyph glyph-name="one" unicode="1" horiz-adv-x="521" 
d="M293 642l8 22c94 10 121 17 209 48l-174 -601c-4 -14 -7 -26 -7 -41c0 -5 0 -21 10 -31c13 -13 33 -16 66 -18l-6 -21h-281l7 23c25 0 32 0 45 3c42 9 56 45 68 84l129 452c5 19 7 30 7 40c0 4 0 21 -11 30c-17 14 -50 11 -70 10z" />
    <glyph glyph-name="two" unicode="2" horiz-adv-x="521" 
d="M205 555l-20 16c13 18 26 35 40 52c16 17 86 92 177 92c33 0 58 -11 69 -16c55 -28 85 -90 85 -150c0 -28 -6 -49 -9 -59c-15 -49 -40 -82 -72 -121c-91 -99 -110 -116 -210 -204c-29 -25 -59 -51 -88 -77h174c2 0 30 0 46 2c39 6 52 25 74 57h29l-77 -147h-343
c-19 0 -41 1 -41 8c0 5 11 16 25 26l186 176l1 2c25 24 50 49 73 75c18 19 34 39 51 59c8 11 16 21 24 32c7 11 51 70 51 132c0 63 -48 110 -112 110c-30 0 -63 -12 -89 -28c-16 -10 -30 -24 -44 -37z" />
    <glyph glyph-name="three" unicode="3" horiz-adv-x="521" 
d="M250 588l-17 15c9 14 19 27 29 40c37 43 82 71 142 71c11 0 38 -1 66 -13c69 -30 78 -95 78 -122c0 -22 -6 -64 -44 -104c-30 -32 -62 -47 -100 -64c10 -5 19 -11 28 -18c22 -17 55 -59 55 -130c0 -32 -8 -101 -59 -169c-23 -31 -91 -108 -208 -108c-39 0 -86 6 -115 35
c-4 5 -16 18 -16 36c0 12 10 48 49 47c5 0 15 0 29 -5c22 -8 37 -24 57 -35c7 -4 29 -16 56 -16c9 0 26 2 45 14c27 19 71 71 71 154c0 9 -1 28 -7 50c-14 47 -52 85 -98 102c-34 12 -46 6 -64 9c-7 2 -18 7 -17 14c0 2 1 4 3 7c11 10 21 6 46 9c18 2 67 10 111 37
c13 7 82 49 82 121c-1 53 -37 85 -88 85c-49 0 -79 -28 -114 -62z" />
    <glyph glyph-name="four" unicode="4" horiz-adv-x="521" 
d="M101 244l433 472h58l-131 -456h85l-21 -79h-86l-55 -188h-95l55 188h-261zM169 259h196c12 40 23 79 34 119c10 36 20 72 31 108c11 34 25 67 37 101c-38 -46 -75 -91 -115 -135c-59 -66 -121 -130 -183 -193z" />
    <glyph glyph-name="five" unicode="5" horiz-adv-x="521" 
d="M197 427l125 276h258l-43 -93h-214l-38 -84c13 -1 52 -1 90 -16c86 -33 132 -118 132 -209c0 -86 -41 -168 -103 -227c-21 -21 -92 -86 -190 -86c-11 0 -67 0 -95 36c-7 10 -13 24 -13 37c0 16 12 51 54 51c15 0 39 -4 61 -31c9 -10 21 -28 54 -28c16 0 41 5 71 31
c22 20 70 74 70 159c0 29 -5 93 -64 143c-10 8 -33 26 -67 35c-24 6 -41 7 -88 6z" />
    <glyph glyph-name="six" unicode="6" horiz-adv-x="521" 
d="M619 716l4 -30c-47 -14 -80 -24 -121 -51c-16 -10 -83 -55 -133 -110c-19 -22 -37 -46 -54 -70c6 2 43 12 71 12c17 0 59 -3 99 -33c29 -21 65 -61 65 -142c0 -32 -6 -63 -15 -93c-32 -101 -121 -209 -235 -209c-25 0 -74 5 -118 54c-26 28 -57 77 -57 165
c0 52 12 151 88 263c65 96 159 172 264 212c50 20 87 25 142 32zM274 389c-14 -28 -66 -124 -66 -231c0 -18 -1 -76 45 -109c20 -14 37 -16 47 -16c25 0 64 15 95 65c44 70 52 171 52 192c0 11 -1 56 -22 88c-3 5 -10 14 -22 23c-8 6 -26 18 -54 18c-31 -1 -51 -13 -75 -30z
" />
    <glyph glyph-name="seven" unicode="7" horiz-adv-x="521" 
d="M260 703h380l-388 -687c-12 -23 -19 -35 -32 -35c-10 0 -17 6 -25 12c-11 8 -14 12 -14 18c0 9 8 20 16 36l312 554h-190c-13 0 -27 -1 -39 -3c-53 -9 -67 -39 -79 -59h-26z" />
    <glyph glyph-name="eight" unicode="8" horiz-adv-x="521" 
d="M313 382c-43 51 -81 99 -81 170c0 34 11 58 16 69c18 34 69 94 167 94c13 0 42 -1 74 -13c58 -22 101 -75 101 -141c0 -23 -4 -57 -39 -97c-32 -37 -70 -56 -112 -78c4 -3 25 -26 38 -43c15 -21 51 -76 51 -153c0 -27 -5 -83 -56 -135c-61 -63 -143 -67 -171 -67
c-36 0 -59 7 -73 12c-70 25 -121 89 -121 165c1 56 25 98 65 134c42 37 92 60 141 83zM337 351c-4 -1 -34 -15 -54 -30c-21 -15 -88 -75 -88 -164c0 -24 6 -43 9 -51c16 -45 61 -78 110 -78c8 0 27 1 48 10c51 21 85 70 85 124c0 30 -11 55 -16 65c-21 48 -58 87 -94 124z
M411 420c17 10 40 23 54 36c43 37 49 84 49 105c0 8 0 25 -8 44c-15 39 -49 67 -91 67c-7 0 -17 -1 -32 -6c-55 -20 -60 -72 -60 -91c0 -60 49 -112 88 -155z" />
    <glyph glyph-name="nine" unicode="9" horiz-adv-x="521" 
d="M95 -13l-4 26c14 5 28 9 42 14c48 18 84 41 126 73c64 50 93 86 142 149c-7 -2 -43 -11 -71 -11c-29 0 -50 7 -60 11c-44 16 -81 53 -96 98c-4 10 -10 33 -10 63c0 33 7 105 54 179c43 66 116 124 194 124c52 0 100 -24 133 -66c45 -58 45 -126 45 -148
c-1 -213 -170 -412 -359 -482c-61 -23 -110 -27 -136 -30zM440 318c17 33 66 116 67 229c-1 64 -23 91 -47 106c-7 5 -24 15 -47 15c-16 0 -49 -7 -77 -40c-41 -48 -69 -147 -69 -212c0 -9 1 -37 10 -64c20 -56 64 -66 88 -66c41 0 66 25 75 32z" />
    <glyph glyph-name="colon" unicode=":" 
d="M119 71c7 27 33 47 61 47c34 0 61 -32 61 -66c0 -33 -29 -60 -62 -60c-11 0 -21 4 -24 6c-26 13 -42 45 -36 73zM225 429c7 29 29 48 59 48c36 0 64 -28 64 -64c0 -33 -32 -61 -65 -61c-12 0 -19 3 -23 5c-29 13 -42 41 -35 72z" />
    <glyph glyph-name="semicolon" unicode=";" 
d="M97 -133l-21 24c24 19 29 24 48 47c11 13 23 28 23 45c0 3 0 6 -3 13c-5 10 -14 14 -22 23s-13 23 -13 35c1 10 4 20 5 22c10 26 32 41 58 41c5 0 18 -1 31 -8c11 -6 36 -26 36 -64c0 -27 -13 -51 -16 -58c-26 -47 -84 -89 -126 -120zM221 429c7 27 30 47 61 47
c13 0 21 -4 26 -6c21 -11 34 -35 34 -59c0 -34 -28 -60 -61 -60c-5 0 -17 1 -30 7c-26 14 -36 43 -30 71z" />
    <glyph glyph-name="less" unicode="&#x3c;" horiz-adv-x="667" 
d="M714 -3l-667 313v86l667 313v-86l-567 -270l567 -270v-86z" />
    <glyph glyph-name="equal" unicode="=" horiz-adv-x="667" 
d="M714 162h-667v78h667v-78zM714 342h-667v79h667v-79z" />
    <glyph glyph-name="greater" unicode="&#x3e;" horiz-adv-x="667" 
d="M47 -3v86l567 270l-567 270v86l667 -313v-86z" />
    <glyph glyph-name="question" unicode="?" horiz-adv-x="417" 
d="M166 64c6 32 32 52 63 52c36 0 64 -29 64 -64c0 -37 -26 -64 -63 -64c-7 0 -20 1 -34 9c-24 14 -35 40 -30 67zM239 213c12 54 32 112 110 202c36 41 48 53 63 78c23 40 28 82 28 99c0 6 0 18 -5 32c-12 35 -38 53 -72 53c-33 0 -44 -23 -44 -34c0 -10 7 -20 11 -31
c1 -5 3 -11 3 -21c0 -26 -19 -54 -45 -54c-18 0 -50 12 -50 58c0 10 1 29 12 50c26 47 80 71 133 71c83 0 154 -60 154 -148c-1 -85 -61 -126 -123 -175c-10 -8 -32 -25 -56 -50c-51 -54 -72 -111 -77 -136c-5 -17 -6 -33 -25 -33c-7 0 -20 3 -20 19c0 5 0 9 3 20z" />
    <glyph glyph-name="at" unicode="@" horiz-adv-x="896" 
d="M639 448l12 51h66l-33 -153c-9 -39 -17 -80 -25 -119c0 0 -10 -44 -10 -69c0 -6 -1 -36 28 -36c39 0 73 48 75 52c24 31 68 102 68 208c0 67 -18 129 -60 183c-28 34 -94 99 -210 99c-12 0 -46 -1 -81 -11c-94 -25 -167 -91 -212 -175c-55 -100 -62 -199 -62 -239
c0 -37 3 -134 76 -215c39 -42 115 -98 252 -98c54 0 170 8 280 99c13 12 27 25 39 38l30 -38c-17 -18 -40 -42 -88 -73c-48 -30 -133 -76 -271 -76c-106 0 -219 31 -297 108c-12 11 -36 37 -57 77c-17 32 -43 91 -43 182c0 32 3 94 32 171c65 170 216 298 403 298
c47 0 91 -8 134 -26c123 -53 188 -175 188 -305c0 -91 -34 -192 -101 -259c-10 -11 -56 -55 -113 -55c-55 1 -74 40 -79 59c-2 9 -3 14 -3 30c-5 -9 -9 -15 -22 -30c-27 -32 -68 -56 -111 -56c-12 0 -38 2 -65 20c-32 21 -68 67 -68 153c0 30 4 93 44 161
c35 61 101 123 177 123c17 0 61 -4 91 -45c8 -12 11 -21 16 -34zM612 404c-3 40 -26 79 -71 79c-14 0 -24 -5 -29 -7c-22 -9 -39 -24 -62 -64c-14 -25 -55 -105 -55 -196c0 -47 12 -69 32 -82c5 -3 18 -10 36 -10c36 0 77 29 108 98c20 46 44 132 41 182z" />
    <glyph glyph-name="A" unicode="A" horiz-adv-x="688" 
d="M620 716h24l-42 -594c-1 -24 -1 -44 1 -53c5 -33 29 -43 85 -46l-6 -22h-294l9 22c10 0 38 -3 62 15c28 21 32 57 35 90l5 104h-198l-81 -101c-23 -30 -39 -52 -39 -70c0 -5 1 -10 8 -19c13 -17 31 -21 50 -24l-7 -17h-230l6 18c60 15 73 23 114 71
c72 90 144 180 217 270c51 62 102 125 153 188c33 43 67 86 100 128zM336 277l167 1c3 36 6 73 9 111c3 27 5 56 8 84c3 19 6 38 9 56c-29 -42 -58 -84 -90 -125c-32 -43 -68 -85 -103 -127z" />
    <glyph glyph-name="B" unicode="B" horiz-adv-x="625" 
d="M215 684l9 24l46 -5c33 -2 66 -3 99 -3c36 -1 73 0 110 1c18 -1 36 -2 53 -4c23 -3 81 -10 124 -65c9 -12 31 -44 31 -90c0 -11 -1 -29 -11 -53c-16 -39 -52 -78 -90 -100c-14 -8 -29 -14 -60 -24c21 -11 32 -18 41 -25c20 -16 56 -57 56 -125c-1 -98 -73 -153 -98 -170
c-59 -39 -115 -44 -183 -48l-319 6l6 23c15 0 27 0 41 3c42 11 56 47 70 86l139 477c4 14 8 26 8 41c0 13 -4 21 -6 25c-13 19 -46 24 -66 26zM320 346l-86 -287c39 -11 50 -13 72 -13c38 0 70 11 81 15c98 36 118 118 118 160c0 81 -70 129 -142 128c-10 0 -22 -1 -43 -3z
M412 655l-77 -258c20 -2 40 -3 59 -3c12 0 36 -1 64 8c62 18 115 72 114 139c0 9 0 26 -8 46c-11 26 -40 71 -111 71c-13 0 -27 -1 -41 -3z" />
    <glyph glyph-name="C" unicode="C" horiz-adv-x="667" 
d="M801 711h26l-41 -217h-24c-1 21 -2 46 -8 66c-26 99 -122 103 -152 103c-78 0 -152 -37 -210 -89c-117 -108 -135 -249 -135 -304c0 -42 9 -72 14 -87c13 -39 58 -139 182 -139c14 0 45 2 81 14c68 24 108 64 157 117l28 -23c-22 -26 -38 -46 -63 -68
c-29 -26 -115 -94 -235 -94c-34 0 -125 6 -197 72c-60 55 -90 142 -90 226c0 85 33 242 213 357c100 63 176 71 228 71c22 0 66 -3 118 -18c33 -9 52 -18 68 -18c23 0 31 11 40 31z" />
    <glyph glyph-name="D" unicode="D" horiz-adv-x="729" 
d="M214 681l7 21h259c20 -2 39 -3 58 -6c26 -4 85 -13 143 -56c39 -30 106 -98 106 -228c0 -39 -5 -109 -54 -190c-23 -40 -90 -135 -213 -183c-61 -24 -113 -29 -180 -35c-37 -1 -75 -2 -113 -1c-25 0 -49 1 -74 1c-29 1 -58 0 -87 0l-45 -3l7 23c2 0 33 3 49 9
c37 12 49 46 61 81l141 480c1 2 9 27 9 44c0 33 -23 42 -74 43zM414 658l-162 -546c-1 -4 -9 -18 -9 -31c1 -16 11 -26 15 -28c3 -2 9 -4 17 -5c1 0 24 -2 39 -2c45 0 82 10 97 14c38 11 111 35 173 120c47 64 80 160 80 245c0 25 -3 46 -9 70c-10 36 -39 115 -134 148
c-37 12 -69 14 -107 15z" />
    <glyph glyph-name="E" unicode="E" horiz-adv-x="625" 
d="M214 681l7 23h494c11 0 16 -2 16 -12c0 -5 -3 -18 -6 -30l-32 -134h-21c0 40 -2 89 -40 112c-23 13 -47 14 -72 15c-34 1 -69 2 -102 1c-16 0 -32 -1 -47 -2l-79 -262c71 -1 115 -2 144 7c58 18 79 73 87 89h22l-76 -252l-22 1c4 15 7 29 7 44c0 8 -1 37 -23 52
c-26 17 -80 15 -153 12c-14 -45 -28 -91 -41 -137c-8 -28 -16 -57 -23 -86c-1 -2 -8 -20 -8 -34c0 -6 2 -28 19 -36c10 -5 35 -7 65 -7c13 0 40 0 73 4c25 3 123 14 185 80c20 21 34 47 47 73h23l-62 -164c-15 -41 -9 -39 -55 -39h-519l7 24c24 4 47 7 66 20
c33 23 44 74 46 80l136 468c1 4 8 24 8 43c0 4 0 18 -8 27c-14 18 -43 19 -63 20z" />
    <glyph glyph-name="F" unicode="F" horiz-adv-x="542" 
d="M215 685l5 19h489c18 0 20 -4 20 -11c0 -9 -4 -20 -8 -29l-31 -135h-18c0 13 0 26 -2 39c-5 46 -23 64 -41 74c-20 11 -44 12 -66 13h-151l-77 -263c31 0 62 0 94 1c5 0 28 0 47 5c44 13 66 50 87 90h20l-74 -253h-21c3 16 6 29 6 45c0 7 0 36 -20 50
c-14 10 -42 15 -80 15c-24 0 -49 -2 -73 -4l-67 -226c-2 -6 -9 -23 -9 -43c1 -44 27 -49 95 -49l-8 -23h-309l5 21c19 2 35 3 50 9c36 13 48 44 59 78c27 91 55 182 81 273c22 74 41 148 61 223c1 2 8 25 8 42c0 10 -3 16 -5 19c-9 13 -34 17 -67 20z" />
    <glyph glyph-name="G" unicode="G" horiz-adv-x="750" 
d="M802 703h24c-28 -94 -32 -115 -47 -211h-23c0 19 0 35 -5 53c-12 51 -50 95 -97 114c-12 5 -35 12 -69 12c-47 0 -132 -13 -212 -99c-38 -41 -118 -145 -118 -300c0 -27 1 -109 52 -172c37 -46 91 -67 150 -67c45 0 76 14 92 20l59 202c6 22 8 28 8 41c0 4 0 14 -5 22
c-10 17 -37 21 -78 18l6 25h287l-8 -20c-19 -3 -26 -4 -35 -8c-48 -17 -59 -67 -62 -80l-61 -207c-23 -16 -34 -20 -60 -29c-55 -21 -97 -30 -157 -30c-14 0 -51 1 -91 9c-67 16 -132 53 -171 109c-20 29 -50 85 -50 174c0 122 60 241 149 324c45 42 138 113 295 113
c47 0 91 -5 133 -25c18 -8 34 -16 53 -16c23 0 31 10 41 28z" />
    <glyph glyph-name="H" unicode="H" horiz-adv-x="750" 
d="M217 682l8 22h285l-8 -24c-17 -1 -33 -1 -48 -6c-29 -8 -41 -28 -59 -82l-58 -199h301l59 204c5 14 9 25 9 43c0 11 -2 20 -9 26c-14 15 -48 13 -67 13l8 24h288l-9 -24c-29 0 -39 -1 -52 -6c-27 -9 -40 -33 -57 -84l-138 -481c-5 -15 -9 -25 -9 -41c0 -35 20 -42 75 -45
l-8 -22h-286l6 22c4 0 33 0 50 6c36 11 47 48 58 81l70 243h-301l-71 -241c-1 -2 -9 -27 -9 -45c0 -3 0 -17 7 -26c14 -18 44 -18 69 -17l-8 -22h-288l6 22c25 2 58 3 75 19c13 11 23 36 36 73l140 484c1 3 9 24 9 42c0 32 -23 39 -74 41z" />
    <glyph glyph-name="I" unicode="I" horiz-adv-x="333" 
d="M217 681l8 23h287l-9 -24c-32 -2 -42 -3 -56 -10c-31 -13 -43 -51 -52 -81l-140 -480c-5 -14 -10 -28 -10 -45c0 -8 1 -23 18 -33s39 -10 58 -9l-8 -22h-289l7 23c76 4 86 17 109 87l143 488c1 4 9 24 9 41c0 33 -21 41 -75 42z" />
    <glyph glyph-name="J" unicode="J" horiz-adv-x="417" 
d="M298 678l7 25h306l-6 -23c-24 -1 -35 -2 -45 -6c-41 -13 -54 -50 -66 -89c-15 -47 -31 -95 -45 -143c-15 -55 -31 -109 -48 -163c-12 -40 -26 -79 -40 -118c-16 -37 -27 -58 -37 -73c-38 -58 -102 -99 -172 -99c-22 0 -35 3 -45 6c-45 14 -83 50 -83 101
c0 58 50 72 69 72c29 0 55 -27 55 -57c0 -8 -2 -15 -6 -23c0 0 -9 -16 -9 -26c1 -19 15 -33 34 -33c37 0 55 51 66 79c14 41 28 82 40 123c17 56 31 113 48 170c18 66 38 133 58 200c7 19 8 23 8 37c0 41 -29 42 -89 40z" />
    <glyph glyph-name="K" unicode="K" horiz-adv-x="688" 
d="M212 680l8 21h286l-9 -21c-35 -1 -51 -5 -66 -15c-24 -16 -34 -45 -43 -74l-59 -200l257 195c34 25 56 43 56 63c0 3 0 10 -5 16c-10 15 -29 15 -34 16l7 21h211l-10 -22c-18 -5 -27 -8 -35 -12c-34 -15 -61 -39 -121 -86c-39 -31 -79 -59 -118 -89
c-42 -31 -84 -63 -126 -94l191 -306c5 -7 14 -22 31 -38c26 -26 50 -29 84 -32l-7 -23h-298l8 23c11 0 17 0 27 2c7 2 35 11 35 38c0 20 -11 38 -20 54l-141 240l-71 -242c-7 -24 -9 -30 -9 -44c0 -5 1 -20 8 -29c14 -19 47 -18 69 -18l-7 -21h-288l7 21c3 0 30 0 46 4
c38 10 50 45 59 79l144 494c4 13 8 24 8 38c0 5 0 18 -10 27c-11 11 -32 13 -65 14z" />
    <glyph glyph-name="L" unicode="L" horiz-adv-x="604" 
d="M213 680l8 23h293l-9 -22c-17 -2 -34 -4 -48 -9c-30 -10 -44 -29 -62 -85c-22 -70 -45 -139 -65 -209c-25 -85 -49 -170 -73 -256c-1 -4 -8 -22 -8 -37c0 -4 0 -19 10 -28c4 -5 10 -6 13 -7c8 -2 34 -4 62 -4c25 0 51 1 77 5c26 3 122 17 184 89c16 20 26 40 37 63h23
l-59 -163c-17 -42 -8 -40 -56 -40h-516l5 23c19 0 34 1 51 7c35 13 44 40 56 75c19 59 38 119 56 180c30 103 58 207 85 312c1 2 8 21 8 37c0 11 -2 20 -8 28c-13 17 -44 18 -64 18z" />
    <glyph glyph-name="M" unicode="M" horiz-adv-x="938" 
d="M188 681l6 23h213l110 -547c68 93 135 187 203 279c66 90 133 178 200 267h196l-8 -22c-3 0 -31 -2 -48 -8c-36 -13 -50 -49 -61 -81c-27 -83 -53 -165 -78 -249c-22 -75 -43 -151 -64 -228c-1 -2 -9 -28 -9 -46c0 -5 0 -19 7 -29c13 -18 47 -18 67 -18l-8 -22h-288l8 23
c8 0 29 1 49 8c40 14 54 50 65 87c19 68 39 136 59 204c19 64 38 127 58 191l28 82l-415 -561c-11 -16 -25 -31 -33 -31c-10 0 -14 31 -15 39l-104 531l-10 -40l-123 -413c-7 -23 -8 -29 -8 -43c0 -10 1 -18 5 -27c12 -22 40 -25 63 -27l-7 -21h-223l8 21c19 3 30 6 38 10
c47 19 63 59 78 103c12 35 24 70 35 105c15 51 28 102 43 153c17 63 36 125 55 188c4 14 9 28 9 44c0 20 -8 37 -25 45c-19 8 -58 9 -76 10z" />
    <glyph glyph-name="N" unicode="N" horiz-adv-x="708" 
d="M195 679l6 24h177l232 -531c8 36 17 72 28 107c13 48 29 95 43 142c17 55 32 111 47 166c6 23 8 35 8 47c0 32 -18 43 -71 47l9 22h222l-8 -22c-20 -2 -27 -2 -37 -5c-43 -10 -56 -43 -70 -84c-25 -76 -49 -153 -73 -230c-33 -110 -64 -221 -95 -331c-1 -3 -2 -12 -5 -21
c-4 -9 -12 -19 -20 -19c-11 0 -21 14 -29 37l-235 524l-129 -434c0 -1 -10 -31 -10 -50c0 -39 39 -45 70 -47l-7 -20h-225l8 22c25 3 50 5 69 19c28 21 38 62 40 69l154 518c-2 3 -12 17 -22 27c-22 23 -44 23 -77 23z" />
    <glyph glyph-name="O" unicode="O" horiz-adv-x="729" 
d="M125 268c7 137 83 241 113 277c35 45 145 171 322 171c38 0 72 -6 106 -21c52 -24 137 -87 138 -234c0 -50 -9 -128 -69 -227c-18 -28 -42 -62 -64 -87c-31 -37 -137 -159 -300 -158c-20 0 -65 1 -112 23c-57 26 -142 100 -134 256zM244 222c-3 -50 3 -98 34 -140
c6 -9 20 -26 43 -38c22 -12 43 -12 52 -12c138 0 231 186 236 195c60 113 75 219 75 267c0 20 -2 105 -59 153c-9 8 -35 27 -70 27c-37 0 -81 -20 -110 -41c-24 -17 -60 -51 -98 -110c-22 -33 -97 -160 -103 -301z" />
    <glyph glyph-name="P" unicode="P" horiz-adv-x="583" 
d="M215 680l9 24c45 -2 90 -4 136 -4c34 0 68 1 102 1h27c16 0 32 -1 47 -3c22 -2 90 -9 135 -63c13 -15 35 -47 35 -97c0 -34 -10 -89 -71 -140c-58 -49 -134 -69 -210 -69c-26 0 -52 2 -104 9l-67 -228c-5 -15 -9 -25 -9 -42c1 -14 4 -22 7 -26c9 -15 30 -17 69 -20
l-8 -21h-288l6 22c20 1 39 2 55 8c27 11 39 32 57 87l138 481c0 3 9 23 9 40c-1 32 -23 41 -75 41zM412 657l-80 -276c5 0 36 -5 60 -5c13 0 46 1 80 16c63 26 114 91 114 161c0 13 -1 40 -26 67c-39 42 -93 40 -148 37z" />
    <glyph glyph-name="Q" unicode="Q" horiz-adv-x="729" 
d="M388 -10l-91 -71l44 -6l158 -34c10 -2 44 -10 78 -10c69 0 109 34 161 77l18 -17c-28 -31 -58 -64 -91 -87c-25 -18 -84 -52 -168 -52c-58 0 -106 13 -159 27c-62 15 -98 21 -128 21c-7 0 -18 0 -34 -3c-7 -1 -16 -3 -24 -3c-4 0 -17 1 -17 16c1 11 9 15 18 21
c6 4 10 8 15 12l151 115c-14 2 -29 4 -41 8c-18 6 -68 31 -105 80c-20 27 -48 81 -48 167c0 49 9 141 78 241c62 92 164 178 267 210c14 4 50 14 93 14c17 0 59 -1 103 -21c130 -57 138 -193 138 -236c0 -48 -10 -135 -74 -233c-53 -80 -143 -168 -230 -208
c-41 -18 -66 -22 -112 -28zM244 206c0 -47 8 -91 38 -128c13 -16 42 -46 95 -46c51 0 120 28 188 122c61 85 121 233 121 343c0 18 -1 107 -61 153c-20 16 -42 24 -68 24c-135 -1 -226 -172 -233 -185c-47 -84 -81 -185 -80 -283z" />
    <glyph glyph-name="R" unicode="R" horiz-adv-x="688" 
d="M219 685l5 23c46 -3 93 -7 139 -7c39 -1 77 0 116 1c10 0 45 -2 77 -9c17 -3 66 -14 102 -59c11 -14 31 -45 30 -94c0 -12 0 -34 -12 -62c-17 -43 -59 -83 -100 -105c-19 -9 -38 -17 -80 -28l114 -244c11 -22 17 -33 25 -42c18 -22 33 -30 81 -37l-6 -21h-173l-153 335
l-63 10l-66 -230c-4 -15 -9 -33 -9 -49c0 -4 0 -15 5 -23c12 -21 44 -22 70 -21l-6 -22h-290l7 19c20 2 39 4 55 11c29 11 39 32 58 88l136 480c1 2 9 25 9 42c0 3 0 15 -6 23c-10 12 -32 17 -65 21zM411 660l-82 -279c18 -2 35 -3 53 -3c22 0 66 2 112 34
c42 30 74 80 74 133c0 40 -19 79 -56 97c-24 12 -50 14 -101 18z" />
    <glyph glyph-name="S" unicode="S" horiz-adv-x="562" 
d="M121 261h20c0 -9 -2 -48 5 -80c17 -78 81 -142 163 -142c15 0 57 3 93 30c13 9 55 44 55 98c0 7 -1 20 -7 37c-12 35 -36 60 -61 86l-109 109c-6 7 -12 14 -18 22c-40 48 -44 90 -44 117c0 21 2 59 34 101c24 32 76 76 176 76c45 0 73 -8 91 -14c26 -9 50 -24 78 -24
c30 0 40 13 56 37h18l-49 -226h-21c0 16 4 71 -27 114c-39 57 -105 63 -127 63c-42 0 -83 -17 -107 -53c-4 -7 -15 -26 -15 -50c0 -40 22 -65 48 -92l107 -107c47 -52 87 -98 87 -169c0 -17 -2 -47 -20 -84c-20 -41 -82 -119 -207 -119c-24 0 -63 2 -115 21
c-28 11 -55 28 -84 28c-32 0 -47 -15 -65 -37h-17z" />
    <glyph glyph-name="T" unicode="T" horiz-adv-x="625" 
d="M181 516h-21l41 148c2 6 4 12 6 19c1 1 3 13 8 18c3 1 7 3 16 3h534c27 0 42 1 41 -15c0 -10 -5 -22 -8 -30l-41 -144h-26c4 16 7 31 7 47c0 28 -12 59 -34 74c-6 5 -17 11 -36 13c-26 4 -61 3 -115 1l-146 -509c-5 -17 -11 -35 -11 -53c1 -24 8 -42 28 -53
c14 -8 26 -11 58 -12l-7 -22h-322l7 22c8 0 54 -3 81 15c25 17 35 47 43 74c10 31 20 62 29 94c20 65 37 132 55 198c23 83 47 166 71 249c-18 0 -37 1 -55 0c-77 -1 -107 -13 -138 -38c-34 -29 -49 -61 -65 -99z" />
    <glyph glyph-name="U" unicode="U" horiz-adv-x="708" 
d="M200 681l8 24h291l-8 -23c-27 0 -38 -2 -51 -7c-35 -14 -46 -43 -59 -79l-97 -331c-2 -7 -11 -42 -11 -74c0 -10 0 -38 13 -63c23 -45 78 -71 130 -71c56 0 110 29 146 71c30 34 49 77 80 165l86 301c5 20 7 30 7 42c0 36 -18 41 -73 45l8 23h228l-10 -24
c-7 -1 -22 -2 -39 -7c-44 -13 -55 -45 -68 -87c-17 -54 -33 -109 -49 -163c-11 -37 -22 -75 -34 -112c-8 -26 -16 -53 -25 -80c-3 -8 -7 -17 -10 -25c-14 -34 -67 -159 -188 -203c-15 -6 -48 -16 -91 -16c-123 1 -184 66 -205 115c-14 32 -15 61 -15 75c0 19 2 36 10 74
c12 52 25 105 40 157c17 64 36 127 55 191c4 12 7 24 7 38c0 35 -20 46 -76 44z" />
    <glyph glyph-name="V" unicode="V" horiz-adv-x="667" 
d="M497 704l-9 -22c-11 0 -29 -2 -39 -4c-61 -18 -60 -86 -61 -100c-4 -79 -9 -159 -16 -238c-5 -56 -10 -112 -16 -167c32 46 64 91 98 136c36 47 74 93 111 139c32 40 64 81 96 123c23 29 38 54 38 73c0 9 -4 15 -6 17c-14 21 -45 22 -51 22l8 21h215l-8 -20
c-48 -18 -59 -26 -93 -66c-26 -31 -51 -62 -76 -92c-38 -47 -75 -94 -113 -141c-43 -55 -89 -108 -132 -163c-54 -70 -106 -141 -157 -212c-2 -4 -5 -10 -11 -18c-5 -6 -14 -13 -22 -13c-6 0 -13 6 -13 25c1 10 3 22 3 23c10 111 19 222 26 334c5 77 9 154 12 232
c1 6 1 11 2 17c0 4 1 28 -8 44c-11 20 -35 25 -80 28l8 22h294z" />
    <glyph glyph-name="W" unicode="W" horiz-adv-x="979" 
d="M494 703l-7 -18c-25 -2 -44 -4 -65 -20c-26 -21 -29 -53 -34 -88c-4 -51 -8 -103 -12 -155c-3 -44 -6 -89 -11 -133c-4 -38 -11 -77 -17 -115c37 55 73 109 110 164c49 71 100 142 151 213c2 23 4 46 4 71c0 29 -9 39 -21 46c-18 12 -42 15 -63 17l3 18h291l-7 -20
c-8 0 -39 1 -65 -18c-26 -21 -30 -54 -35 -88c-4 -73 -9 -145 -16 -216c-5 -47 -11 -93 -16 -140l-9 -54l53 82l253 335c13 16 29 37 29 59c0 5 -1 13 -9 21c-13 13 -31 17 -46 21l5 18h216l-7 -21c-10 -2 -23 -6 -32 -11c-28 -14 -57 -48 -79 -73
c-73 -92 -146 -185 -219 -277c-51 -65 -103 -130 -152 -196c-28 -38 -54 -77 -81 -116c-8 -15 -22 -33 -35 -33c-10 0 -11 17 -11 20c0 12 4 20 5 24c6 49 12 97 16 147c5 58 9 118 13 177l9 114c-70 -93 -139 -187 -207 -281c-40 -56 -79 -113 -119 -170
c-6 -11 -9 -15 -13 -20c-2 -2 -12 -12 -21 -12c-11 1 -12 20 -12 22c0 7 1 9 4 22c7 57 14 114 20 172c6 68 10 136 15 204c4 67 9 134 13 201c1 4 2 14 2 25c0 56 -41 60 -87 62l6 20h290z" />
    <glyph glyph-name="X" unicode="X" horiz-adv-x="646" 
d="M378 343l-62 248c-10 29 -23 67 -51 82c-14 8 -34 11 -38 12l6 19h274l-10 -23c-59 1 -76 -13 -76 -50c0 -12 1 -21 6 -41l41 -155l108 112c14 15 27 30 41 47c13 14 27 29 27 47c0 7 -2 12 -6 19c-8 14 -17 19 -45 26l6 18h223l-8 -24c-3 -1 -23 -7 -36 -13
c-31 -15 -62 -42 -88 -66l-211 -218l65 -260c9 -32 19 -66 49 -85c20 -12 36 -14 58 -15l-8 -22h-289c9 15 9 22 17 24c4 1 10 1 15 1c4 1 16 3 27 10c25 17 25 41 25 52c0 18 -4 30 -8 47l-40 154c-15 -12 -29 -25 -42 -39c-18 -18 -34 -37 -52 -55
c-26 -29 -54 -57 -83 -85c-12 -13 -33 -34 -33 -54c0 -6 2 -10 5 -14c7 -11 16 -16 40 -20l-7 -20h-221l8 21c69 20 84 30 137 79z" />
    <glyph glyph-name="Y" unicode="Y" horiz-adv-x="667" 
d="M519 703l-6 -18c-34 -1 -50 -6 -64 -15c-11 -7 -24 -19 -24 -49c0 -20 6 -39 11 -57l57 -178l153 200c13 15 29 35 29 59c0 25 -26 36 -68 41l4 17h254l-5 -19c-30 -5 -47 -10 -70 -28c-22 -18 -63 -62 -83 -82l-203 -248l-62 -214c-1 -3 -9 -22 -9 -40
c0 -41 25 -48 86 -54l-5 -18h-317l8 22c40 2 72 3 98 37c16 20 22 41 28 64l66 232l-86 240c-9 26 -16 40 -23 50c-23 34 -52 37 -93 41l5 17h319z" />
    <glyph glyph-name="Z" unicode="Z" horiz-adv-x="667" 
d="M630 658h-223c-56 -5 -108 -10 -151 -46c-28 -22 -39 -44 -55 -74h-25l38 124c12 43 11 43 57 43h520l11 -21l-582 -637h232c60 5 104 12 153 47c8 6 29 22 47 46c8 10 18 27 32 54h21l-43 -152c-12 -43 -12 -43 -58 -42h-547l-8 18z" />
    <glyph glyph-name="bracketleft" unicode="[" horiz-adv-x="354" 
d="M336 738h208l-11 -37h-126l-227 -785h125l-13 -35h-204z" />
    <glyph glyph-name="backslash" unicode="\" horiz-adv-x="354" 
d="M296 0l-223 706h80l223 -706h-80z" />
    <glyph glyph-name="bracketright" unicode="]" horiz-adv-x="354" 
d="M350 700h-123l11 37h205l-248 -856h-206l11 35l125 1c8 27 17 55 25 82c21 75 42 148 63 223c46 159 91 319 137 478z" />
    <glyph glyph-name="asciicircum" unicode="^" horiz-adv-x="729" 
d="M634 336h-97l-124 260l-128 -260h-96l188 370h77z" />
    <glyph glyph-name="underscore" unicode="_" horiz-adv-x="500" 
d="M557 -216h-520v79h520v-79z" />
    <glyph glyph-name="quoteleft" unicode="&#x2018;" horiz-adv-x="229" 
d="M343 715l22 -23c-20 -18 -39 -34 -55 -55c-13 -17 -19 -28 -19 -38c1 -17 16 -21 27 -34c5 -6 13 -18 13 -39c0 -8 -2 -16 -5 -23c-10 -23 -37 -36 -63 -36c-13 0 -22 3 -27 6c-22 11 -36 40 -36 67c1 15 4 35 22 63c30 48 76 80 121 112z" />
    <glyph glyph-name="a" unicode="a" horiz-adv-x="479" 
d="M448 417l18 54h74l-103 -347c-6 -21 -8 -33 -8 -45c0 -9 6 -23 17 -23c18 0 52 39 65 53l14 -16c-35 -39 -49 -54 -69 -72c-20 -17 -39 -34 -66 -34c-4 0 -17 1 -28 8c-21 14 -21 37 -21 47c0 34 18 78 20 82c-22 -25 -42 -50 -65 -73c-33 -33 -69 -61 -119 -61
c-20 0 -35 6 -41 9c-40 20 -56 76 -56 121c0 13 2 46 12 81c10 37 40 119 113 193c9 10 84 89 161 89c8 0 21 0 39 -8c27 -12 34 -30 43 -58zM175 157c-3 -28 -1 -54 20 -75c6 -6 17 -15 35 -15c24 1 62 18 98 62c45 55 95 161 96 234c0 15 -2 23 -3 29c-4 13 -15 45 -52 44
c-6 0 -20 -1 -35 -8c-27 -12 -49 -34 -67 -57c-45 -56 -86 -140 -92 -214z" />
    <glyph glyph-name="b" unicode="b" horiz-adv-x="500" 
d="M183 675l6 22c64 8 107 13 133 21c6 2 14 5 22 5c3 0 7 -2 7 -11c0 -8 -2 -18 -6 -32c-12 -45 -23 -90 -36 -135c-14 -50 -29 -99 -44 -149c8 8 16 16 24 23c13 11 68 65 134 65c13 0 39 -2 67 -20s59 -49 59 -125c0 -140 -95 -241 -125 -271c-26 -24 -88 -78 -184 -78
c-21 0 -81 3 -135 38c-11 7 -22 17 -31 25c15 48 30 95 44 144c18 60 34 122 52 182c21 75 43 149 65 224c2 4 8 19 8 36c0 35 -32 36 -60 36zM220 248l-59 -194c15 -14 31 -28 79 -28c27 0 64 5 111 49c87 81 102 186 102 228c0 49 -17 83 -29 95c-8 8 -24 20 -52 20
c-12 0 -30 -2 -54 -16c-53 -32 -78 -98 -98 -154z" />
    <glyph glyph-name="c" unicode="c" horiz-adv-x="396" 
d="M433 113l19 -21c-63 -53 -126 -105 -212 -105c-27 0 -44 5 -55 9c-39 13 -100 54 -100 158c0 49 15 128 88 217c56 67 127 112 215 112c8 0 23 0 41 -5c40 -11 76 -43 76 -87c0 -36 -25 -73 -63 -73c-11 0 -45 6 -45 42c0 18 9 30 12 34c6 9 20 23 20 34
c-1 9 -11 20 -33 20c-24 0 -70 -17 -111 -59c-51 -52 -101 -151 -101 -225c0 -22 5 -44 16 -63c27 -48 78 -52 96 -52c51 0 93 31 137 64z" />
    <glyph glyph-name="d" unicode="d" horiz-adv-x="500" 
d="M458 425l51 177c1 3 9 25 9 41c0 33 -31 36 -59 35l8 23c42 3 88 8 126 16c6 1 13 3 20 3c4 0 7 -2 7 -9c0 -5 -5 -32 -5 -34c-12 -47 -24 -94 -38 -140c-14 -48 -30 -95 -44 -143c-14 -46 -26 -92 -39 -137c-14 -48 -28 -96 -43 -145c-1 -3 -8 -18 -8 -32
c0 -4 1 -22 13 -22c8 0 17 7 19 8c7 4 26 23 46 44l12 -16c-23 -27 -40 -47 -66 -70c-19 -17 -41 -35 -68 -35c-3 0 -13 0 -21 4c-10 5 -28 20 -27 50c0 31 16 74 26 103c-31 -38 -66 -80 -103 -110c-11 -9 -57 -47 -111 -47c-7 0 -24 0 -40 9c-22 12 -50 44 -50 102
c0 13 1 38 9 70c26 119 100 201 131 231c10 10 85 83 161 83c3 0 19 -1 32 -5c28 -10 38 -27 52 -54zM171 155c-1 -9 -6 -48 21 -73c15 -13 29 -14 36 -14c28 0 66 22 107 70c76 91 98 176 98 223c0 43 -13 78 -60 78c-21 0 -35 -6 -65 -30c-29 -24 -63 -57 -99 -131
c-7 -16 -32 -66 -38 -123z" />
    <glyph glyph-name="e" unicode="e" horiz-adv-x="417" 
d="M422 120l20 -19c-13 -12 -25 -24 -38 -36c-23 -20 -86 -76 -180 -76c-12 0 -42 1 -71 16c-46 25 -70 79 -70 132c0 16 1 32 9 65c8 35 37 127 117 202c73 68 145 81 185 81c9 0 23 0 44 -6c37 -11 66 -41 66 -85c0 -17 -5 -46 -30 -77c-60 -73 -177 -92 -193 -94
c-30 -5 -45 -6 -99 -7c-5 -16 -7 -21 -7 -50c0 -31 4 -53 23 -75c13 -16 35 -34 83 -34c60 0 94 25 141 63zM190 244c37 0 69 1 103 13c89 32 121 108 120 143c0 39 -29 44 -43 44c-21 0 -52 -12 -87 -48c-62 -63 -81 -119 -93 -152z" />
    <glyph glyph-name="f" unicode="f" horiz-adv-x="250" 
d="M201 430h-82l14 40c5 0 42 -6 69 5c6 3 11 7 15 12c9 12 7 19 18 43c6 15 19 39 42 70c12 17 81 116 182 116c25 0 62 -8 78 -30c12 -14 13 -30 13 -36c0 -26 -21 -47 -47 -47c-19 0 -39 13 -39 33c1 8 5 15 5 23c0 7 -5 19 -23 19c-15 0 -34 -7 -57 -28
c-49 -47 -69 -116 -87 -179h74l-15 -39h-71l-106 -367c-6 -17 -12 -34 -19 -51c-9 -25 -40 -103 -99 -165c-12 -13 -58 -64 -122 -64c-14 0 -25 3 -30 5c-34 12 -43 38 -43 54c0 25 21 42 45 42c22 -1 34 -16 37 -22s4 -18 4 -19c1 -5 2 -16 16 -16c8 0 14 3 26 15
c26 24 37 40 58 101c12 36 23 72 34 108c19 63 36 127 55 190c18 63 36 125 55 187z" />
    <glyph glyph-name="g" unicode="g" horiz-adv-x="458" 
d="M428 448h141l-26 -67l-62 4c1 -8 4 -28 4 -49c0 -8 -1 -28 -9 -50c-20 -49 -71 -95 -119 -113c-28 -10 -51 -11 -81 -13c-38 -12 -68 -27 -68 -47c0 -21 22 -25 27 -27c43 -13 85 -18 128 -32c19 -7 88 -29 89 -106c0 -16 -5 -45 -30 -76c-32 -39 -93 -81 -207 -81
c-88 0 -147 32 -170 57c-6 7 -12 18 -16 27c-4 11 -5 25 -5 28c0 11 2 26 15 47c24 41 69 64 110 86c-12 14 -23 26 -23 44c0 12 4 23 11 33c21 29 64 42 93 50c-4 1 -35 11 -55 24c-37 25 -56 63 -56 108c1 55 33 97 44 110c57 67 136 78 168 78c51 0 80 -23 97 -35z
M180 18c-28 -15 -49 -28 -65 -59c-6 -11 -10 -25 -10 -37c0 -7 2 -22 13 -38c26 -38 77 -49 120 -49c10 0 61 1 97 23c32 19 41 48 41 63c0 8 -2 18 -14 32c-29 33 -76 36 -112 45c-23 5 -47 13 -70 20zM208 296c-3 -35 5 -72 31 -93c6 -5 19 -14 38 -14c16 0 45 8 71 40
c11 13 51 70 51 136c0 13 0 49 -31 73c-6 5 -17 14 -36 14c-28 -1 -53 -18 -72 -38c-13 -15 -48 -60 -52 -118z" />
    <glyph glyph-name="h" unicode="h" horiz-adv-x="521" 
d="M199 672l8 22c41 5 86 11 125 18c1 1 10 3 17 3c8 0 8 -9 8 -12c0 -10 -4 -22 -6 -31c-12 -43 -23 -86 -35 -127c-16 -52 -32 -103 -48 -155l-42 -147c43 65 85 128 141 180c47 44 79 61 108 61c40 0 51 -25 57 -40c2 -6 5 -20 5 -38c0 -13 -2 -31 -7 -61
c-9 -36 -18 -71 -28 -107c-11 -39 -22 -77 -34 -116c-3 -13 -10 -35 -10 -48c0 -14 9 -19 14 -19c20 1 55 43 67 57l13 -17c-25 -28 -55 -61 -84 -82c-2 -2 -31 -24 -54 -24c-9 0 -40 7 -40 41c0 12 2 25 7 48l71 266c3 14 6 26 6 40c0 20 -8 32 -28 32
c-10 0 -19 -3 -35 -15c-24 -18 -43 -38 -79 -84c-30 -37 -66 -86 -109 -181c-11 -24 -21 -48 -29 -73c-7 -21 -11 -42 -16 -63h-96c32 96 63 192 92 288c31 100 60 201 89 303c1 3 9 24 9 42c0 35 -30 38 -57 39z" />
    <glyph glyph-name="i" unicode="i" horiz-adv-x="250" 
d="M126 437l6 22c22 2 43 4 64 8c21 3 42 7 64 11c6 1 21 4 28 4c6 0 8 -2 8 -8c0 -5 -3 -17 -8 -31l-98 -337c-1 -6 -2 -11 -4 -17c-3 -9 -3 -9 -3 -16c0 -13 7 -16 10 -16c2 0 7 1 13 5c23 13 38 30 55 51l15 -18c-63 -65 -102 -102 -143 -102c-27 0 -43 23 -43 50
c0 19 7 37 9 43l76 268c4 14 9 29 9 45c0 13 -3 21 -12 28c-18 14 -41 10 -46 10zM230 644c7 23 33 40 57 40c31 0 55 -28 55 -59c-1 -30 -29 -54 -60 -54s-55 26 -55 57c0 3 0 9 3 16z" />
    <glyph glyph-name="j" unicode="j" horiz-adv-x="250" 
d="M126 439l8 22l102 13c13 2 25 3 37 7c9 2 18 6 27 6c7 0 8 -2 8 -9c0 -6 -3 -19 -8 -35l-123 -413c-22 -67 -36 -97 -54 -126c-53 -86 -120 -105 -163 -105c-12 0 -49 1 -69 31c-7 9 -10 20 -10 31c0 23 22 43 47 43c21 0 40 -13 40 -31c0 -8 -3 -18 -3 -25
c0 -11 10 -13 14 -13c16 1 31 17 39 26c33 43 50 97 55 111l112 379c0 3 9 29 9 49c0 3 0 10 -4 17c-9 20 -40 22 -64 22zM244 641c3 11 18 39 54 39c30 0 53 -24 53 -54s-23 -54 -55 -54c-11 0 -20 3 -23 5c-23 12 -36 40 -29 64z" />
    <glyph glyph-name="k" unicode="k" horiz-adv-x="521" 
d="M194 670l5 21c31 4 62 8 95 15c27 5 50 10 57 10c8 0 8 -8 8 -11c0 -10 -6 -35 -8 -41l-119 -414c29 19 59 39 87 59c30 22 58 45 87 69c23 18 39 32 39 45c0 2 -1 7 -4 12c-5 7 -12 12 -27 18l6 16h197l-7 -21c-81 -25 -100 -37 -168 -86l-88 -63l66 -177
c5 -15 14 -41 29 -54c4 -4 10 -9 22 -9c5 0 14 1 24 8c19 12 40 38 54 53l19 -17c-61 -66 -108 -114 -147 -114c-6 0 -17 1 -31 10c-24 15 -35 42 -45 70l-66 176l-60 -41l-62 -204h-93c29 91 59 182 86 273c33 107 64 214 95 322c1 3 9 22 9 39c0 26 -16 36 -60 36z" />
    <glyph glyph-name="l" unicode="l" horiz-adv-x="250" 
d="M199 676l7 21c26 3 53 6 81 10c16 2 33 5 47 7c8 1 14 3 18 3s9 -2 9 -11c-1 -11 -6 -29 -9 -36l-159 -555c0 -1 -8 -25 -8 -39c0 -15 14 -17 18 -17c6 0 11 2 22 13c15 14 28 28 40 42l13 -22c-21 -22 -41 -44 -64 -65c-20 -19 -40 -37 -70 -37c-34 0 -50 27 -50 60
c1 24 9 50 11 56l142 486c1 1 10 29 10 48c0 26 -17 34 -58 36z" />
    <glyph glyph-name="m" unicode="m" horiz-adv-x="792" 
d="M131 438l7 22c21 3 41 5 62 8c13 1 27 3 40 5c16 2 32 8 37 8c3 0 7 -1 7 -10c0 -11 -4 -25 -7 -33l-53 -202l67 105c17 23 35 46 54 67c8 9 65 74 133 74c3 0 17 0 28 -5c13 -6 37 -24 37 -61c0 -29 -17 -89 -37 -158c48 76 71 110 102 144c35 40 81 80 136 80
c10 -1 21 -2 30 -7c25 -11 35 -34 35 -62c0 -23 -7 -49 -8 -55c-8 -32 -15 -64 -24 -96c-14 -48 -30 -96 -46 -144c-5 -18 -9 -36 -9 -43c0 -8 5 -16 13 -16c6 0 15 5 16 5c21 13 35 29 53 50l14 -18c-27 -31 -49 -57 -81 -80c-2 -2 -38 -28 -63 -28c-11 0 -16 3 -21 5
c-14 8 -18 22 -18 38c0 13 4 32 10 59l71 249c3 13 9 35 9 50c0 25 -19 30 -29 30c-6 0 -15 -3 -27 -12c-26 -17 -53 -46 -94 -99c-101 -133 -126 -237 -146 -307h-91c20 51 39 101 56 152c21 62 38 126 56 190c1 4 9 26 9 46c0 10 -2 31 -30 31c-6 0 -14 -2 -19 -5
c-16 -8 -37 -26 -49 -38c-15 -16 -54 -61 -88 -114c-77 -117 -98 -205 -113 -262h-92c43 116 58 151 111 352c1 6 8 24 8 46c0 10 -2 16 -4 20c-12 23 -48 19 -52 19z" />
    <glyph glyph-name="n" unicode="n" horiz-adv-x="521" 
d="M129 438l7 20c35 4 69 9 101 14c17 3 34 8 39 8c4 0 8 -2 7 -14c0 -11 -3 -20 -6 -28l-52 -195c40 62 78 121 134 173c7 7 46 43 83 58c13 5 22 7 36 7c27 0 61 -10 61 -71c0 -28 -8 -62 -14 -88l-57 -201c-7 -21 -8 -26 -8 -39c0 -5 0 -25 14 -25c18 0 40 23 68 55
l13 -16c-26 -31 -49 -59 -80 -82c-2 -2 -33 -26 -59 -26c-2 0 -11 0 -18 5c-13 7 -22 21 -22 51c0 14 2 28 9 56l66 243c6 21 8 30 8 42c0 24 -18 32 -27 32c-3 0 -5 0 -11 -3c-14 -6 -43 -28 -71 -58c-23 -25 -116 -132 -160 -251c-11 -30 -16 -49 -29 -105h-92
c21 56 41 111 59 168c19 61 35 123 52 185c0 3 7 28 7 46c0 10 -2 16 -4 20c-12 23 -50 19 -54 19z" />
    <glyph glyph-name="o" unicode="o" horiz-adv-x="479" 
d="M86 163c1 34 11 100 59 173c79 118 179 148 236 148c17 0 58 -2 97 -34c23 -19 51 -52 51 -123c0 -84 -41 -177 -96 -241c-72 -84 -151 -97 -194 -97c-67 0 -100 30 -117 51c-18 22 -39 58 -36 123zM177 128c-1 -22 2 -34 4 -44c4 -13 21 -58 68 -58c37 0 76 23 117 91
c37 59 70 156 70 227c0 48 -14 101 -68 101c-18 0 -46 -7 -76 -37c-16 -15 -41 -48 -64 -96c-8 -15 -49 -105 -51 -184z" />
    <glyph glyph-name="p" unicode="p" horiz-adv-x="458" 
d="M119 438l8 23c34 4 67 7 100 13c20 3 40 9 46 9c3 0 6 -1 6 -7c0 -7 -12 -54 -21 -86c15 19 20 25 29 34c20 19 62 46 88 53c5 2 17 5 31 5c17 0 32 -4 37 -6c70 -26 71 -118 71 -134c-1 -88 -51 -172 -64 -191c-52 -79 -141 -153 -239 -152c-22 0 -38 4 -59 8
c-8 -24 -16 -49 -23 -73c-5 -22 -8 -36 -8 -46c0 -5 0 -15 10 -25c18 -17 41 -16 64 -14l-7 -23h-236l7 19c16 3 28 7 33 9c36 15 46 44 57 78l123 423c0 2 9 29 9 47c0 6 -1 17 -12 25c-11 9 -24 11 -50 11zM175 84c-2 -11 -1 -17 -1 -22c2 -12 10 -29 39 -29
c47 1 92 40 120 72c72 84 87 183 87 219c0 44 -21 89 -68 89c-9 0 -26 -2 -44 -14c-41 -28 -64 -83 -80 -128c-14 -40 -46 -147 -53 -187z" />
    <glyph glyph-name="q" unicode="q" horiz-adv-x="479" 
d="M450 438l13 37l88 8l-163 -551c-7 -22 -9 -31 -9 -45c0 -25 15 -35 54 -43l-6 -18h-231l7 21c20 3 38 5 54 13c32 15 43 48 52 78l49 173c-11 -15 -21 -29 -33 -42c-11 -12 -71 -77 -147 -77c-7 0 -27 1 -45 11c-38 22 -54 76 -54 119c0 28 7 54 9 63
c10 39 43 131 119 209c9 10 84 89 164 89c50 0 67 -28 79 -45zM172 151c-1 -13 0 -29 3 -41c4 -11 22 -46 62 -46c21 0 44 10 61 23c25 19 68 67 98 140c3 7 32 81 32 134c0 8 0 45 -23 66c-5 4 -16 12 -32 12s-42 -8 -71 -33c-65 -56 -125 -170 -130 -255z" />
    <glyph glyph-name="r" unicode="r" horiz-adv-x="354" 
d="M131 438l8 20c28 3 55 6 85 12c8 1 53 10 59 10c3 0 7 -1 7 -7c0 -5 -4 -19 -8 -32l-51 -177c46 86 69 122 100 156c36 40 68 54 92 54c15 0 43 -8 43 -45c0 -10 -3 -54 -33 -73c-4 -3 -14 -8 -27 -8c-8 0 -15 2 -20 7c-9 10 -11 28 -26 28c-9 0 -19 -12 -32 -26
c-53 -58 -80 -111 -110 -182c-13 -31 -25 -62 -34 -93c-8 -28 -14 -55 -19 -82h-93c17 53 34 105 50 157c20 64 38 128 56 191c1 3 9 27 9 46c0 34 -25 40 -56 44z" />
    <glyph glyph-name="s" unicode="s" horiz-adv-x="354" 
d="M70 165h24c0 -17 0 -30 4 -46c11 -44 49 -88 94 -88c4 0 14 0 25 4c31 10 53 36 53 69c0 40 -27 72 -49 104c-50 72 -69 109 -69 153c1 73 52 121 122 121c27 0 45 -7 55 -12c17 -7 32 -18 47 -18s29 8 43 16h13l-39 -161l-20 1c0 24 -1 44 -9 67c-12 33 -40 66 -78 66
c-44 0 -49 -46 -49 -57c0 -36 26 -69 45 -96c50 -71 72 -112 71 -155c0 -20 -4 -61 -40 -98c-20 -20 -52 -46 -115 -46c-10 0 -33 1 -57 10c-20 8 -36 21 -58 21c-13 0 -19 -3 -37 -18h-15z" />
    <glyph glyph-name="t" unicode="t" 
d="M200 432h-65l11 29c82 37 99 52 156 125h31l-34 -115h62l-11 -39h-64l-91 -314c-4 -11 -7 -22 -7 -34c0 -5 0 -23 17 -23c8 0 17 4 19 6c11 6 37 33 47 42l13 -14c-6 -8 -38 -49 -70 -75c-19 -15 -43 -30 -71 -30c-31 0 -50 32 -50 61c0 18 6 36 11 53z" />
    <glyph glyph-name="u" unicode="u" horiz-adv-x="500" 
d="M488 471h80l-15 -41l-94 -313c-2 -8 -9 -35 -9 -45c0 -14 10 -18 14 -18c16 1 39 23 67 54l14 -16c-32 -36 -87 -102 -141 -102c-26 0 -43 19 -43 45c1 12 7 36 15 64l37 118c-13 -20 -26 -40 -39 -59c-44 -63 -77 -94 -104 -116c-47 -38 -74 -52 -103 -52
c-42 0 -65 30 -65 70c0 18 6 41 11 59l68 234c5 13 9 24 9 40c0 4 0 22 -13 22c-17 -1 -40 -25 -68 -55l-16 18c16 17 33 34 50 49c39 35 66 49 91 49c27 0 45 -21 45 -47c0 -20 -8 -44 -9 -47l-75 -256c-2 -5 -9 -24 -9 -43c0 -24 17 -29 27 -29c11 0 21 6 40 21
c25 20 46 40 67 63c31 35 96 114 137 228c13 34 22 70 31 105z" />
    <glyph glyph-name="v" unicode="v" horiz-adv-x="396" 
d="M244 104l84 108c23 32 45 62 60 98c11 24 16 48 16 59c0 14 -8 13 -20 20c-6 4 -31 22 -31 51c0 27 20 46 46 46c6 0 18 -2 30 -10c13 -10 28 -27 28 -65c-1 -56 -31 -105 -60 -153c-21 -29 -41 -59 -63 -88c-46 -64 -99 -124 -151 -184h-20c1 42 3 84 3 126
c0 65 -5 129 -11 193c-9 60 -14 100 -35 120c-11 10 -21 10 -36 10v23c26 5 52 9 75 14c15 4 33 9 38 9s7 -1 9 -4c8 -9 15 -44 21 -79c5 -48 10 -96 13 -145c2 -49 3 -99 4 -149z" />
    <glyph glyph-name="w" unicode="w" horiz-adv-x="646" 
d="M442 486h24l21 -180c6 -61 12 -122 17 -182c77 95 119 152 137 205c6 17 9 32 9 39c0 12 -3 14 -21 25c-4 2 -8 4 -15 11c-9 10 -15 24 -15 38c0 3 1 13 5 21c3 8 17 26 42 26c15 -1 26 -8 30 -11c13 -9 27 -28 27 -65c0 -57 -29 -104 -58 -152c-20 -31 -40 -62 -62 -92
c-17 -24 -36 -48 -54 -72c-28 -35 -55 -71 -82 -107h-21c-5 77 -9 153 -16 228c-3 41 -8 82 -12 122c-36 -68 -73 -135 -112 -200c-31 -51 -64 -100 -96 -149h-20c3 152 3 191 -12 339c-3 18 -7 36 -11 53c-3 18 -8 35 -23 47c-10 8 -21 11 -34 13v17c24 4 75 12 95 18
c6 2 13 4 19 4h4c6 -2 8 -8 12 -22c4 -15 7 -29 12 -62c14 -114 16 -137 17 -253c30 50 60 100 89 150c36 63 70 127 104 191z" />
    <glyph glyph-name="x" unicode="x" horiz-adv-x="479" 
d="M108 424l-5 19c24 5 47 11 71 18c29 8 38 11 52 11c8 0 21 -1 36 -14c24 -22 43 -65 73 -134c19 23 37 46 56 68c11 13 23 27 35 39c21 22 54 50 85 50c29 0 56 -23 56 -55c-1 -29 -27 -52 -55 -52c-9 0 -14 2 -21 5c-10 6 -18 13 -30 13c-16 0 -27 -13 -38 -23
c-29 -26 -37 -33 -76 -83l48 -166c4 -19 9 -39 25 -51c5 -4 11 -7 17 -7c5 0 13 1 21 8c8 6 27 31 46 55l16 -14c-8 -12 -32 -48 -64 -83c-18 -20 -39 -38 -64 -38c-13 0 -21 4 -26 7c-19 11 -25 29 -37 67l-43 138l-73 -108c-17 -21 -34 -43 -54 -62
c-21 -21 -49 -43 -82 -43c-30 0 -56 24 -56 55c0 26 24 47 48 47c6 0 15 -1 27 -9c11 -7 19 -15 30 -15c32 0 72 61 87 81c9 12 18 23 26 35c13 18 25 38 36 58c-17 46 -39 104 -61 144c-9 16 -26 43 -70 43c-9 0 -17 -1 -36 -4z" />
    <glyph glyph-name="y" unicode="y" horiz-adv-x="417" 
d="M86 439v19c17 3 35 6 51 9c12 2 23 4 34 6c17 3 27 9 35 9c14 -1 18 -25 23 -53c4 -25 9 -50 12 -76c9 -64 11 -139 11 -278c23 29 47 58 69 87c21 29 40 59 60 89c11 20 23 39 33 60c15 27 19 38 19 54c0 19 -10 17 -24 27c-6 4 -28 21 -28 48c0 28 20 46 47 46
c8 0 20 -2 34 -14c23 -20 24 -47 24 -56c0 -60 -41 -125 -71 -175c-19 -26 -37 -53 -56 -79c-63 -88 -121 -151 -195 -231c-15 -14 -30 -28 -45 -43c-45 -41 -75 -62 -104 -62c-4 0 -13 1 -24 5c-8 4 -30 16 -30 45c0 28 24 51 50 51c13 0 22 -7 26 -10c11 -8 20 -17 32 -17
c3 0 11 2 18 6c8 5 34 28 40 34c16 15 32 32 48 49c2 194 -4 234 -16 344c-9 51 -14 80 -36 96c-13 10 -32 10 -37 10z" />
    <glyph glyph-name="z" unicode="z" horiz-adv-x="396" 
d="M382 388h-134c-70 0 -74 -10 -111 -65h-23l56 147h318l6 -21l-350 -362h154c60 1 72 7 104 58h27l-67 -144h-326l-9 17z" />
    <glyph glyph-name="braceleft" unicode="{" horiz-adv-x="354" 
d="M187 414v168c1 21 -3 123 87 154c25 10 48 9 99 12l-1 -6c-9 -3 -19 -5 -28 -9c-44 -15 -58 -46 -63 -64c-9 -25 -8 -44 -8 -94v-98c-1 -92 2 -142 -22 -182c-20 -34 -53 -42 -65 -46c16 -6 53 -17 72 -60c17 -36 15 -77 15 -157v-110c1 -60 2 -84 18 -113
c19 -34 46 -42 82 -53l-1 -6c-13 1 -26 1 -39 2c-19 1 -95 1 -128 68c-19 39 -17 84 -18 125v129c0 15 1 29 0 43c0 12 4 89 -50 121c-6 3 -9 5 -21 9v6c23 5 33 13 41 21c33 33 29 100 30 140z" />
    <glyph glyph-name="bar" unicode="|" horiz-adv-x="229" 
d="M202 -250h-80v998h80v-998z" />
    <glyph glyph-name="braceright" unicode="}" horiz-adv-x="354" 
d="M262 83v-125c0 -18 0 -36 -1 -53c-1 -19 -1 -102 -71 -138c-31 -15 -53 -14 -114 -17v6c21 5 78 15 94 81c5 21 5 42 6 86v98c1 91 -2 142 21 182c20 33 53 42 66 46c-9 3 -33 10 -53 29c-37 39 -34 89 -35 187v110c0 40 2 83 -21 119c-20 31 -45 38 -78 48v6
c11 -1 23 -2 34 -2c14 -1 65 0 103 -31c50 -39 47 -108 48 -163v-129c0 -22 -1 -45 1 -67c2 -36 13 -71 44 -93c8 -5 12 -7 26 -12v-6c-8 -2 -23 -6 -39 -20c-35 -33 -31 -102 -31 -142z" />
    <glyph glyph-name="asciitilde" unicode="~" horiz-adv-x="729" 
d="M416 246l-30 15c-5 2 -47 24 -80 24c-4 0 -17 -1 -28 -5c-28 -10 -50 -41 -67 -62l-40 72c12 17 55 84 133 84c31 -1 56 -8 111 -34l33 -15c22 -10 44 -21 70 -21c42 0 73 34 96 62l38 -72c-11 -12 -62 -79 -137 -79c-29 1 -50 8 -99 31z" />
    <glyph glyph-name="exclamdown" unicode="&#xa1;" 
d="M274 510l-6 -24c-3 -17 -6 -34 -9 -52c-9 -40 -18 -83 -26 -123c-7 -34 -14 -68 -20 -102c-6 -30 -13 -61 -18 -92c-8 -42 -10 -61 -19 -80c-12 -25 -38 -47 -67 -47c-12 0 -20 5 -24 7c-13 8 -29 25 -25 61c3 27 14 43 34 92c13 32 26 65 39 97c17 41 34 82 50 124
c15 40 28 81 43 119c3 7 6 15 9 23c2 8 4 15 12 20c3 1 7 4 13 4c13 -1 15 -15 15 -18c0 -1 -1 -9 -1 -9zM233 668c7 29 32 47 61 47c35 0 64 -27 64 -65c0 -34 -32 -61 -66 -61c-41 0 -69 42 -59 79z" />
    <glyph glyph-name="sterling" unicode="&#xa3;" horiz-adv-x="500" 
d="M223 147l23 186h-123l17 58h113c21 110 47 242 153 299c13 7 49 25 95 25c15 0 61 -1 90 -41c14 -19 16 -36 16 -46c0 -30 -22 -56 -53 -56c-9 0 -29 3 -47 23c-17 21 -12 29 -25 51c-9 16 -19 19 -28 19c-4 0 -8 -1 -13 -4c-14 -10 -24 -45 -29 -60l-52 -210h129
l-17 -58h-127c-11 -36 -21 -73 -34 -108c-10 -32 -22 -62 -33 -93c72 -29 111 -46 149 -46c14 0 27 3 32 4c23 7 35 18 55 35l23 -17c-12 -21 -23 -42 -38 -60c-28 -36 -70 -59 -115 -59c-10 0 -27 0 -50 8c-36 12 -64 36 -94 61c-25 -35 -48 -67 -92 -67
c-39 0 -70 28 -70 66c0 9 3 31 19 53c33 42 79 41 126 37zM207 94c-20 8 -29 10 -40 10c-4 0 -10 0 -19 -4c-6 -3 -25 -15 -25 -38c0 -21 21 -28 27 -28c3 0 11 1 18 6c20 13 29 33 39 54z" />
    <glyph glyph-name="fraction" unicode="&#x2044;" horiz-adv-x="125" 
d="M336 703h46l-489 -700h-48z" />
    <glyph glyph-name="section" unicode="&#xa7;" horiz-adv-x="458" 
d="M385 545l79 -159c5 -12 32 -65 32 -117c0 -90 -69 -120 -98 -127c-24 -5 -52 -3 -76 -1c19 -40 36 -78 36 -122c0 -11 -1 -41 -15 -71c-26 -57 -80 -77 -100 -83c-17 -4 -35 -6 -54 -6c-13 0 -72 0 -106 40c-5 5 -18 23 -18 45c0 25 23 53 50 52c24 0 48 -22 47 -46
c0 -14 -6 -29 -6 -42c0 -9 6 -16 29 -16c10 0 40 2 63 21c21 18 30 47 30 76c0 26 -7 48 -32 96l-77 142c-20 37 -36 69 -37 113c0 28 7 45 12 55c20 44 69 67 115 67c24 0 56 -6 62 -7c-24 44 -46 83 -46 133c0 94 74 154 162 154c84 0 129 -47 129 -88
c0 -25 -24 -48 -49 -48c-26 0 -48 21 -48 48c0 7 1 9 3 16c2 8 3 11 3 15c0 9 -6 19 -28 19c-20 0 -32 -5 -38 -8c-14 -7 -46 -28 -46 -76c0 -21 5 -37 22 -75zM211 382c-6 -30 15 -67 47 -124c21 -37 51 -83 97 -83c4 0 15 0 24 5c25 10 37 34 37 62c0 27 -10 41 -31 86
c-16 37 -30 68 -67 88c-15 7 -28 11 -43 11c-29 0 -58 -18 -64 -45z" />
    <glyph glyph-name="currency" unicode="&#xa4;" horiz-adv-x="667" 
d="M595 183l77 -76l-62 -60l-75 76c-26 -18 -74 -50 -155 -50c-82 0 -129 33 -155 51l-76 -76l-60 61l76 75c-18 26 -51 75 -51 157c1 43 11 87 32 124c6 10 13 20 19 29l-75 76l60 60l75 -75c25 17 75 51 156 51c20 0 72 -3 121 -29c14 -8 32 -21 34 -22l75 75l61 -60
l-76 -76c19 -26 50 -73 50 -155c0 -20 -1 -62 -23 -109c-9 -20 -15 -28 -28 -47zM566 340c0 22 -2 69 -38 116c-19 24 -65 72 -147 71c-12 0 -39 -1 -69 -12c-75 -28 -118 -97 -118 -176c0 -106 83 -187 188 -187c37 0 72 9 102 30c29 19 82 67 82 158z" />
    <glyph glyph-name="quotesingle" unicode="'" horiz-adv-x="208" 
d="M162 434h-23l-39 245s-2 21 0 32c6 25 30 38 54 38c20 0 41 -11 47 -31c4 -11 3 -17 2 -27z" />
    <glyph glyph-name="quotedblleft" unicode="&#x201c;" horiz-adv-x="417" 
d="M347 716l24 -23c-8 -7 -39 -31 -58 -57c-11 -17 -17 -25 -17 -35c1 -20 17 -26 29 -39c4 -6 10 -15 10 -33c0 -37 -29 -62 -65 -62c-5 0 -17 0 -29 7c-12 6 -36 28 -36 67c0 22 8 41 20 60c31 51 75 82 122 115zM525 716l20 -24c-26 -22 -26 -22 -46 -46
c-12 -13 -25 -27 -25 -44c0 -19 13 -23 24 -36c13 -15 14 -30 14 -38c-1 -35 -29 -62 -63 -62c-40 0 -68 35 -68 76c1 14 4 35 23 63c23 37 50 61 121 111z" />
    <glyph glyph-name="guillemotleft" unicode="&#xab;" horiz-adv-x="479" 
d="M311 475h35l-143 -232l39 -229h-33l-103 244zM512 475h35l-142 -231l42 -230h-35l-103 244z" />
    <glyph glyph-name="fi" unicode="&#xfb01;" horiz-adv-x="500" 
d="M201 430h-82l14 40c5 0 42 -6 69 5c6 3 11 7 15 12c9 12 7 19 18 43c6 15 19 39 42 70c12 17 81 116 182 116c25 0 62 -8 78 -30c12 -14 13 -30 13 -36c0 -26 -21 -47 -47 -47c-19 0 -39 13 -39 33c1 8 5 15 5 23c0 7 -5 19 -23 19c-15 0 -34 -7 -57 -28
c-49 -47 -69 -116 -87 -179h74l-15 -39h-71l-106 -367c-6 -17 -12 -34 -19 -51c-9 -25 -40 -103 -99 -165c-12 -13 -58 -64 -122 -64c-14 0 -25 3 -30 5c-34 12 -43 38 -43 54c0 25 21 42 45 42c22 -1 34 -16 37 -22s4 -18 4 -19c1 -5 2 -16 16 -16c8 0 14 3 26 15
c26 24 37 40 58 101c12 36 23 72 34 108c19 63 36 127 55 190c18 63 36 125 55 187zM376 437l6 22c22 2 43 4 64 8c21 3 42 7 64 11c6 1 21 4 28 4c6 0 8 -2 8 -8c0 -5 -3 -17 -8 -31l-98 -337c-1 -6 -2 -11 -4 -17c-3 -9 -3 -9 -3 -16c0 -13 7 -16 10 -16c2 0 7 1 13 5
c23 13 38 30 55 51l15 -18c-63 -65 -102 -102 -143 -102c-27 0 -43 23 -43 50c0 19 7 37 9 43l76 268c4 14 9 29 9 45c0 13 -3 21 -12 28c-18 14 -41 10 -46 10zM480 644c7 23 33 40 57 40c31 0 55 -28 55 -59c-1 -30 -29 -54 -60 -54s-55 26 -55 57c0 3 0 9 3 16z" />
    <glyph glyph-name="fl" unicode="&#xfb02;" horiz-adv-x="500" 
d="M201 430h-82l14 40c5 0 42 -6 69 5c6 3 11 7 15 12c9 12 7 19 18 43c6 15 19 39 42 70c12 17 81 116 182 116c25 0 62 -8 78 -30c12 -14 13 -30 13 -36c0 -26 -21 -47 -47 -47c-19 0 -39 13 -39 33c1 8 5 15 5 23c0 7 -5 19 -23 19c-15 0 -34 -7 -57 -28
c-49 -47 -69 -116 -87 -179h74l-15 -39h-71l-106 -367c-6 -17 -12 -34 -19 -51c-9 -25 -40 -103 -99 -165c-12 -13 -58 -64 -122 -64c-14 0 -25 3 -30 5c-34 12 -43 38 -43 54c0 25 21 42 45 42c22 -1 34 -16 37 -22s4 -18 4 -19c1 -5 2 -16 16 -16c8 0 14 3 26 15
c26 24 37 40 58 101c12 36 23 72 34 108c19 63 36 127 55 190c18 63 36 125 55 187zM449 676l7 21c26 3 53 6 81 10c16 2 33 5 47 7c8 1 14 3 18 3s9 -2 9 -11c-1 -11 -6 -29 -9 -36l-159 -555c0 -1 -8 -25 -8 -39c0 -15 14 -17 18 -17c6 0 11 2 22 13c15 14 28 28 40 42
l13 -22c-21 -22 -41 -44 -64 -65c-20 -19 -40 -37 -70 -37c-34 0 -50 27 -50 60c1 24 9 50 11 56l142 486c1 1 10 29 10 48c0 26 -17 34 -58 36z" />
    <glyph glyph-name="endash" unicode="&#x2013;" horiz-adv-x="521" 
d="M104 277h470l-16 -45h-468z" />
    <glyph glyph-name="dagger" unicode="&#x2020;" horiz-adv-x="458" 
d="M386 368l-30 -59c-21 -53 -43 -105 -61 -158c-18 -52 -32 -104 -48 -157c-15 -50 -31 -100 -47 -150h-39c22 71 43 142 62 214c14 54 26 108 38 163c8 48 13 66 12 154c41 35 49 46 71 93c-31 -5 -44 -8 -58 -13c-24 -9 -43 -21 -69 -21c-40 0 -51 31 -51 46
c0 3 1 9 4 16c12 31 45 34 54 34c24 -1 46 -14 69 -21c13 -5 29 -8 59 -11c6 37 7 50 7 70c0 21 -3 42 -3 62c0 8 0 15 3 29c11 45 48 58 65 58c26 0 45 -27 45 -54c0 -38 -30 -75 -49 -104c-13 -20 -24 -41 -36 -62c6 1 34 6 56 14c36 13 44 17 66 17c45 0 59 -32 59 -49
c0 -7 -2 -15 -5 -21c-7 -11 -22 -27 -53 -27c-28 0 -53 16 -80 25c-16 5 -32 9 -48 13c-3 -18 -4 -26 -4 -43c0 -21 5 -38 11 -58z" />
    <glyph glyph-name="periodcentered" unicode="&#xb7;" horiz-adv-x="187" 
d="M138 224c-38 1 -64 30 -64 68c0 16 4 26 7 31c5 10 25 37 60 37c12 0 20 -3 24 -5c26 -11 43 -34 43 -63c0 -10 -2 -17 -5 -25c-6 -15 -23 -45 -65 -43z" />
    <glyph glyph-name="paragraph" unicode="&#xb6;" horiz-adv-x="667" 
d="M586 706v-54h-34v-819h-58v819h-144v-819h-58v486c-11 2 -32 4 -58 17c-68 31 -99 99 -99 171c0 88 48 162 134 189c29 8 57 10 87 10h230z" />
    <glyph glyph-name="bullet" unicode="&#x2022;" horiz-adv-x="333" 
d="M344 353c0 -27 -7 -45 -11 -55c-11 -24 -43 -75 -117 -75c-72 0 -132 55 -132 130c0 9 0 26 9 48c21 51 70 82 123 82c73 0 128 -57 128 -130z" />
    <glyph glyph-name="quotesinglbase" unicode="&#x201a;" horiz-adv-x="229" 
d="M54 -134l-19 22c16 15 33 30 49 48c12 13 22 28 22 44c0 21 -15 24 -27 39c-5 6 -10 15 -10 34c0 37 26 62 62 62c39 0 66 -33 66 -70c0 -45 -39 -91 -44 -97c-28 -33 -63 -57 -99 -82z" />
    <glyph glyph-name="quotedblbase" unicode="&#x201e;" horiz-adv-x="417" 
d="M59 -135l-19 23c15 14 30 28 44 44c21 23 27 37 27 51c0 1 0 7 -2 11c-3 5 -12 9 -22 20c-13 15 -14 31 -14 39s2 17 5 24c5 11 22 37 59 37c39 0 65 -34 65 -73c0 -14 -4 -36 -22 -64c-30 -47 -76 -80 -121 -112zM235 -136l-18 24c23 20 26 23 46 45c12 15 25 29 25 47
c-1 20 -15 24 -27 39c-10 13 -11 27 -11 33c1 34 27 62 63 62c40 0 66 -34 66 -72c0 -20 -7 -51 -36 -86c-22 -28 -49 -50 -108 -92z" />
    <glyph glyph-name="quotedblright" unicode="&#x201d;" horiz-adv-x="417" 
d="M231 461l-20 22c13 11 23 19 45 44c13 15 25 30 25 48c0 21 -13 24 -26 38c-7 10 -11 22 -11 35c0 5 0 12 4 23c11 25 34 39 60 39c5 0 16 0 28 -6c25 -12 38 -40 38 -66c0 -12 -2 -31 -15 -55c-27 -52 -83 -91 -128 -122zM407 462l-20 22c35 25 33 30 49 49
c11 14 23 27 23 44c0 6 -3 11 -4 13c-6 10 -16 14 -24 23c-10 13 -10 27 -10 33c0 37 26 64 65 64c10 0 21 -2 29 -7c23 -12 35 -40 35 -66c0 -7 -1 -19 -6 -36c-8 -22 -22 -46 -59 -81c-16 -15 -30 -27 -48 -40c-10 -7 -20 -12 -30 -18z" />
    <glyph glyph-name="guillemotright" unicode="&#xbb;" horiz-adv-x="479" 
d="M215 259l-40 216h35l102 -229l-207 -231h-33zM419 261l-42 214h35l102 -227l-206 -234h-36z" />
    <glyph glyph-name="ellipsis" unicode="&#x2026;" horiz-adv-x="1000" 
d="M937 51c0 -31 -24 -57 -56 -57c-31 0 -57 25 -57 57c0 31 26 56 58 56c31 0 55 -25 55 -56zM604 51c0 -31 -24 -57 -57 -57c-31 0 -56 25 -56 57c0 4 0 13 4 22c9 21 31 34 53 34c31 0 56 -25 56 -56zM270 51c0 -31 -24 -57 -56 -57s-57 25 -57 57c0 3 1 13 4 21
c9 21 30 35 54 35c31 0 55 -25 55 -56z" />
    <glyph glyph-name="questiondown" unicode="&#xbf;" horiz-adv-x="417" 
d="M77 151c5 57 45 98 58 111c16 14 20 17 48 38c19 14 98 71 134 152c7 17 12 33 16 50s6 22 15 27c5 2 9 3 13 3c8 0 17 -4 17 -24c0 -11 -4 -27 -12 -50c-14 -41 -31 -86 -95 -158c-11 -13 -23 -26 -34 -39c-12 -15 -65 -73 -65 -148c1 -20 4 -30 7 -38
c11 -27 38 -48 69 -48c36 1 45 24 45 38c0 11 -7 22 -7 24c-3 5 -5 13 -5 25c0 29 18 54 48 54c31 0 47 -31 47 -60c0 -10 -3 -29 -15 -51c-37 -62 -108 -69 -129 -69c-18 0 -65 4 -104 36c-36 30 -55 80 -51 127zM321 665c6 31 32 52 64 52c35 -1 64 -29 64 -67
c0 -35 -32 -62 -67 -62c-7 0 -16 1 -23 4c-30 12 -44 42 -38 73z" />
    <glyph glyph-name="grave" unicode="`" 
d="M232 715l-4 -158h-30l-81 158h115z" />
    <glyph glyph-name="acute" unicode="&#xb4;" 
d="M242 716l120 -1c-25 -21 -50 -42 -75 -65c-35 -32 -70 -67 -105 -100h-30z" />
    <glyph glyph-name="circumflex" unicode="&#x2c6;" 
d="M205 715h75l52 -160h-22l-77 100l-142 -100h-33z" />
    <glyph glyph-name="tilde" unicode="&#x2dc;" 
d="M380 687h33c-15 -20 -65 -99 -151 -99c-20 0 -38 5 -44 7c-32 9 -58 24 -91 24c-34 0 -49 -12 -72 -38h-34c9 11 18 22 27 32c36 39 76 65 130 65c28 0 52 -8 61 -11c38 -14 49 -19 71 -19c33 0 49 15 70 39z" />
    <glyph glyph-name="dieresis" unicode="&#xa8;" 
d="M76 650c7 22 33 38 57 38c28 0 51 -26 52 -57c-1 -30 -29 -53 -58 -53c-4 0 -13 1 -22 6c-22 12 -36 42 -29 66zM256 648c6 23 32 40 57 40c29 0 52 -24 52 -54s-29 -54 -58 -54c-33 0 -60 36 -51 68z" />
    <glyph glyph-name="cedilla" unicode="&#xb8;" 
d="M-12 -84l97 92h35l-39 -46c27 -14 51 -27 51 -60c-1 -19 -11 -33 -15 -38c-36 -45 -130 -44 -179 -45v17c32 1 80 2 107 23c13 10 15 21 15 27c0 10 -7 36 -36 36c-8 0 -19 -2 -36 -6z" />
    <glyph glyph-name="caron" unicode="&#x2c7;" 
d="M202 615l141 101l37 -1c-26 -26 -51 -52 -76 -79c-24 -26 -49 -54 -73 -81h-76l-50 161h22z" />
    <glyph glyph-name="emdash" unicode="&#x2014;" horiz-adv-x="667" 
d="M714 253h-667v79h667v-79z" />
    <glyph glyph-name="AE" unicode="&#xc6;" horiz-adv-x="938" 
d="M504 683l5 22h515c15 0 18 -3 18 -10c0 -4 -4 -19 -7 -31l-34 -134h-21c0 32 1 67 -19 93c-28 37 -78 33 -89 33h-150l-45 -156c-12 -37 -23 -73 -34 -110h77c39 0 68 2 99 27c26 21 36 44 49 73h23l-77 -253l-22 1c7 24 9 34 9 47c0 8 -1 36 -21 51
c-12 10 -32 15 -66 15c-28 0 -56 -2 -84 -4l-62 -215c-5 -15 -11 -29 -11 -46c0 -4 1 -19 9 -27c10 -12 36 -12 75 -12c145 0 220 41 265 96c18 21 26 37 37 61h24l-80 -205h-556l7 24c14 0 27 1 41 5c42 12 54 45 68 84l41 133h-199l-88 -105c-26 -31 -40 -53 -40 -75
c0 -10 4 -17 7 -20c16 -22 45 -19 53 -19l-9 -23h-230l7 21c44 7 53 13 85 45c38 43 76 85 113 129c52 61 104 123 155 185c64 76 127 151 191 226c10 11 26 29 26 45c0 4 -1 9 -8 15c-16 14 -45 14 -47 14zM326 292l176 1c11 35 22 70 32 105c11 39 21 78 33 118
c12 38 26 77 41 116c-45 -55 -90 -111 -136 -165c-33 -40 -67 -79 -98 -119c-7 -10 -15 -20 -23 -29c-7 -9 -16 -18 -25 -27z" />
    <glyph glyph-name="Oslash" unicode="&#xd8;" horiz-adv-x="729" 
d="M723 658l60 60c18 3 36 5 54 9l39 9l-117 -119c27 -57 42 -91 42 -155c-1 -182 -128 -312 -167 -349c-32 -30 -135 -124 -273 -124c-7 0 -29 1 -51 6c-34 7 -53 15 -107 51l-50 -51l-94 -16c9 7 17 14 25 22c13 12 26 26 38 40c16 16 32 31 48 47c-9 14 -17 28 -23 42
c-10 22 -24 56 -24 112c0 72 22 203 148 333c78 81 179 141 292 141c70 0 105 -20 160 -58zM240 160l426 438c-12 19 -43 77 -115 77c-25 0 -65 -7 -110 -41c-110 -82 -183 -252 -199 -381c-4 -29 -5 -40 -2 -93zM683 540l-424 -436c5 -10 11 -21 18 -30
c22 -29 61 -43 96 -43c37 0 98 16 162 84c12 13 32 37 54 73c18 29 72 125 89 231c7 45 7 74 5 121z" />
    <glyph glyph-name="OE" unicode="&#x152;" horiz-adv-x="1021" 
d="M1081 530h-17c0 43 -1 90 -41 113c-22 13 -44 13 -71 12h-145l-79 -265c70 -1 114 -2 141 6c60 18 81 76 89 93l16 -1c-25 -84 -50 -168 -76 -251l-15 1c1 5 6 25 6 44c0 18 -5 30 -8 36c-10 21 -25 33 -75 33c-32 0 -62 -2 -91 -3l-64 -223c-1 -4 -8 -23 -8 -41
c0 -15 5 -23 9 -27c13 -12 58 -12 74 -12c145 0 217 42 261 91c13 16 23 30 42 66h18l-77 -202c-71 -1 -142 -2 -214 0c-50 1 -100 2 -150 2c-28 0 -57 0 -86 -2c-41 -1 -82 -5 -123 -8c-65 -1 -112 -1 -167 38c-99 69 -107 187 -107 223c0 22 2 62 18 114
c15 49 54 146 152 235c104 94 207 114 264 114c26 0 51 -5 77 -7c21 -2 43 -3 65 -3h402c17 -1 21 -4 21 -12c0 -5 -4 -18 -7 -31zM244 211c-1 -55 9 -108 51 -146c13 -12 40 -33 86 -33c34 0 57 12 70 18c57 30 87 82 109 140c23 62 38 126 57 190c16 56 42 123 42 183
c0 67 -41 110 -108 110c-20 0 -53 -5 -95 -32c-68 -45 -115 -117 -150 -191c-36 -76 -61 -155 -62 -239z" />
    <glyph glyph-name="ae" unicode="&#xe6;" horiz-adv-x="604" 
d="M421 443l9 27h75l-9 -39c34 25 69 51 112 51c70 0 80 -57 80 -79c0 -31 -16 -83 -77 -129c-53 -40 -109 -54 -173 -68c-8 -27 -16 -56 -16 -85c0 -61 41 -74 64 -74c48 1 83 39 113 73l19 -15c-16 -20 -32 -39 -50 -56c-12 -12 -59 -60 -124 -60c-12 0 -38 3 -63 22
c-42 31 -44 74 -47 125c-24 -32 -43 -60 -71 -89s-63 -55 -106 -56c-57 1 -82 62 -82 114c0 48 15 95 34 137c9 19 50 104 109 163c34 34 67 55 81 62c24 12 44 15 55 15c4 0 13 -1 23 -4c16 -4 24 -10 44 -35zM167 141c-3 -23 0 -34 4 -44c6 -15 21 -28 37 -28
c12 0 29 8 51 26c82 71 115 183 123 208c13 39 16 59 16 80c0 47 -20 59 -40 59c-7 0 -16 -2 -30 -10c-26 -16 -58 -51 -94 -113c-7 -12 -59 -101 -67 -178zM451 245c36 10 67 20 98 43c53 42 66 95 66 121c0 20 -5 37 -24 37c-10 0 -16 -3 -19 -5c-15 -10 -37 -34 -60 -69
c-39 -58 -51 -96 -61 -127z" />
    <glyph glyph-name="dotlessi" unicode="&#x131;" horiz-adv-x="250" 
d="M126 438l7 20l105 15c9 1 18 2 30 5c7 2 15 5 21 5c3 0 8 -1 8 -9c0 -5 -4 -19 -8 -32l-97 -334c-5 -17 -9 -32 -9 -39c0 -2 2 -13 11 -12c4 0 10 2 14 5c24 13 37 29 54 49l13 -14c-26 -34 -39 -47 -72 -73c-20 -16 -42 -31 -69 -31c-40 0 -43 37 -43 49c0 10 2 21 8 43
l78 272c1 5 8 22 8 41c0 14 -4 22 -8 26c-16 19 -47 14 -51 14z" />
    <glyph glyph-name="oslash" unicode="&#xf8;" horiz-adv-x="479" 
d="M479 452l37 38l74 8c-9 -8 -19 -16 -28 -25c-20 -18 -38 -38 -56 -58c15 -33 22 -49 22 -85c0 -34 -6 -61 -9 -73c-22 -99 -80 -167 -107 -193c-23 -22 -85 -75 -175 -75c-47 0 -70 13 -107 39l-41 -40l-75 -9c32 26 41 34 90 88c-7 17 -20 40 -20 82c0 40 10 117 68 197
c21 28 105 135 233 135c39 0 61 -11 94 -29zM177 142l254 259c-9 15 -18 29 -36 37c-5 3 -14 6 -28 6c-10 0 -27 -2 -49 -16c-27 -16 -58 -47 -88 -108c-12 -25 -40 -94 -46 -121c-4 -17 -5 -26 -7 -57zM437 346l-257 -263c2 -8 7 -21 11 -28c7 -11 26 -31 61 -31
c93 0 161 170 175 238c7 33 9 78 10 84z" />
    <glyph glyph-name="oe" unicode="&#x153;" horiz-adv-x="604" 
d="M600 120l19 -15c-8 -12 -17 -23 -26 -34c-15 -17 -67 -83 -151 -83c-19 0 -28 3 -35 6c-23 7 -35 17 -62 54c-39 -36 -68 -60 -122 -60c-11 0 -43 1 -71 19c-28 17 -67 61 -67 142c0 120 82 214 106 239c36 38 65 58 84 68c12 7 48 25 91 25c27 0 43 -7 51 -13
c31 -19 39 -57 42 -65c6 6 19 20 37 35c13 10 56 45 112 45c5 0 21 -1 35 -6c14 -6 47 -27 47 -72c0 -32 -17 -83 -76 -130c-71 -56 -147 -63 -179 -68c-2 -8 -17 -51 -17 -87c0 -12 1 -23 5 -33c6 -14 21 -41 59 -41c11 0 25 3 35 7c35 13 59 40 83 67zM175 122
c-2 -29 0 -40 5 -54c3 -8 17 -40 47 -40c7 0 18 3 24 6c27 12 43 39 57 63c64 112 80 237 80 279c0 31 -9 67 -45 67c-15 0 -30 -6 -42 -15c-15 -12 -35 -39 -36 -40c-76 -103 -88 -224 -90 -266zM445 245c51 12 89 23 126 62c12 12 21 25 28 40c2 4 17 36 17 63
c0 8 -1 36 -29 36c-33 0 -65 -52 -80 -76c-33 -49 -41 -70 -62 -125z" />
    <glyph glyph-name="germandbls" unicode="&#xdf;" horiz-adv-x="500" 
d="M329 388l8 26c39 5 65 9 94 38c22 20 58 68 58 148c0 44 -16 61 -32 70c-4 3 -18 9 -33 9c-20 0 -35 -10 -42 -14c-35 -23 -51 -66 -63 -103c-17 -60 -34 -120 -50 -180c-18 -67 -35 -135 -55 -202c-15 -49 -32 -98 -49 -148c-28 -66 -58 -131 -119 -175
c-12 -8 -45 -31 -88 -31c-60 0 -82 40 -82 67c0 8 1 11 3 15c7 16 25 27 42 27c20 0 38 -17 38 -37c0 -1 -1 -8 -3 -14c-3 -6 -7 -12 -7 -17s7 -7 15 -7c21 1 43 19 56 34c25 28 37 60 49 95c19 61 38 121 54 182c18 65 34 130 52 194c10 37 21 74 31 110c5 16 10 31 16 47
c8 22 39 114 114 164c13 8 50 30 98 30c9 0 38 -2 65 -15c47 -22 78 -74 78 -127c0 -22 -5 -65 -43 -108c-34 -37 -77 -55 -121 -74c4 -1 30 -10 46 -21c26 -17 60 -56 60 -131c0 -72 -29 -125 -41 -145c-10 -15 -66 -103 -152 -103c-45 0 -95 27 -95 76c1 30 18 60 48 60
c21 0 38 -17 38 -39c0 -8 -3 -15 -8 -22c-9 -13 -13 -16 -13 -23c1 -11 12 -20 22 -20c7 0 14 2 26 11s27 22 43 50c28 47 47 125 47 179c0 14 1 53 -29 86c-12 12 -23 19 -29 22c-13 7 -21 10 -47 16z" />
    <glyph glyph-name="Grave" unicode="&#xf6ce;" 
d="M278 891l37 -121h-32l-162 121h157z" />
    <glyph glyph-name="Acute" unicode="&#xf6c9;" 
d="M336 891h159c-80 -39 -158 -79 -235 -119h-31z" />
    <glyph glyph-name="Circumflex" 
d="M266 892h70l92 -121h-39l-96 62l-129 -63h-46c13 9 25 18 36 27c17 14 33 29 49 43c20 18 41 35 63 52z" />
    <glyph glyph-name="Tilde" 
d="M452 883l35 -1c-9 -10 -17 -21 -26 -31c-15 -17 -58 -68 -128 -68c-12 0 -29 1 -53 9c-28 9 -48 22 -79 22c-34 -1 -52 -15 -75 -38h-37c6 7 12 14 19 21c38 42 83 77 140 77c5 0 16 -1 29 -4c18 -4 34 -13 51 -19c23 -8 37 -9 49 -9c15 0 19 1 26 3c19 5 27 11 49 38z
" />
    <glyph glyph-name="Dieresis" unicode="&#xf6cb;" 
d="M120 848c7 25 33 43 59 43c32 0 56 -26 56 -57c0 -9 -2 -13 -3 -17c-11 -37 -43 -41 -55 -41c-8 0 -33 3 -48 24c-5 6 -15 25 -9 48zM340 846c6 26 34 46 60 46c30 0 56 -31 56 -62c0 -4 0 -9 -4 -18c-4 -12 -20 -36 -54 -36c-10 0 -18 2 -27 6c-33 17 -33 52 -31 64z
" />
    <glyph glyph-name="Caron" unicode="&#xf6ca;" 
d="M188 892l94 -63l133 64h40l-145 -122h-72l-91 121h41z" />
    <glyph glyph-name="Adieresis" unicode="&#xc4;" horiz-adv-x="688" 
d="M620 716h24c-7 -62 -13 -125 -18 -188c-5 -72 -9 -145 -13 -217c-4 -66 -7 -131 -11 -196c0 -4 -3 -34 3 -54c8 -28 34 -35 83 -38l-6 -22h-294l9 22c10 0 38 -3 62 15c28 21 32 57 35 90l5 104h-198l-81 -101c-24 -30 -39 -52 -39 -70c0 -4 1 -12 8 -20
c14 -16 30 -18 49 -20l-6 -20h-230l6 18c60 15 73 23 114 71c72 90 144 180 217 270c51 62 102 125 153 188c33 43 67 86 100 128zM336 277l167 1c8 143 13 168 28 251c-33 -46 -65 -91 -100 -136c-31 -39 -63 -78 -95 -116zM495 849c4 13 19 41 55 41c33 0 59 -24 59 -58
c0 -32 -31 -57 -62 -57c-30 0 -55 28 -55 58c0 2 1 10 3 16zM715 847c7 25 31 42 56 42c31 -1 57 -31 57 -62s-28 -54 -57 -54c-38 0 -66 38 -56 74z" />
    <glyph glyph-name="Aring" unicode="&#xc5;" horiz-adv-x="688" 
d="M620 716h24c-7 -62 -13 -125 -18 -188c-5 -72 -9 -145 -13 -217c-4 -66 -7 -131 -11 -196c0 -4 -3 -34 3 -54c8 -28 34 -35 83 -38l-6 -22h-294l9 22c10 0 38 -3 62 15c28 21 32 57 35 90l5 104h-198l-81 -101c-23 -30 -39 -53 -39 -70c0 -3 2 -11 7 -19
c13 -15 31 -20 49 -24l-3 -16h-232l6 17c60 15 73 23 114 71c72 90 144 180 217 270c51 62 102 125 153 188c33 43 67 86 100 128zM336 277l167 1c2 38 5 76 8 113c5 47 11 93 16 139c-28 -43 -57 -85 -88 -126c-33 -43 -68 -85 -103 -127zM570 842c3 17 11 32 14 36
c25 39 65 43 80 43c51 0 92 -41 92 -93c0 -51 -41 -92 -93 -92c-8 0 -20 0 -38 8c-35 18 -60 59 -55 98zM614 845c-3 -10 -2 -16 -1 -21c3 -26 23 -47 48 -47c28 0 55 22 55 51c0 30 -25 53 -54 53c-33 0 -45 -26 -48 -36z" />
    <glyph glyph-name="Odieresis" unicode="&#xd6;" horiz-adv-x="729" 
d="M125 268c7 137 83 241 113 277c35 45 145 171 322 171c38 0 72 -6 106 -21c52 -24 137 -87 138 -234c0 -50 -9 -128 -69 -227c-18 -28 -42 -62 -64 -87c-31 -37 -137 -159 -300 -158c-20 0 -65 1 -112 23c-57 26 -142 100 -134 256zM244 222c-3 -50 3 -98 34 -140
c6 -9 20 -26 43 -38c22 -12 43 -12 52 -12c138 0 231 186 236 195c60 113 75 219 75 267c0 20 -2 105 -59 153c-9 8 -35 27 -70 27c-37 0 -81 -20 -110 -41c-24 -17 -60 -51 -98 -110c-22 -33 -97 -160 -103 -301zM446 850c3 12 19 41 55 41c32 0 58 -23 58 -57
c0 -4 -1 -14 -6 -24c-9 -22 -29 -34 -51 -34c-10 0 -19 2 -27 7c-22 13 -36 42 -29 67zM667 847c6 25 31 43 57 42c32 0 58 -25 58 -58c0 -32 -27 -57 -60 -57c-4 0 -14 1 -24 6c-23 12 -37 42 -31 67z" />
    <glyph glyph-name="Udieresis" unicode="&#xdc;" horiz-adv-x="708" 
d="M200 681l8 24h291l-8 -23c-27 0 -38 -2 -51 -7c-35 -14 -46 -43 -59 -79l-97 -331c-2 -7 -11 -42 -11 -74c0 -10 0 -38 13 -63c23 -45 78 -71 130 -71c56 0 110 29 146 71c30 34 49 77 80 165l86 301c5 20 7 30 7 42c0 36 -18 41 -73 45l8 23h228l-10 -24
c-7 -1 -22 -2 -39 -7c-44 -13 -55 -45 -68 -87c-17 -54 -33 -109 -49 -163c-11 -37 -22 -75 -34 -112c-8 -26 -16 -53 -25 -80c-3 -8 -7 -17 -10 -25c-14 -34 -67 -159 -188 -203c-15 -6 -48 -16 -91 -16c-123 1 -184 66 -205 115c-14 32 -15 61 -15 75c0 19 2 36 10 74
c12 52 25 105 40 157c17 64 36 127 55 191c4 12 7 24 7 38c0 35 -20 46 -76 44zM427 848c6 26 28 42 54 42c5 0 9 0 18 -3c26 -8 40 -28 40 -53c0 -33 -24 -60 -57 -60c-36 0 -63 38 -55 74zM645 845c8 25 35 42 60 42c29 0 56 -29 56 -60c-1 -31 -30 -54 -58 -54
c-10 0 -20 2 -28 7c-24 12 -37 39 -30 65z" />
    <glyph glyph-name="adieresis" unicode="&#xe4;" horiz-adv-x="479" 
d="M450 417l15 55h75l-103 -349c-6 -21 -8 -33 -8 -44c0 -16 12 -23 18 -23c18 1 52 39 65 53l13 -17c-21 -22 -42 -45 -64 -66c-32 -29 -50 -39 -71 -39c-8 0 -17 3 -24 7c-12 6 -25 19 -25 48c0 30 10 56 20 83c-20 -24 -40 -48 -61 -71c-33 -34 -72 -65 -125 -65
c-15 0 -32 4 -44 12c-21 13 -51 52 -51 118c0 14 2 40 11 74c10 39 42 131 123 211c10 9 79 79 152 79c25 0 52 -9 67 -30c6 -8 10 -17 17 -36zM175 160c0 -6 -4 -35 7 -58c3 -8 20 -35 49 -35c19 0 36 10 41 13c24 13 52 36 83 86c3 5 69 115 69 192c0 37 -14 80 -54 80
c-12 0 -25 -5 -28 -6c-30 -12 -52 -32 -72 -56c-47 -58 -87 -142 -95 -216zM292 649c7 23 34 40 58 40c29 0 51 -26 51 -56s-27 -54 -58 -54c-34 0 -60 38 -51 70zM474 651c3 9 17 38 52 38c30 0 56 -23 56 -55c0 -31 -28 -55 -57 -55c-30 0 -53 27 -53 56c0 0 0 9 2 16z
" />
    <glyph glyph-name="aring" unicode="&#xe5;" horiz-adv-x="479" 
d="M448 417l17 53h74l-101 -347c-2 -4 -9 -24 -9 -41c0 -19 11 -26 18 -26c2 0 7 1 12 4c11 6 32 26 54 49l13 -17c-23 -24 -45 -49 -69 -71c-19 -17 -40 -35 -67 -35c-16 1 -49 9 -49 55c0 26 9 41 20 85c-18 -26 -27 -39 -49 -62c-6 -6 -38 -40 -69 -58
c-8 -4 -34 -18 -66 -18c-8 0 -26 1 -44 12c-37 23 -52 78 -52 121c0 93 59 198 115 263c66 75 130 99 170 99c6 0 21 -1 36 -6c30 -12 37 -31 46 -60zM175 152c-2 -28 1 -55 25 -74c14 -11 25 -12 32 -12c23 0 64 21 99 65c40 50 94 164 94 230c0 58 -29 76 -55 76
c-16 0 -43 -8 -72 -33c-62 -54 -116 -169 -123 -252zM350 643c7 43 43 72 86 72c47 -1 88 -38 88 -89c-1 -46 -45 -83 -91 -83c-17 0 -31 6 -35 8c-35 17 -54 53 -48 92zM392 642c-1 -4 -2 -8 -2 -15c0 -23 21 -43 45 -43s46 19 46 42c-1 26 -20 49 -46 49
c-29 -1 -40 -25 -43 -33z" />
    <glyph glyph-name="odieresis" unicode="&#xf6;" horiz-adv-x="479" 
d="M86 164c2 40 13 110 71 188c78 106 172 132 224 132c50 0 100 -24 126 -67c22 -35 22 -76 22 -90c0 -80 -38 -153 -50 -173c-50 -92 -134 -165 -241 -165c-19 0 -72 2 -111 45c-34 36 -43 81 -41 130zM177 126c-1 -24 2 -35 5 -45c9 -32 35 -56 66 -56c32 0 72 20 112 80
c39 59 76 166 76 239c0 6 -1 63 -28 87c-6 6 -18 13 -39 13c-46 0 -75 -32 -84 -42c-13 -15 -35 -44 -56 -87c-9 -20 -50 -106 -52 -189zM295 648c6 23 32 39 56 39c30 0 53 -24 53 -55c0 -30 -28 -54 -58 -54c-11 0 -17 3 -21 5c-23 11 -37 39 -30 65zM477 651
c3 10 18 37 50 37c31 0 57 -22 57 -55c0 -31 -27 -54 -57 -54c-29 0 -53 26 -53 55c0 2 0 9 3 17z" />
    <glyph glyph-name="udieresis" unicode="&#xfc;" horiz-adv-x="500" 
d="M490 471h78c-13 -34 -25 -68 -36 -103c-11 -39 -22 -78 -33 -118c-13 -44 -27 -89 -41 -133c0 -1 -8 -27 -8 -43c0 -15 8 -19 13 -20c5 1 15 6 15 6c16 10 27 19 53 47l14 -15c-34 -37 -90 -102 -143 -102c-16 0 -41 9 -41 49c1 22 7 40 15 61l36 115
c-12 -18 -25 -37 -38 -55c-32 -46 -66 -87 -110 -123c-18 -15 -43 -32 -64 -40c-5 -2 -18 -7 -34 -7c-58 0 -64 54 -64 71c0 15 2 28 10 58l69 234c7 19 9 27 9 39c0 18 -6 23 -13 23c-17 0 -42 -26 -68 -54l-15 18c23 24 45 47 71 67c18 14 43 30 69 30c25 0 45 -20 45 -46
c0 -17 -5 -34 -9 -49l-76 -256c-7 -20 -9 -27 -9 -41c0 -26 17 -30 27 -30c12 0 22 6 41 21c22 17 62 52 104 109c88 117 117 233 133 287zM276 648c4 10 21 38 56 38c29 0 52 -24 52 -54c0 -7 -1 -13 -4 -20c-9 -21 -32 -36 -54 -36c-29 1 -53 26 -53 54c0 3 1 10 3 18z
M456 648c4 12 18 38 52 38c31 0 56 -24 56 -56c0 -11 -4 -19 -6 -22c-10 -18 -32 -31 -53 -31c-28 0 -52 26 -52 54c0 3 1 10 3 17z" />
    <glyph glyph-name="degree" unicode="&#xb0;" horiz-adv-x="354" 
d="M225 755c89 0 161 -72 161 -161c0 -13 -2 -39 -15 -69c-27 -56 -85 -93 -147 -93c-89 1 -161 73 -161 162s72 161 162 161zM224 675c-44 0 -79 -36 -79 -79c1 -44 36 -79 80 -79s78 35 78 79c0 43 -35 79 -79 79z" />
    <glyph glyph-name="registered" unicode="&#xae;" horiz-adv-x="833" 
d="M441 346h-25v-115c0 -15 -1 -25 0 -31c4 -21 18 -25 51 -28v-42c-20 0 -40 1 -60 2c-41 0 -82 -1 -123 -2v41c14 2 36 3 42 18c4 7 4 16 4 24v278c0 18 0 30 -6 36s-21 9 -40 10v43c36 -1 72 -2 108 -2c33 1 67 2 101 2c47 0 98 -3 132 -42c16 -18 25 -44 25 -68
c0 -10 -2 -36 -20 -60c-27 -36 -76 -45 -87 -46c9 -3 17 -10 19 -11c22 -19 29 -42 36 -68l10 -39c6 -25 9 -47 25 -47s24 26 29 54l38 -6c-9 -37 -15 -69 -41 -98c-10 -11 -18 -16 -23 -18s-14 -5 -26 -5c-8 0 -39 3 -57 26c-6 8 -17 31 -25 57c-8 24 -13 50 -20 74
c-5 20 -8 28 -14 37c-17 26 -42 26 -53 26zM416 400h28c34 0 73 -2 100 26c6 7 16 20 16 43c0 7 0 22 -11 37c-17 24 -45 28 -72 28c-57 0 -62 -5 -61 -60v-74zM820 351c0 -43 -9 -140 -84 -229c-95 -112 -221 -125 -272 -125c-78 0 -156 26 -218 73
c-46 36 -138 126 -138 284c0 118 52 193 82 228c36 43 124 127 275 127c113 0 217 -50 286 -143c47 -63 70 -137 69 -215zM788 352c0 35 -5 116 -63 195c-32 43 -114 130 -260 130c-34 0 -115 -5 -192 -62c-43 -31 -133 -115 -133 -262c0 -43 8 -84 24 -123
c49 -122 169 -201 301 -201c20 0 60 2 109 19c130 46 213 168 214 304z" />
    <glyph glyph-name="copyright" unicode="&#xa9;" horiz-adv-x="833" 
d="M820 351c-1 -42 -9 -143 -88 -234c-67 -77 -165 -120 -268 -120c-101 0 -197 42 -265 116c-84 92 -91 197 -91 241c0 118 52 193 82 228c36 43 124 127 275 127c38 0 127 -5 213 -69c46 -35 143 -128 142 -289zM787 352c1 36 -4 117 -64 197c-32 43 -113 128 -258 128
c-34 0 -115 -5 -192 -62c-43 -31 -133 -115 -133 -262c0 -43 8 -84 24 -123c49 -122 169 -201 301 -201c33 0 71 7 103 17c133 44 219 167 219 306zM572 129l-24 -2c-29 -3 -59 -6 -89 -6c-90 0 -141 33 -167 63s-52 88 -52 179c0 20 -2 87 37 142c16 22 30 33 39 39
c27 18 70 37 143 37c26 0 52 -3 78 -6l24 -1c25 -3 49 -3 73 -3c3 -48 5 -95 9 -143l-30 1c-6 29 -11 46 -16 58c-27 67 -78 72 -107 72c-32 0 -59 -8 -81 -29c-33 -29 -50 -71 -50 -158c0 -107 22 -173 62 -206c12 -10 37 -23 78 -23c15 0 54 1 83 33c5 6 14 18 21 36
c9 23 12 52 12 58h30c-1 -45 0 -89 0 -133c-25 -3 -49 -5 -73 -8z" />
    <glyph glyph-name="trademark" unicode="&#x2122;" horiz-adv-x="771" 
d="M468 597v-141c0 -11 -1 -33 8 -40c5 -5 18 -6 23 -7h8v-35c-41 1 -81 1 -122 0v35l11 1c24 4 24 12 26 46v205l-3 3c-9 4 -12 7 -29 7l1 35c20 -1 41 -1 61 -1c12 0 24 1 35 1l97 -239l101 239h97v-35l-8 -1c-16 0 -30 -2 -30 -33v-207c0 -7 1 -11 6 -15c4 -3 9 -4 19 -5
l7 -1v-35c-26 1 -53 2 -79 2c-17 -1 -34 -1 -51 -2v35h7c26 2 25 13 25 27v159l-92 -221h-26zM363 617h-35c-8 24 -16 41 -25 46c-7 5 -12 5 -27 6h-25v-215c1 -19 -1 -31 6 -37c6 -5 19 -6 19 -6l20 -2v-35c-53 2 -105 2 -158 0v35l17 2c6 0 13 1 19 4c9 6 8 19 9 39v215
h-26c-1 0 -16 0 -24 -4c-11 -6 -20 -23 -27 -48h-35c2 30 4 59 5 89c34 0 69 -1 104 -1c60 -1 119 0 178 1c1 -30 2 -59 5 -89z" />
    <glyph glyph-name="plusminus" unicode="&#xb1;" horiz-adv-x="667" 
d="M421 135h-79v242h-254v79h254v242h79v-242h252v-79h-252v-242zM673 0h-585v79h585v-79z" />
    <glyph glyph-name="minus" unicode="&#x2212;" horiz-adv-x="667" 
d="M714 253h-667v79h667v-79z" />
    <glyph glyph-name="mu" unicode="&#xb5;" horiz-adv-x="562" 
d="M551 140l29 1c8 -22 13 -46 13 -69c0 -12 -2 -83 -68 -83c-38 0 -61 29 -68 39c-14 19 -18 35 -21 44c-48 -73 -111 -87 -146 -87c-40 0 -76 18 -102 48c-9 9 -10 12 -14 18c-2 -31 -7 -101 30 -178c8 -16 18 -30 27 -45s19 -30 19 -48c0 -24 -18 -42 -42 -42
c-12 0 -20 4 -23 6c-13 6 -23 14 -34 39c-17 36 -26 86 -26 172c0 19 0 100 12 170c-4 21 -7 42 -10 63c-9 69 -11 163 -11 177c0 30 2 52 6 64c3 6 15 36 44 35c9 0 21 -2 32 -19c8 -11 12 -25 12 -53c0 -25 -3 -51 -6 -77c-3 -32 -7 -63 -11 -95s-7 -64 -13 -95
c9 -22 14 -30 20 -39c18 -27 46 -45 80 -45c11 0 32 2 53 18c49 35 63 108 65 119c13 70 8 173 8 184c0 40 2 69 12 84c4 6 16 19 36 18c4 0 16 0 25 -7c20 -15 26 -43 26 -91c0 -21 -2 -127 -29 -209c-3 -10 -8 -25 -19 -48c13 -37 34 -51 53 -51c3 0 12 1 20 6
c23 13 23 49 23 54c0 7 -1 14 -2 22z" />
    <glyph glyph-name="brokenbar" unicode="&#xa6;" horiz-adv-x="229" 
d="M122 190h80v-381h-80v381zM122 308v381h80v-381h-80z" />
    <glyph glyph-name="multiply" unicode="&#xd7;" horiz-adv-x="667" 
d="M581 36l-200 200l-202 -200l-55 56l201 200l-201 201l55 56l202 -201l200 201l56 -56l-200 -201l200 -200z" />
    <glyph glyph-name="logicalnot" unicode="&#xac;" horiz-adv-x="667" 
d="M634 253h-587v79h667v-332h-80v253z" />
    <glyph glyph-name="divide" unicode="&#xf7;" horiz-adv-x="667" 
d="M438 145c0 -32 -25 -56 -57 -55c-31 0 -56 24 -56 55c0 32 25 57 57 57s57 -25 56 -57zM438 434c0 -30 -25 -55 -56 -55c-32 1 -57 24 -57 56s25 57 57 57c32 -1 57 -26 56 -58zM714 251h-667v79h667v-79z" />
    <glyph glyph-name="onefitted" unicode="&#xf6dc;" horiz-adv-x="375" 
d="M223 642l7 23c98 9 121 16 212 49l-14 -40l-162 -556c-1 -4 -8 -26 -8 -47c0 -37 18 -45 76 -51l-7 -19h-283l10 22c18 1 34 1 50 6c39 11 53 46 64 84l128 449c1 5 7 21 7 39c0 2 0 11 -2 17c-8 23 -33 26 -78 24z" />
    <glyph glyph-name="Ccedilla" unicode="&#xc7;" horiz-adv-x="667" 
d="M801 711h26l-41 -217h-24c-1 21 -2 46 -8 66c-26 99 -122 103 -152 103c-78 0 -152 -37 -210 -89c-117 -108 -135 -249 -135 -304c0 -42 9 -72 14 -87c13 -39 58 -139 182 -139c14 0 45 2 81 14c68 24 108 64 157 117l28 -23c-22 -26 -38 -46 -63 -68
c-29 -26 -115 -94 -235 -94c-34 0 -125 6 -197 72c-60 55 -90 142 -90 226c0 85 33 242 213 357c100 63 176 71 228 71c22 0 66 -3 118 -18c33 -9 52 -18 68 -18c23 0 31 11 40 31zM269 -84l98 92h34l-39 -46c27 -14 51 -27 51 -60c0 -19 -11 -33 -15 -38
c-36 -45 -130 -44 -179 -45v17c32 1 81 2 107 23c13 10 16 21 16 27c0 10 -8 36 -37 36c-8 0 -19 -2 -36 -6z" />
    <glyph glyph-name="Eacute" unicode="&#xc9;" horiz-adv-x="625" 
d="M214 681l7 23h494c11 0 16 -2 16 -12c0 -5 -3 -18 -6 -30l-32 -134h-21c0 40 -2 89 -40 112c-23 13 -47 14 -72 15c-34 1 -69 2 -102 1c-16 0 -32 -1 -47 -2l-79 -262c71 -1 115 -2 144 7c58 18 79 73 87 89h22l-76 -252l-22 1c4 15 7 29 7 44c0 8 -1 37 -23 52
c-26 17 -80 15 -153 12c-14 -45 -28 -91 -41 -137c-8 -28 -16 -57 -23 -86c-1 -2 -8 -20 -8 -34c0 -6 2 -28 19 -36c10 -5 35 -7 65 -7c13 0 40 0 73 4c25 3 123 14 185 80c20 21 34 47 47 73h23l-62 -164c-15 -41 -9 -39 -55 -39h-519l7 24c24 4 47 7 66 20
c33 23 44 74 46 80l136 468c1 4 8 24 8 43c0 4 0 18 -8 27c-14 18 -43 19 -63 20zM586 891h159c-80 -39 -158 -79 -235 -119h-31z" />
    <glyph glyph-name="Ntilde" unicode="&#xd1;" horiz-adv-x="708" 
d="M195 679l6 24h177l232 -531c8 36 17 72 28 107c13 48 29 95 43 142c17 55 32 111 47 166c6 23 8 35 8 47c0 32 -18 43 -71 47l9 22h222l-8 -22c-20 -2 -27 -2 -37 -5c-43 -10 -56 -43 -70 -84c-25 -76 -49 -153 -73 -230c-33 -110 -64 -221 -95 -331c-1 -3 -2 -12 -5 -21
c-4 -9 -12 -19 -20 -19c-11 0 -21 14 -29 37l-235 524l-129 -434c0 -1 -10 -31 -10 -50c0 -39 39 -45 70 -47l-7 -20h-225l8 22c25 3 50 5 69 19c28 21 38 62 40 69l154 518c-2 3 -12 17 -22 27c-22 23 -44 23 -77 23zM754 883l35 -1c-9 -10 -17 -21 -26 -31
c-15 -17 -58 -68 -128 -68c-12 0 -28 1 -53 9c-28 9 -48 22 -79 22c-34 -1 -52 -15 -75 -38h-37c6 7 13 14 19 21c38 42 83 77 140 77c5 0 16 -1 29 -4c18 -4 34 -13 51 -19c23 -8 37 -9 49 -9c15 0 19 1 26 3c19 5 28 11 49 38z" />
    <glyph glyph-name="aacute" unicode="&#xe1;" horiz-adv-x="479" 
d="M448 417l18 54h74l-103 -347c-6 -21 -8 -33 -8 -45c0 -9 6 -23 17 -23c18 0 52 39 65 53l14 -16c-35 -39 -49 -54 -69 -72c-20 -17 -39 -34 -66 -34c-4 0 -17 1 -28 8c-21 14 -21 37 -21 47c0 34 18 78 20 82c-22 -25 -42 -50 -65 -73c-33 -33 -69 -61 -119 -61
c-20 0 -35 6 -41 9c-40 20 -56 76 -56 121c0 13 2 46 12 81c10 37 40 119 113 193c9 10 84 89 161 89c8 0 21 0 39 -8c27 -12 34 -30 43 -58zM175 157c-3 -28 -1 -54 20 -75c6 -6 17 -15 35 -15c24 1 62 18 98 62c45 55 95 161 96 234c0 15 -2 23 -3 29c-4 13 -15 45 -52 44
c-6 0 -20 -1 -35 -8c-27 -12 -49 -34 -67 -57c-45 -56 -86 -140 -92 -214zM429 716l121 -1c-25 -21 -50 -42 -75 -65c-36 -32 -70 -67 -105 -100h-30z" />
    <glyph glyph-name="agrave" unicode="&#xe0;" horiz-adv-x="479" 
d="M448 417l18 54h74l-103 -347c-6 -21 -8 -33 -8 -45c0 -9 6 -23 17 -23c18 0 52 39 65 53l14 -16c-35 -39 -49 -54 -69 -72c-20 -17 -39 -34 -66 -34c-4 0 -17 1 -28 8c-21 14 -21 37 -21 47c0 34 18 78 20 82c-22 -25 -42 -50 -65 -73c-33 -33 -69 -61 -119 -61
c-20 0 -35 6 -41 9c-40 20 -56 76 -56 121c0 13 2 46 12 81c10 37 40 119 113 193c9 10 84 89 161 89c8 0 21 0 39 -8c27 -12 34 -30 43 -58zM175 157c-3 -28 -1 -54 20 -75c6 -6 17 -15 35 -15c24 1 62 18 98 62c45 55 95 161 96 234c0 15 -2 23 -3 29c-4 13 -15 45 -52 44
c-6 0 -20 -1 -35 -8c-27 -12 -49 -34 -67 -57c-45 -56 -86 -140 -92 -214zM419 715l-4 -158h-29l-81 158h114z" />
    <glyph glyph-name="acircumflex" unicode="&#xe2;" horiz-adv-x="479" 
d="M448 417l18 54h74l-103 -347c-6 -21 -8 -33 -8 -45c0 -9 6 -23 17 -23c18 0 52 39 65 53l14 -16c-35 -39 -49 -54 -69 -72c-20 -17 -39 -34 -66 -34c-4 0 -17 1 -28 8c-21 14 -21 37 -21 47c0 34 18 78 20 82c-22 -25 -42 -50 -65 -73c-33 -33 -69 -61 -119 -61
c-20 0 -35 6 -41 9c-40 20 -56 76 -56 121c0 13 2 46 12 81c10 37 40 119 113 193c9 10 84 89 161 89c8 0 21 0 39 -8c27 -12 34 -30 43 -58zM175 157c-3 -28 -1 -54 20 -75c6 -6 17 -15 35 -15c24 1 62 18 98 62c45 55 95 161 96 234c0 15 -2 23 -3 29c-4 13 -15 45 -52 44
c-6 0 -20 -1 -35 -8c-27 -12 -49 -34 -67 -57c-45 -56 -86 -140 -92 -214zM392 715h75l52 -160h-21l-78 100l-141 -100h-34z" />
    <glyph glyph-name="atilde" unicode="&#xe3;" horiz-adv-x="479" 
d="M448 417l18 54h74l-103 -347c-6 -21 -8 -33 -8 -45c0 -9 6 -23 17 -23c18 0 52 39 65 53l14 -16c-35 -39 -49 -54 -69 -72c-20 -17 -39 -34 -66 -34c-4 0 -17 1 -28 8c-21 14 -21 37 -21 47c0 34 18 78 20 82c-22 -25 -42 -50 -65 -73c-33 -33 -69 -61 -119 -61
c-20 0 -35 6 -41 9c-40 20 -56 76 -56 121c0 13 2 46 12 81c10 37 40 119 113 193c9 10 84 89 161 89c8 0 21 0 39 -8c27 -12 34 -30 43 -58zM175 157c-3 -28 -1 -54 20 -75c6 -6 17 -15 35 -15c24 1 62 18 98 62c45 55 95 161 96 234c0 15 -2 23 -3 29c-4 13 -15 45 -52 44
c-6 0 -20 -1 -35 -8c-27 -12 -49 -34 -67 -57c-45 -56 -86 -140 -92 -214zM568 687h32c-15 -20 -65 -99 -151 -99c-20 0 -37 5 -43 7c-32 9 -58 24 -92 24s-48 -12 -71 -38h-34c9 11 17 22 27 32c35 39 76 65 130 65c28 0 52 -8 60 -11c38 -14 50 -19 71 -19
c34 0 50 15 71 39z" />
    <glyph glyph-name="ccedilla" unicode="&#xe7;" horiz-adv-x="396" 
d="M433 113l19 -21c-63 -53 -126 -105 -212 -105c-27 0 -44 5 -55 9c-39 13 -100 54 -100 158c0 49 15 128 88 217c56 67 127 112 215 112c8 0 23 0 41 -5c40 -11 76 -43 76 -87c0 -36 -25 -73 -63 -73c-11 0 -45 6 -45 42c0 18 9 30 12 34c6 9 20 23 20 34
c-1 9 -11 20 -33 20c-24 0 -70 -17 -111 -59c-51 -52 -101 -151 -101 -225c0 -22 5 -44 16 -63c27 -48 78 -52 96 -52c51 0 93 31 137 64zM134 -84l97 92h35l-40 -46c27 -14 51 -27 51 -60c0 -19 -11 -33 -14 -38c-36 -45 -130 -44 -180 -45l1 17c32 1 80 2 107 23
c13 10 15 21 15 27c0 10 -7 36 -37 36c-7 0 -18 -2 -35 -6z" />
    <glyph glyph-name="eacute" unicode="&#xe9;" horiz-adv-x="417" 
d="M422 120l20 -19c-13 -12 -25 -24 -38 -36c-23 -20 -86 -76 -180 -76c-12 0 -42 1 -71 16c-46 25 -70 79 -70 132c0 16 1 32 9 65c8 35 37 127 117 202c73 68 145 81 185 81c9 0 23 0 44 -6c37 -11 66 -41 66 -85c0 -17 -5 -46 -30 -77c-60 -73 -177 -92 -193 -94
c-30 -5 -45 -6 -99 -7c-5 -16 -7 -21 -7 -50c0 -31 4 -53 23 -75c13 -16 35 -34 83 -34c60 0 94 25 141 63zM190 244c37 0 69 1 103 13c89 32 121 108 120 143c0 39 -29 44 -43 44c-21 0 -52 -12 -87 -48c-62 -63 -81 -119 -93 -152zM419 716l120 -1
c-25 -21 -50 -42 -75 -65c-35 -32 -70 -67 -104 -100h-31z" />
    <glyph glyph-name="egrave" unicode="&#xe8;" horiz-adv-x="417" 
d="M422 120l20 -19c-13 -12 -25 -24 -38 -36c-23 -20 -86 -76 -180 -76c-12 0 -42 1 -71 16c-46 25 -70 79 -70 132c0 16 1 32 9 65c8 35 37 127 117 202c73 68 145 81 185 81c9 0 23 0 44 -6c37 -11 66 -41 66 -85c0 -17 -5 -46 -30 -77c-60 -73 -177 -92 -193 -94
c-30 -5 -45 -6 -99 -7c-5 -16 -7 -21 -7 -50c0 -31 4 -53 23 -75c13 -16 35 -34 83 -34c60 0 94 25 141 63zM190 244c37 0 69 1 103 13c89 32 121 108 120 143c0 39 -29 44 -43 44c-21 0 -52 -12 -87 -48c-62 -63 -81 -119 -93 -152zM409 715l-4 -158h-30l-81 158h115z" />
    <glyph glyph-name="ecircumflex" unicode="&#xea;" horiz-adv-x="417" 
d="M422 120l20 -19c-13 -12 -25 -24 -38 -36c-23 -20 -86 -76 -180 -76c-12 0 -42 1 -71 16c-46 25 -70 79 -70 132c0 16 1 32 9 65c8 35 37 127 117 202c73 68 145 81 185 81c9 0 23 0 44 -6c37 -11 66 -41 66 -85c0 -17 -5 -46 -30 -77c-60 -73 -177 -92 -193 -94
c-30 -5 -45 -6 -99 -7c-5 -16 -7 -21 -7 -50c0 -31 4 -53 23 -75c13 -16 35 -34 83 -34c60 0 94 25 141 63zM190 244c37 0 69 1 103 13c89 32 121 108 120 143c0 39 -29 44 -43 44c-21 0 -52 -12 -87 -48c-62 -63 -81 -119 -93 -152zM382 715h75l52 -160h-22l-77 100
l-142 -100h-33z" />
    <glyph glyph-name="edieresis" unicode="&#xeb;" horiz-adv-x="417" 
d="M422 120l20 -19c-13 -12 -25 -24 -38 -36c-23 -20 -86 -76 -180 -76c-12 0 -42 1 -71 16c-46 25 -70 79 -70 132c0 16 1 32 9 65c8 35 37 127 117 202c73 68 145 81 185 81c9 0 23 0 44 -6c37 -11 66 -41 66 -85c0 -17 -5 -46 -30 -77c-60 -73 -177 -92 -193 -94
c-30 -5 -45 -6 -99 -7c-5 -16 -7 -21 -7 -50c0 -31 4 -53 23 -75c13 -16 35 -34 83 -34c60 0 94 25 141 63zM190 244c37 0 69 1 103 13c89 32 121 108 120 143c0 39 -29 44 -43 44c-21 0 -52 -12 -87 -48c-62 -63 -81 -119 -93 -152zM253 650c7 22 33 38 57 38
c28 0 52 -26 52 -57c0 -30 -29 -53 -58 -53c-4 0 -13 1 -22 6c-22 12 -36 42 -29 66zM433 648c6 23 32 40 57 40c29 0 52 -24 52 -54s-28 -54 -58 -54c-33 0 -60 36 -51 68z" />
    <glyph glyph-name="iacute" unicode="&#xed;" horiz-adv-x="250" 
d="M126 438l7 20l105 15c9 1 18 2 30 5c7 2 15 5 21 5c3 0 8 -1 8 -9c0 -5 -4 -19 -8 -32l-97 -334c-5 -17 -9 -32 -9 -39c0 -2 2 -13 11 -12c4 0 10 2 14 5c24 13 37 29 54 49l13 -14c-26 -34 -39 -47 -72 -73c-20 -16 -42 -31 -69 -31c-40 0 -43 37 -43 49c0 10 2 21 8 43
l78 272c1 5 8 22 8 41c0 14 -4 22 -8 26c-16 19 -47 14 -51 14zM315 716l120 -1c-25 -21 -50 -42 -75 -65c-35 -32 -70 -67 -105 -100h-30z" />
    <glyph glyph-name="igrave" unicode="&#xec;" horiz-adv-x="250" 
d="M126 438l7 20l105 15c9 1 18 2 30 5c7 2 15 5 21 5c3 0 8 -1 8 -9c0 -5 -4 -19 -8 -32l-97 -334c-5 -17 -9 -32 -9 -39c0 -2 2 -13 11 -12c4 0 10 2 14 5c24 13 37 29 54 49l13 -14c-26 -34 -39 -47 -72 -73c-20 -16 -42 -31 -69 -31c-40 0 -43 37 -43 49c0 10 2 21 8 43
l78 272c1 5 8 22 8 41c0 14 -4 22 -8 26c-16 19 -47 14 -51 14zM305 715l-5 -158h-29l-81 158h115z" />
    <glyph glyph-name="icircumflex" unicode="&#xee;" horiz-adv-x="250" 
d="M126 438l7 20l105 15c9 1 18 2 30 5c7 2 15 5 21 5c3 0 8 -1 8 -9c0 -5 -4 -19 -8 -32l-97 -334c-5 -17 -9 -32 -9 -39c0 -2 2 -13 11 -12c4 0 10 2 14 5c24 13 37 29 54 49l13 -14c-26 -34 -39 -47 -72 -73c-20 -16 -42 -31 -69 -31c-40 0 -43 37 -43 49c0 10 2 21 8 43
l78 272c1 5 8 22 8 41c0 14 -4 22 -8 26c-16 19 -47 14 -51 14zM278 715h75l52 -160h-22l-78 100l-141 -100h-33z" />
    <glyph glyph-name="idieresis" unicode="&#xef;" horiz-adv-x="250" 
d="M126 438l7 20l105 15c9 1 18 2 30 5c7 2 15 5 21 5c3 0 8 -1 8 -9c0 -5 -4 -19 -8 -32l-97 -334c-5 -17 -9 -32 -9 -39c0 -2 2 -13 11 -12c4 0 10 2 14 5c24 13 37 29 54 49l13 -14c-26 -34 -39 -47 -72 -73c-20 -16 -42 -31 -69 -31c-40 0 -43 37 -43 49c0 10 2 21 8 43
l78 272c1 5 8 22 8 41c0 14 -4 22 -8 26c-16 19 -47 14 -51 14zM149 650c7 22 33 38 57 38c28 0 51 -26 51 -57c0 -30 -28 -53 -57 -53c-4 0 -13 1 -22 6c-22 12 -36 42 -29 66zM329 648c6 23 32 40 57 40c29 0 52 -24 52 -54s-29 -54 -58 -54c-33 0 -60 36 -51 68z" />
    <glyph glyph-name="ntilde" unicode="&#xf1;" horiz-adv-x="521" 
d="M129 438l7 20c35 4 69 9 101 14c17 3 34 8 39 8c4 0 8 -2 7 -14c0 -11 -3 -20 -6 -28l-52 -195c40 62 78 121 134 173c7 7 46 43 83 58c13 5 22 7 36 7c27 0 61 -10 61 -71c0 -28 -8 -62 -14 -88l-57 -201c-7 -21 -8 -26 -8 -39c0 -5 0 -25 14 -25c18 0 40 23 68 55
l13 -16c-26 -31 -49 -59 -80 -82c-2 -2 -33 -26 -59 -26c-2 0 -11 0 -18 5c-13 7 -22 21 -22 51c0 14 2 28 9 56l66 243c6 21 8 30 8 42c0 24 -18 32 -27 32c-3 0 -5 0 -11 -3c-14 -6 -43 -28 -71 -58c-23 -25 -116 -132 -160 -251c-11 -30 -16 -49 -29 -105h-92
c21 56 41 111 59 168c19 61 35 123 52 185c0 3 7 28 7 46c0 10 -2 16 -4 20c-12 23 -50 19 -54 19zM589 687h32c-15 -20 -65 -99 -151 -99c-20 0 -37 5 -44 7c-32 9 -57 24 -91 24s-48 -12 -71 -38h-34c9 11 17 22 27 32c35 39 76 65 130 65c28 0 51 -8 60 -11
c38 -14 50 -19 71 -19c34 0 49 15 71 39z" />
    <glyph glyph-name="oacute" unicode="&#xf3;" horiz-adv-x="479" 
d="M86 163c1 34 11 100 59 173c79 118 179 148 236 148c17 0 58 -2 97 -34c23 -19 51 -52 51 -123c0 -84 -41 -177 -96 -241c-72 -84 -151 -97 -194 -97c-67 0 -100 30 -117 51c-18 22 -39 58 -36 123zM177 128c-1 -22 2 -34 4 -44c4 -13 21 -58 68 -58c37 0 76 23 117 91
c37 59 70 156 70 227c0 48 -14 101 -68 101c-18 0 -46 -7 -76 -37c-16 -15 -41 -48 -64 -96c-8 -15 -49 -105 -51 -184zM429 716l121 -1c-25 -21 -50 -42 -75 -65c-36 -32 -70 -67 -105 -100h-30z" />
    <glyph glyph-name="ograve" unicode="&#xf2;" horiz-adv-x="479" 
d="M86 163c1 34 11 100 59 173c79 118 179 148 236 148c17 0 58 -2 97 -34c23 -19 51 -52 51 -123c0 -84 -41 -177 -96 -241c-72 -84 -151 -97 -194 -97c-67 0 -100 30 -117 51c-18 22 -39 58 -36 123zM177 128c-1 -22 2 -34 4 -44c4 -13 21 -58 68 -58c37 0 76 23 117 91
c37 59 70 156 70 227c0 48 -14 101 -68 101c-18 0 -46 -7 -76 -37c-16 -15 -41 -48 -64 -96c-8 -15 -49 -105 -51 -184zM419 715l-4 -158h-29l-81 158h114z" />
    <glyph glyph-name="ocircumflex" unicode="&#xf4;" horiz-adv-x="479" 
d="M86 163c1 34 11 100 59 173c79 118 179 148 236 148c17 0 58 -2 97 -34c23 -19 51 -52 51 -123c0 -84 -41 -177 -96 -241c-72 -84 -151 -97 -194 -97c-67 0 -100 30 -117 51c-18 22 -39 58 -36 123zM177 128c-1 -22 2 -34 4 -44c4 -13 21 -58 68 -58c37 0 76 23 117 91
c37 59 70 156 70 227c0 48 -14 101 -68 101c-18 0 -46 -7 -76 -37c-16 -15 -41 -48 -64 -96c-8 -15 -49 -105 -51 -184zM392 715h75l52 -160h-21l-78 100l-141 -100h-34z" />
    <glyph glyph-name="otilde" unicode="&#xf5;" horiz-adv-x="479" 
d="M86 163c1 34 11 100 59 173c79 118 179 148 236 148c17 0 58 -2 97 -34c23 -19 51 -52 51 -123c0 -84 -41 -177 -96 -241c-72 -84 -151 -97 -194 -97c-67 0 -100 30 -117 51c-18 22 -39 58 -36 123zM177 128c-1 -22 2 -34 4 -44c4 -13 21 -58 68 -58c37 0 76 23 117 91
c37 59 70 156 70 227c0 48 -14 101 -68 101c-18 0 -46 -7 -76 -37c-16 -15 -41 -48 -64 -96c-8 -15 -49 -105 -51 -184zM568 687h32c-15 -20 -65 -99 -151 -99c-20 0 -37 5 -43 7c-32 9 -58 24 -92 24s-48 -12 -71 -38h-34c9 11 17 22 27 32c35 39 76 65 130 65
c28 0 52 -8 60 -11c38 -14 50 -19 71 -19c34 0 50 15 71 39z" />
    <glyph glyph-name="uacute" unicode="&#xfa;" horiz-adv-x="500" 
d="M488 471h80l-15 -41l-94 -313c-2 -8 -9 -35 -9 -45c0 -14 10 -18 14 -18c16 1 39 23 67 54l14 -16c-32 -36 -87 -102 -141 -102c-26 0 -43 19 -43 45c1 12 7 36 15 64l37 118c-13 -20 -26 -40 -39 -59c-44 -63 -77 -94 -104 -116c-47 -38 -74 -52 -103 -52
c-42 0 -65 30 -65 70c0 18 6 41 11 59l68 234c5 13 9 24 9 40c0 4 0 22 -13 22c-17 -1 -40 -25 -68 -55l-16 18c16 17 33 34 50 49c39 35 66 49 91 49c27 0 45 -21 45 -47c0 -20 -8 -44 -9 -47l-75 -256c-2 -5 -9 -24 -9 -43c0 -24 17 -29 27 -29c11 0 21 6 40 21
c25 20 46 40 67 63c31 35 96 114 137 228c13 34 22 70 31 105zM440 716l120 -1c-25 -21 -50 -42 -75 -65c-35 -32 -70 -67 -105 -100h-30z" />
    <glyph glyph-name="ugrave" unicode="&#xf9;" horiz-adv-x="500" 
d="M488 471h80l-15 -41l-94 -313c-2 -8 -9 -35 -9 -45c0 -14 10 -18 14 -18c16 1 39 23 67 54l14 -16c-32 -36 -87 -102 -141 -102c-26 0 -43 19 -43 45c1 12 7 36 15 64l37 118c-13 -20 -26 -40 -39 -59c-44 -63 -77 -94 -104 -116c-47 -38 -74 -52 -103 -52
c-42 0 -65 30 -65 70c0 18 6 41 11 59l68 234c5 13 9 24 9 40c0 4 0 22 -13 22c-17 -1 -40 -25 -68 -55l-16 18c16 17 33 34 50 49c39 35 66 49 91 49c27 0 45 -21 45 -47c0 -20 -8 -44 -9 -47l-75 -256c-2 -5 -9 -24 -9 -43c0 -24 17 -29 27 -29c11 0 21 6 40 21
c25 20 46 40 67 63c31 35 96 114 137 228c13 34 22 70 31 105zM430 715l-5 -158h-29l-81 158h115z" />
    <glyph glyph-name="ucircumflex" unicode="&#xfb;" horiz-adv-x="500" 
d="M488 471h80l-15 -41l-94 -313c-2 -8 -9 -35 -9 -45c0 -14 10 -18 14 -18c16 1 39 23 67 54l14 -16c-32 -36 -87 -102 -141 -102c-26 0 -43 19 -43 45c1 12 7 36 15 64l37 118c-13 -20 -26 -40 -39 -59c-44 -63 -77 -94 -104 -116c-47 -38 -74 -52 -103 -52
c-42 0 -65 30 -65 70c0 18 6 41 11 59l68 234c5 13 9 24 9 40c0 4 0 22 -13 22c-17 -1 -40 -25 -68 -55l-16 18c16 17 33 34 50 49c39 35 66 49 91 49c27 0 45 -21 45 -47c0 -20 -8 -44 -9 -47l-75 -256c-2 -5 -9 -24 -9 -43c0 -24 17 -29 27 -29c11 0 21 6 40 21
c25 20 46 40 67 63c31 35 96 114 137 228c13 34 22 70 31 105zM403 715h75l52 -160h-22l-78 100l-141 -100h-33z" />
    <glyph glyph-name="Agrave" unicode="&#xc0;" horiz-adv-x="688" 
d="M620 716h24l-42 -594c-1 -24 -1 -44 1 -53c5 -33 29 -43 85 -46l-6 -22h-294l9 22c10 0 38 -3 62 15c28 21 32 57 35 90l5 104h-198l-81 -101c-23 -30 -39 -52 -39 -70c0 -5 1 -10 8 -19c13 -17 31 -21 50 -24l-7 -17h-230l6 18c60 15 73 23 114 71
c72 90 144 180 217 270c51 62 102 125 153 188c33 43 67 86 100 128zM336 277l167 1c3 36 6 73 9 111c3 27 5 56 8 84c3 19 6 38 9 56c-29 -42 -58 -84 -90 -125c-32 -43 -68 -85 -103 -127zM632 891l37 -121h-32l-162 121h157z" />
    <glyph glyph-name="Atilde" unicode="&#xc3;" horiz-adv-x="688" 
d="M620 716h24l-42 -594c-1 -24 -1 -44 1 -53c5 -33 29 -43 85 -46l-6 -22h-294l9 22c10 0 38 -3 62 15c28 21 32 57 35 90l5 104h-198l-81 -101c-23 -30 -39 -52 -39 -70c0 -5 1 -10 8 -19c13 -17 31 -21 50 -24l-7 -17h-230l6 18c60 15 73 23 114 71
c72 90 144 180 217 270c51 62 102 125 153 188c33 43 67 86 100 128zM336 277l167 1c3 36 6 73 9 111c3 27 5 56 8 84c3 19 6 38 9 56c-29 -42 -58 -84 -90 -125c-32 -43 -68 -85 -103 -127zM806 883l35 -1c-8 -10 -17 -21 -26 -31c-15 -17 -58 -68 -128 -68
c-12 0 -28 1 -53 9c-28 9 -48 22 -78 22c-35 -1 -53 -15 -76 -38h-37c7 7 13 14 19 21c38 42 83 77 140 77c5 0 16 -1 29 -4c18 -4 34 -13 51 -19c23 -8 38 -9 50 -9c14 0 18 1 25 3c19 5 28 11 49 38z" />
    <glyph glyph-name="Otilde" unicode="&#xd5;" horiz-adv-x="729" 
d="M125 268c7 137 83 241 113 277c35 45 145 171 322 171c38 0 72 -6 106 -21c52 -24 137 -87 138 -234c0 -50 -9 -128 -69 -227c-18 -28 -42 -62 -64 -87c-31 -37 -137 -159 -300 -158c-20 0 -65 1 -112 23c-57 26 -142 100 -134 256zM244 222c-3 -50 3 -98 34 -140
c6 -9 20 -26 43 -38c22 -12 43 -12 52 -12c138 0 231 186 236 195c60 113 75 219 75 267c0 20 -2 105 -59 153c-9 8 -35 27 -70 27c-37 0 -81 -20 -110 -41c-24 -17 -60 -51 -98 -110c-22 -33 -97 -160 -103 -301zM765 883l34 -1c-8 -10 -17 -21 -26 -31
c-14 -17 -58 -68 -128 -68c-11 0 -28 1 -53 9c-28 9 -48 22 -78 22c-35 -1 -52 -15 -76 -38h-36l18 21c39 42 83 77 140 77c5 0 16 -1 30 -4c17 -4 33 -13 50 -19c23 -8 38 -9 50 -9c14 0 18 1 26 3c18 5 27 11 49 38z" />
    <glyph glyph-name="ydieresis" unicode="&#xff;" horiz-adv-x="417" 
d="M86 439v19c17 3 35 6 51 9c12 2 23 4 34 6c17 3 27 9 35 9c14 -1 18 -25 23 -53c4 -25 9 -50 12 -76c9 -64 11 -139 11 -278c23 29 47 58 69 87c21 29 40 59 60 89c11 20 23 39 33 60c15 27 19 38 19 54c0 19 -10 17 -24 27c-6 4 -28 21 -28 48c0 28 20 46 47 46
c8 0 20 -2 34 -14c23 -20 24 -47 24 -56c0 -60 -41 -125 -71 -175c-19 -26 -37 -53 -56 -79c-63 -88 -121 -151 -195 -231c-15 -14 -30 -28 -45 -43c-45 -41 -75 -62 -104 -62c-4 0 -13 1 -24 5c-8 4 -30 16 -30 45c0 28 24 51 50 51c13 0 22 -7 26 -10c11 -8 20 -17 32 -17
c3 0 11 2 18 6c8 5 34 28 40 34c16 15 32 32 48 49c2 194 -4 234 -16 344c-9 51 -14 80 -36 96c-13 10 -32 10 -37 10zM232 650c7 22 33 38 57 38c28 0 52 -26 52 -57c0 -30 -29 -53 -58 -53c-4 0 -13 1 -22 6c-22 12 -35 42 -29 66zM412 648c7 23 33 40 57 40
c29 0 52 -24 52 -54s-28 -54 -58 -54c-33 0 -60 36 -51 68z" />
    <glyph glyph-name="Ydieresis" unicode="&#x178;" horiz-adv-x="667" 
d="M519 703l-6 -18c-34 -1 -50 -6 -64 -15c-11 -7 -24 -19 -24 -49c0 -20 6 -39 11 -57l57 -178l153 200c13 15 29 35 29 59c0 25 -26 36 -68 41l4 17h254l-5 -19c-30 -5 -47 -10 -70 -28c-22 -18 -63 -62 -83 -82l-203 -248l-62 -214c-1 -3 -9 -22 -9 -40
c0 -41 25 -48 86 -54l-5 -18h-317l8 22c40 2 72 3 98 37c16 20 22 41 28 64l66 232l-86 240c-9 26 -16 40 -23 50c-23 34 -52 37 -93 41l5 17h319zM401 848c7 25 33 43 60 43c31 0 55 -26 55 -57c0 -9 -2 -13 -3 -17c-11 -37 -43 -41 -54 -41c-9 0 -34 3 -49 24
c-5 6 -15 25 -9 48zM622 846c6 26 33 46 60 46c29 0 56 -31 55 -62c0 -4 0 -9 -3 -18c-5 -12 -20 -36 -55 -36c-10 0 -17 2 -26 6c-34 17 -34 52 -31 64z" />
    <glyph glyph-name="Acircumflex" unicode="&#xc2;" horiz-adv-x="688" 
d="M620 716h24l-42 -594c-1 -24 -1 -44 1 -53c5 -33 29 -43 85 -46l-6 -22h-294l9 22c10 0 38 -3 62 15c28 21 32 57 35 90l5 104h-198l-81 -101c-23 -30 -39 -52 -39 -70c0 -5 1 -10 8 -19c13 -17 31 -21 50 -24l-7 -17h-230l6 18c60 15 73 23 114 71
c72 90 144 180 217 270c51 62 102 125 153 188c33 43 67 86 100 128zM336 277l167 1c3 36 6 73 9 111c3 27 5 56 8 84c3 19 6 38 9 56c-29 -42 -58 -84 -90 -125c-32 -43 -68 -85 -103 -127zM620 892h70l92 -121h-39l-96 62l-129 -63h-45c12 9 24 18 35 27
c17 14 33 29 49 43c20 18 42 35 63 52z" />
    <glyph glyph-name="Ecircumflex" unicode="&#xca;" horiz-adv-x="625" 
d="M214 681l7 23h494c11 0 16 -2 16 -12c0 -5 -3 -18 -6 -30l-32 -134h-21c0 40 -2 89 -40 112c-23 13 -47 14 -72 15c-34 1 -69 2 -102 1c-16 0 -32 -1 -47 -2l-79 -262c71 -1 115 -2 144 7c58 18 79 73 87 89h22l-76 -252l-22 1c4 15 7 29 7 44c0 8 -1 37 -23 52
c-26 17 -80 15 -153 12c-14 -45 -28 -91 -41 -137c-8 -28 -16 -57 -23 -86c-1 -2 -8 -20 -8 -34c0 -6 2 -28 19 -36c10 -5 35 -7 65 -7c13 0 40 0 73 4c25 3 123 14 185 80c20 21 34 47 47 73h23l-62 -164c-15 -41 -9 -39 -55 -39h-519l7 24c24 4 47 7 66 20
c33 23 44 74 46 80l136 468c1 4 8 24 8 43c0 4 0 18 -8 27c-14 18 -43 19 -63 20zM516 892h70l92 -121h-39l-96 62l-129 -63h-46c13 9 25 18 36 27c17 14 33 29 49 43c20 18 41 35 63 52z" />
    <glyph glyph-name="Aacute" unicode="&#xc1;" horiz-adv-x="688" 
d="M620 716h24l-42 -594c-1 -24 -1 -44 1 -53c5 -33 29 -43 85 -46l-6 -22h-294l9 22c10 0 38 -3 62 15c28 21 32 57 35 90l5 104h-198l-81 -101c-23 -30 -39 -52 -39 -70c0 -5 1 -10 8 -19c13 -17 31 -21 50 -24l-7 -17h-230l6 18c60 15 73 23 114 71
c72 90 144 180 217 270c51 62 102 125 153 188c33 43 67 86 100 128zM336 277l167 1c3 36 6 73 9 111c3 27 5 56 8 84c3 19 6 38 9 56c-29 -42 -58 -84 -90 -125c-32 -43 -68 -85 -103 -127zM690 891h159c-80 -39 -158 -79 -235 -119h-31z" />
    <glyph glyph-name="Edieresis" unicode="&#xcb;" horiz-adv-x="625" 
d="M214 681l7 23h494c11 0 16 -2 16 -12c0 -5 -3 -18 -6 -30l-32 -134h-21c0 40 -2 89 -40 112c-23 13 -47 14 -72 15c-34 1 -69 2 -102 1c-16 0 -32 -1 -47 -2l-79 -262c71 -1 115 -2 144 7c58 18 79 73 87 89h22l-76 -252l-22 1c4 15 7 29 7 44c0 8 -1 37 -23 52
c-26 17 -80 15 -153 12c-14 -45 -28 -91 -41 -137c-8 -28 -16 -57 -23 -86c-1 -2 -8 -20 -8 -34c0 -6 2 -28 19 -36c10 -5 35 -7 65 -7c13 0 40 0 73 4c25 3 123 14 185 80c20 21 34 47 47 73h23l-62 -164c-15 -41 -9 -39 -55 -39h-519l7 24c24 4 47 7 66 20
c33 23 44 74 46 80l136 468c1 4 8 24 8 43c0 4 0 18 -8 27c-14 18 -43 19 -63 20zM370 848c7 25 33 43 59 43c32 0 56 -26 56 -57c0 -9 -2 -13 -3 -17c-11 -37 -43 -41 -55 -41c-8 0 -33 3 -48 24c-5 6 -15 25 -9 48zM590 846c6 26 34 46 60 46c30 0 56 -31 56 -62
c0 -4 0 -9 -4 -18c-4 -12 -20 -36 -54 -36c-10 0 -18 2 -27 6c-33 17 -33 52 -31 64z" />
    <glyph glyph-name="Egrave" unicode="&#xc8;" horiz-adv-x="625" 
d="M214 681l7 23h494c11 0 16 -2 16 -12c0 -5 -3 -18 -6 -30l-32 -134h-21c0 40 -2 89 -40 112c-23 13 -47 14 -72 15c-34 1 -69 2 -102 1c-16 0 -32 -1 -47 -2l-79 -262c71 -1 115 -2 144 7c58 18 79 73 87 89h22l-76 -252l-22 1c4 15 7 29 7 44c0 8 -1 37 -23 52
c-26 17 -80 15 -153 12c-14 -45 -28 -91 -41 -137c-8 -28 -16 -57 -23 -86c-1 -2 -8 -20 -8 -34c0 -6 2 -28 19 -36c10 -5 35 -7 65 -7c13 0 40 0 73 4c25 3 123 14 185 80c20 21 34 47 47 73h23l-62 -164c-15 -41 -9 -39 -55 -39h-519l7 24c24 4 47 7 66 20
c33 23 44 74 46 80l136 468c1 4 8 24 8 43c0 4 0 18 -8 27c-14 18 -43 19 -63 20zM528 891l37 -121h-32l-162 121h157z" />
    <glyph glyph-name="Iacute" unicode="&#xcd;" horiz-adv-x="333" 
d="M217 681l8 23h287l-9 -24c-32 -2 -42 -3 -56 -10c-31 -13 -43 -51 -52 -81l-140 -480c-5 -14 -10 -28 -10 -45c0 -8 1 -23 18 -33s39 -10 58 -9l-8 -22h-289l7 23c76 4 86 17 109 87l143 488c1 4 9 24 9 41c0 33 -21 41 -75 42zM451 891h159c-80 -39 -158 -79 -235 -119
h-31z" />
    <glyph glyph-name="Icircumflex" unicode="&#xce;" horiz-adv-x="333" 
d="M217 681l8 23h287l-9 -24c-32 -2 -42 -3 -56 -10c-31 -13 -43 -51 -52 -81l-140 -480c-5 -14 -10 -28 -10 -45c0 -8 1 -23 18 -33s39 -10 58 -9l-8 -22h-289l7 23c76 4 86 17 109 87l143 488c1 4 9 24 9 41c0 33 -21 41 -75 42zM380 892h71l92 -121h-40l-96 62l-128 -63
h-46l36 27c17 14 32 29 48 43c21 18 42 35 63 52z" />
    <glyph glyph-name="Idieresis" unicode="&#xcf;" horiz-adv-x="333" 
d="M217 681l8 23h287l-9 -24c-32 -2 -42 -3 -56 -10c-31 -13 -43 -51 -52 -81l-140 -480c-5 -14 -10 -28 -10 -45c0 -8 1 -23 18 -33s39 -10 58 -9l-8 -22h-289l7 23c76 4 86 17 109 87l143 488c1 4 9 24 9 41c0 33 -21 41 -75 42zM234 848c8 25 33 43 60 43
c31 0 55 -26 55 -57c0 -9 -1 -13 -2 -17c-12 -37 -44 -41 -55 -41c-8 0 -33 3 -49 24c-4 6 -15 25 -9 48zM455 846c6 26 34 46 60 46c30 0 56 -31 56 -62c0 -4 0 -9 -4 -18c-5 -12 -20 -36 -54 -36c-10 0 -18 2 -27 6c-33 17 -34 52 -31 64z" />
    <glyph glyph-name="Igrave" unicode="&#xcc;" horiz-adv-x="333" 
d="M217 681l8 23h287l-9 -24c-32 -2 -42 -3 -56 -10c-31 -13 -43 -51 -52 -81l-140 -480c-5 -14 -10 -28 -10 -45c0 -8 1 -23 18 -33s39 -10 58 -9l-8 -22h-289l7 23c76 4 86 17 109 87l143 488c1 4 9 24 9 41c0 33 -21 41 -75 42zM392 891l38 -121h-33l-162 121h157z" />
    <glyph glyph-name="Oacute" unicode="&#xd3;" horiz-adv-x="729" 
d="M125 268c7 137 83 241 113 277c35 45 145 171 322 171c38 0 72 -6 106 -21c52 -24 137 -87 138 -234c0 -50 -9 -128 -69 -227c-18 -28 -42 -62 -64 -87c-31 -37 -137 -159 -300 -158c-20 0 -65 1 -112 23c-57 26 -142 100 -134 256zM244 222c-3 -50 3 -98 34 -140
c6 -9 20 -26 43 -38c22 -12 43 -12 52 -12c138 0 231 186 236 195c60 113 75 219 75 267c0 20 -2 105 -59 153c-9 8 -35 27 -70 27c-37 0 -81 -20 -110 -41c-24 -17 -60 -51 -98 -110c-22 -33 -97 -160 -103 -301zM649 891h159c-80 -39 -158 -79 -236 -119h-30z" />
    <glyph glyph-name="Ocircumflex" unicode="&#xd4;" horiz-adv-x="729" 
d="M125 268c7 137 83 241 113 277c35 45 145 171 322 171c38 0 72 -6 106 -21c52 -24 137 -87 138 -234c0 -50 -9 -128 -69 -227c-18 -28 -42 -62 -64 -87c-31 -37 -137 -159 -300 -158c-20 0 -65 1 -112 23c-57 26 -142 100 -134 256zM244 222c-3 -50 3 -98 34 -140
c6 -9 20 -26 43 -38c22 -12 43 -12 52 -12c138 0 231 186 236 195c60 113 75 219 75 267c0 20 -2 105 -59 153c-9 8 -35 27 -70 27c-37 0 -81 -20 -110 -41c-24 -17 -60 -51 -98 -110c-22 -33 -97 -160 -103 -301zM578 892h71l91 -121h-39l-96 62l-129 -63h-45l36 27
c16 14 32 29 48 43c21 18 42 35 63 52z" />
    <glyph glyph-name="Ograve" unicode="&#xd2;" horiz-adv-x="729" 
d="M125 268c7 137 83 241 113 277c35 45 145 171 322 171c38 0 72 -6 106 -21c52 -24 137 -87 138 -234c0 -50 -9 -128 -69 -227c-18 -28 -42 -62 -64 -87c-31 -37 -137 -159 -300 -158c-20 0 -65 1 -112 23c-57 26 -142 100 -134 256zM244 222c-3 -50 3 -98 34 -140
c6 -9 20 -26 43 -38c22 -12 43 -12 52 -12c138 0 231 186 236 195c60 113 75 219 75 267c0 20 -2 105 -59 153c-9 8 -35 27 -70 27c-37 0 -81 -20 -110 -41c-24 -17 -60 -51 -98 -110c-22 -33 -97 -160 -103 -301zM590 891l38 -121h-33l-162 121h157z" />
    <glyph glyph-name="Uacute" unicode="&#xda;" horiz-adv-x="708" 
d="M200 681l8 24h291l-8 -23c-27 0 -38 -2 -51 -7c-35 -14 -46 -43 -59 -79l-97 -331c-2 -7 -11 -42 -11 -74c0 -10 0 -38 13 -63c23 -45 78 -71 130 -71c56 0 110 29 146 71c30 34 49 77 80 165l86 301c5 20 7 30 7 42c0 36 -18 41 -73 45l8 23h228l-10 -24
c-7 -1 -22 -2 -39 -7c-44 -13 -55 -45 -68 -87c-17 -54 -33 -109 -49 -163c-11 -37 -22 -75 -34 -112c-8 -26 -16 -53 -25 -80c-3 -8 -7 -17 -10 -25c-14 -34 -67 -159 -188 -203c-15 -6 -48 -16 -91 -16c-123 1 -184 66 -205 115c-14 32 -15 61 -15 75c0 19 2 36 10 74
c12 52 25 105 40 157c17 64 36 127 55 191c4 12 7 24 7 38c0 35 -20 46 -76 44zM638 891h159c-80 -39 -158 -79 -235 -119h-31z" />
    <glyph glyph-name="Ucircumflex" unicode="&#xdb;" horiz-adv-x="708" 
d="M200 681l8 24h291l-8 -23c-27 0 -38 -2 -51 -7c-35 -14 -46 -43 -59 -79l-97 -331c-2 -7 -11 -42 -11 -74c0 -10 0 -38 13 -63c23 -45 78 -71 130 -71c56 0 110 29 146 71c30 34 49 77 80 165l86 301c5 20 7 30 7 42c0 36 -18 41 -73 45l8 23h228l-10 -24
c-7 -1 -22 -2 -39 -7c-44 -13 -55 -45 -68 -87c-17 -54 -33 -109 -49 -163c-11 -37 -22 -75 -34 -112c-8 -26 -16 -53 -25 -80c-3 -8 -7 -17 -10 -25c-14 -34 -67 -159 -188 -203c-15 -6 -48 -16 -91 -16c-123 1 -184 66 -205 115c-14 32 -15 61 -15 75c0 19 2 36 10 74
c12 52 25 105 40 157c17 64 36 127 55 191c4 12 7 24 7 38c0 35 -20 46 -76 44zM568 892h70l92 -121h-39l-96 62l-129 -63h-46c13 9 25 18 36 27c17 14 33 29 49 43c20 18 42 35 63 52z" />
    <glyph glyph-name="Ugrave" unicode="&#xd9;" horiz-adv-x="708" 
d="M200 681l8 24h291l-8 -23c-27 0 -38 -2 -51 -7c-35 -14 -46 -43 -59 -79l-97 -331c-2 -7 -11 -42 -11 -74c0 -10 0 -38 13 -63c23 -45 78 -71 130 -71c56 0 110 29 146 71c30 34 49 77 80 165l86 301c5 20 7 30 7 42c0 36 -18 41 -73 45l8 23h228l-10 -24
c-7 -1 -22 -2 -39 -7c-44 -13 -55 -45 -68 -87c-17 -54 -33 -109 -49 -163c-11 -37 -22 -75 -34 -112c-8 -26 -16 -53 -25 -80c-3 -8 -7 -17 -10 -25c-14 -34 -67 -159 -188 -203c-15 -6 -48 -16 -91 -16c-123 1 -184 66 -205 115c-14 32 -15 61 -15 75c0 19 2 36 10 74
c12 52 25 105 40 157c17 64 36 127 55 191c4 12 7 24 7 38c0 35 -20 46 -76 44zM580 891l37 -121h-32l-162 121h157z" />
    </font>
</defs>
</svg>
